<?xml version="1.0" standalone="no"?>
<!DOCTYPE svg PUBLIC "-//W3C//DTD SVG 1.1//EN" "http://www.w3.org/Graphics/SVG/1.1/DTD/svg11.dtd" >
<svg>
<metadata>
Created by FontForge 20090914 at Thu Jun 11 08:19:51 2015
 By www-data
&#194;&#169; 2005-2014 HacenType, All Rights Reserved.
</metadata>
<defs>
<font id="HacenSaudiArabia" horiz-adv-x="1014" >
  <font-face 
    font-family="Hacen Saudi Arabia"
    font-weight="400"
    font-stretch="normal"
    units-per-em="2048"
    panose-1="2 0 5 0 0 0 0 0 0 0"
    ascent="1638"
    descent="-410"
    x-height="1247"
    cap-height="1579"
    bbox="-342 -530 2701 2134"
    underline-thickness="150"
    underline-position="-225"
    unicode-range="U+0020-U+FED8"
  />
<missing-glyph horiz-adv-x="1024" 
d="M100 0v1434h824v-1434h-824zM150 50h724v1334h-724v-1334zM325 1148c20.667 18.667 40.002 32.998 58.002 42.998c35.333 20 72.666 30 111.999 30c61.333 0 110.666 -15.833 147.999 -47.5s56 -74.167 56 -127.5c0 -32.667 -7.66699 -65.5 -23 -98.5
s-44.333 -76.167 -87 -129.5c-42 -53.333 -75 -97.333 -99 -132s-36 -67.667 -36 -99c0 -25.333 8 -69.666 24 -132.999h-32c-23.333 64.667 -35 114 -35 148c0 50.667 27.167 123.334 81.5 218.001s81.5 167 81.5 217c0 38 -11 68 -33 90s-52.333 33 -91 33
c-25.333 0 -48.333 -5.66699 -69 -17c-17.333 -10 -36 -23.333 -56 -40v45zM389.002 333.998l57 57.999c7.33301 6.66699 14 10 20 10c6.66699 0 14 -3.66699 22 -11l56 -60c6 -7.33301 9 -14 9 -20c0 -7.33301 -3.33301 -14.666 -10 -21.999l-56 -62
c-9.33301 -9.33301 -16.333 -14 -21 -14c-7.33301 0 -14 3.33301 -20 10l-61 71c-4.66699 6 -7 12 -7 18c0 6.66699 3.66699 14 11 22z" />
    <glyph glyph-name="uniFC5E" unicode="&#x651;&#x64c;" horiz-adv-x="484" arabic-form="isolated" 
d="M396 1846c8.66699 -10 16.1689 -21.001 22.502 -33.001s12.166 -24 17.499 -36c7.33301 -21.333 11.666 -43.333 12.999 -66v-13c0 -18 -2 -34.667 -6 -50c-5.33301 -20 -14.166 -36.833 -26.499 -50.5s-28.166 -21.834 -47.499 -24.501c-6 -0.666992 -11.667 -1 -17 -1
c-8.66699 0 -15.667 1.33301 -21 4c-9.33301 4.66699 -19.666 11 -30.999 19c-2.66699 -7.33301 -6.33398 -15.666 -11.001 -24.999s-10.834 -18.666 -18.501 -27.999s-16.834 -17.833 -27.501 -25.5s-23.334 -13.167 -38.001 -16.5c-10.667 -2.66699 -20.334 -4 -29.001 -4
c-10 0 -19 2 -27 6c-15.333 6 -27.5 15.667 -36.5 29s-15.333 29.166 -19 47.499s-5.5 36.5 -5.5 54.5c-0.666992 1.33301 -1 3 -1 5c0 15.333 1.33301 29.666 4 42.999c2.66699 14.667 5.66699 25.667 9 33c0 -0.666992 0.333008 -1 1 -1s2 1 4 3
c3.33301 2.66699 6.83301 6 10.5 10s7.16699 7.33301 10.5 10c1.33301 1.33301 2.33301 2 3 2s1 -0.333008 1 -1c-3.33301 -14 -5.33301 -29.667 -6 -47c-0.666992 -4 -1 -8 -1 -12c0 -13.333 1.66699 -26 5 -38c3.33301 -15.333 9.66602 -27.666 18.999 -36.999
c6.66699 -7.33301 15.667 -11 27 -11c4 0 8.33301 0.333008 13 1c18.667 3.33301 32.334 11 41.001 23s14.667 25.5 18 40.5s5.5 30.167 6.5 45.5s3.16699 28.333 6.5 39c0 -0.666992 0.333008 -1 1 -1c1.33301 0 2.66602 0.666992 3.99902 2c2 2.66699 4.5 5.66699 7.5 9
s5.83301 6.66602 8.5 9.99902c1.33301 1.33301 2.33301 2 3 2s1.33398 -0.333008 2.00098 -1c-0.666992 -4.66699 -1 -9.66699 -1 -15c0 -14 2.33301 -27 7 -39c6 -16 14.667 -28.333 26 -37c10 -8.66699 22 -13 36 -13c0.666992 0 1.33398 0.333008 2.00098 1
c14 0 28.333 6.66699 43 20c2 4.66699 3 9.66699 3 15c0 2.66699 -0.333008 5.33398 -1 8.00098c-1.33301 8.66699 -4.16602 17.334 -8.49902 26.001s-9.33301 17 -15 25s-11.5 15 -17.5 21c7.33301 13.333 13.833 25.833 19.5 37.5zM425.002 1928
c-4.66699 -8 -11.666 -17.498 -20.999 -28.498s-20.333 -22.333 -33 -34s-26.667 -22.667 -42 -33s-31.333 -19 -48 -26s-33.334 -11.167 -50.001 -12.5c-3.33301 -0.666992 -7 -1 -11 -1c-12.667 0 -25 2.33301 -37 7c-15.333 6.66699 -23.666 15.667 -24.999 27
c-0.666992 3.33301 -1 6.66602 -1 9.99902c0 8 1.33301 16.667 4 26c3.33301 12.667 7 24.667 11 36c2 4.66699 3 9 3 13c0 5.33301 -1.66699 10 -5 14c-5.33301 6 -16.666 9 -33.999 9h-2c-19.333 -0.666992 -49.666 -6.66699 -90.999 -18
c13.333 15.333 28.833 27.833 46.5 37.5s35.5 15.834 53.5 18.501c7.33301 1.33301 14.333 2 21 2c10 0 19.333 -1 28 -3c15.333 -4 27.333 -11 36 -21c6.66699 -8.66699 10 -20 10 -34v-6c-1.33301 -17.333 -9.33301 -38 -24 -62c32 11.333 61.833 24 89.5 38
s52.834 31.667 75.501 53c-28.667 6 -49.667 15 -63 27s-21 25.333 -23 40c-0.666992 3.33301 -1 6.66602 -1 9.99902c0 11.333 3 23 9 35c7.33301 15.333 17.666 29.166 30.999 41.499s28.666 22.5 45.999 30.5c16 6.66699 32 10 48 10h4
c14.667 -1.33301 24.667 -8.33301 30 -21c4.66699 -12 7 -25.333 7 -40v-3c-0.666992 -16 -2.83398 -31.5 -6.50098 -46.5s-6.83398 -25.5 -9.50098 -31.5l40 -10l-18 -65zM403.003 2065c-3.33301 3.33301 -7.33301 5.50098 -12 6.50098s-8.66699 1.5 -12 1.5h-3
c-8 0 -14.667 -2.33301 -20 -7c-6.66699 -5.33301 -10 -11.333 -10 -18c-0.666992 -2 -1 -3.66699 -1 -5c0 -4.66699 1.66699 -8.33398 5 -11.001c3.33301 -4.66699 8 -8.66699 14 -12s13.167 -6.5 21.5 -9.5l25.5 -9.5c1.33301 11.333 2 21.333 2 30
c0 7.33301 -0.666992 14.5 -2 21.5s-4 11.833 -8 14.5v-2z" />
    <glyph glyph-name="uniFC5F" unicode="&#x651;&#x64d;" horiz-adv-x="425" arabic-form="isolated" 
d="M370 2050c8 -10 15.1641 -21.1729 21.4971 -33.5059s11.833 -24.5 16.5 -36.5c6.66699 -21.333 10.334 -43.333 11.001 -66v-7c0 -20 -2.33301 -38.667 -7 -56c-6 -19.333 -15.333 -35.666 -28 -48.999s-28.667 -21.333 -48 -24
c-4.66699 -0.666992 -9.33398 -1 -14.001 -1c-10 0 -18 1.66699 -24 5c-9.33301 4.66699 -19.666 11.334 -30.999 20.001c-2.66699 -7.33301 -6.5 -15.666 -11.5 -24.999s-11.333 -18.5 -19 -27.5s-17 -17.167 -28 -24.5s-23.833 -12.666 -38.5 -15.999
c-9.33301 -2 -18 -3 -26 -3c-11.333 0 -21.333 2 -30 6c-15.333 6.66699 -27.166 17 -35.499 31s-14.166 30 -17.499 48c-3.33301 16.667 -5 33 -5 49c0 1.33301 0.333008 3 1 5c0 17.333 1.33301 33.5 4 48.5s6 25.833 10 32.5c0 -0.666992 0.333008 -1 1 -1s2 1 4 3l10 10
c4 4 7.66699 7.33301 11 10c1.33301 1.33301 2.33301 2 3 2s1 -0.333008 1 -1c-4 -14 -6.66699 -30 -8 -48c-0.666992 -5.33301 -1 -10.333 -1 -15c0 -12.667 1.33301 -24.334 4 -35.001c3.33301 -15.333 9.66602 -27.666 18.999 -36.999c6.66699 -8 16 -12 28 -12
c3.33301 0 7 0.333008 11 1c19.333 2.66699 33.5 9.66699 42.5 21s15.333 24.5 19 39.5s6 30.333 7 46s3.5 28.834 7.5 39.501c0 -0.666992 0.666992 -1 2 -1c0.666992 0 1.66699 0.666992 3 2c2.66699 2 5.5 4.83301 8.5 8.5s5.83301 6.83398 8.5 9.50098
c0.666992 1.33301 1.66699 2 3 2c0.666992 0 1.33398 -0.333008 2.00098 -1c-0.666992 -6.66699 -1 -13 -1 -19c0 -12 1.66699 -23.333 5 -34c5.33301 -16.667 13.333 -29.5 24 -38.5s23 -13.5 37 -13.5c14.667 0 29.667 6.66699 45 20c2.66699 4.66699 4 9.66699 4 15
c0 2.66699 -0.333008 5.33398 -1 8.00098c-1.33301 8 -4 16.333 -8 25s-8.83301 17.167 -14.5 25.5s-11.167 15.5 -16.5 21.5l20 37c6 11.333 12.333 22.666 19 33.999zM390.997 1683.99l-350 -141l33 75l350 141zM380.997 1578.99l-350 -141l33 75l350 141z" />
    <glyph glyph-name="uniFC60" unicode="&#x651;&#x64e;" horiz-adv-x="425" arabic-form="isolated" 
d="M398 1823c3.33301 -5.33301 5.33105 -9.33301 5.99805 -12v-3c0 -2 -0.333008 -4 -1 -6c-0.666992 -2.66699 -1 -5.33398 -1 -8.00098c-0.666992 -0.666992 -1 -1.33398 -1 -2.00098c0 -2.66699 1.33301 -6.66699 4 -12c8 -21.333 13 -43.333 15 -66v-17
c0 -16 -1.66699 -31.333 -5 -46c-5.33301 -20 -14 -37 -26 -51s-27.667 -22.667 -47 -26c-6 -0.666992 -11.667 -1 -17 -1c-8.66699 0 -16 1.33301 -22 4c-9.33301 4.66699 -19.666 10.667 -30.999 18c-2.66699 -7.33301 -6.16699 -15.833 -10.5 -25.5
s-10.333 -19.167 -18 -28.5s-16.667 -17.833 -27 -25.5s-22.833 -13.167 -37.5 -16.5c-14 -4 -26.667 -6 -38 -6c-6.66699 0 -12.667 1 -18 3c-14.667 3.33301 -26.334 9.83301 -35.001 19.5s-14.5 21.334 -17.5 35.001s-4.5 27.167 -4.5 40.5c0 14 1.5 27.167 4.5 39.5
s6.16699 22.166 9.5 29.499c0 -0.666992 0.333008 -1 1 -1s2 1 4 3c2.66699 2.66699 5.66699 6 9 10s6.66602 7.66699 9.99902 11c2 1.33301 3.33301 2 4 2s1 -0.333008 1 -1c-3.33301 -14 -5.66602 -27.333 -6.99902 -40c-0.666992 -4 -1 -8 -1 -12c0 -7.33301 1 -14 3 -20
c2.66699 -9.33301 8.33398 -15.666 17.001 -18.999c4.66699 -2 10.334 -3 17.001 -3c6 0 13 0.666992 21 2c18.667 3.33301 32.334 11 41.001 23s14.5 25.5 17.5 40.5s4.83301 30.333 5.5 46s2.66699 28.834 6 39.501c0 -0.666992 0.333008 -1 1 -1
c1.33301 0 2.66602 0.666992 3.99902 2l7 9l8 10c1.33301 1.33301 2.66602 2 3.99902 2c0.666992 0 1.33398 -0.333008 2.00098 -1c-0.666992 -4.66699 -1 -9.33398 -1 -14.001c0 -14.667 2.66699 -28 8 -40c6 -16 14.667 -28 26 -36c10 -8 21.333 -12 34 -12h4
c14 0.666992 28 7.66699 42 21c2 4.66699 3 9.66699 3 15c0 2.66699 -0.333008 5.33398 -1 8.00098c-1.33301 8.66699 -4.16602 17.167 -8.49902 25.5s-9.5 16.5 -15.5 24.5s-12 15 -18 21c3.33301 6.66699 8.16602 11.834 14.499 15.501s13 7 20 10s13.667 6.16699 20 9.5
s11.5 7.66602 15.5 12.999zM400.998 1903l-340 -193l17 91l340 193z" />
    <glyph glyph-name="uniFC61" unicode="&#x651;&#x64f;" horiz-adv-x="437" arabic-form="isolated" 
d="M372 1846c8.66699 -10 16.1689 -21.001 22.502 -33.001s12.166 -24 17.499 -36c7.33301 -21.333 11.666 -43.333 12.999 -66v-13c0 -18 -2 -34.667 -6 -50c-5.33301 -20 -14.166 -36.833 -26.499 -50.5s-28.166 -21.834 -47.499 -24.501c-6 -0.666992 -11.667 -1 -17 -1
c-8.66699 0 -15.667 1.33301 -21 4c-9.33301 4.66699 -19.666 11 -30.999 19c-2.66699 -7.33301 -6.33398 -15.666 -11.001 -24.999s-10.834 -18.666 -18.501 -27.999s-16.834 -17.833 -27.501 -25.5s-23.334 -13.167 -38.001 -16.5c-10.667 -2.66699 -20.334 -4 -29.001 -4
c-10 0 -19 2 -27 6c-15.333 6 -27.5 15.667 -36.5 29s-15.333 29.166 -19 47.499s-5.5 36.5 -5.5 54.5c-0.666992 1.33301 -1 3 -1 5c0 15.333 1.33301 29.666 4 42.999c2.66699 14.667 5.66699 25.667 9 33c0 -0.666992 0.333008 -1 1 -1s2 1 4 3
c3.33301 2.66699 6.83301 6 10.5 10s7.16699 7.33301 10.5 10c1.33301 1.33301 2.33301 2 3 2s1 -0.333008 1 -1c-3.33301 -14 -5.33301 -29.667 -6 -47c-0.666992 -4 -1 -8 -1 -12c0 -13.333 1.66699 -26 5 -38c3.33301 -15.333 9.66602 -27.666 18.999 -36.999
c6.66699 -7.33301 15.667 -11 27 -11c4 0 8.33301 0.333008 13 1c18.667 3.33301 32.334 11 41.001 23s14.667 25.5 18 40.5s5.5 30.167 6.5 45.5s3.16699 28.333 6.5 39c0 -0.666992 0.333008 -1 1 -1c1.33301 0 2.66602 0.666992 3.99902 2c2 2.66699 4.5 5.66699 7.5 9
s5.83301 6.66602 8.5 9.99902c1.33301 1.33301 2.33301 2 3 2s1.33398 -0.333008 2.00098 -1c-0.666992 -4.66699 -1 -9.66699 -1 -15c0 -14 2.33301 -27 7 -39c6 -16 14.667 -28.333 26 -37c10 -8.66699 22 -13 36 -13c0.666992 0 1.33398 0.333008 2.00098 1
c14 0 28.333 6.66699 43 20c2 4.66699 3 9.66699 3 15c0 2.66699 -0.333008 5.33398 -1 8.00098c-1.33301 8.66699 -4.16602 17.334 -8.49902 26.001s-9.33301 17 -15 25s-11.5 15 -17.5 21c7.33301 13.333 13.833 25.833 19.5 37.5zM347.002 1915
c-7.33301 -12 -19.667 -25.6602 -37 -40.9932s-37.833 -29.833 -61.5 -43.5s-49.167 -24.834 -76.5 -33.501c-24 -8 -48 -12 -72 -12h-11c-38 2.66699 -63 4 -75 4c-8.66699 0 -13 0.333008 -13 1s0.333008 1 1 1l103 34c28.667 9.33301 54.334 18.666 77.001 27.999
s43.167 19.666 61.5 30.999s36.5 25.666 54.5 42.999c-30.667 5.33301 -53.167 14.166 -67.5 26.499s-22.5 25.833 -24.5 40.5c-0.666992 3.33301 -1 6.66602 -1 9.99902c0 11.333 3 23 9 35c8 15.333 19 29.333 33 42s30.333 23 49 31c16.667 6.66699 33.667 10 51 10h4
c15.333 -0.666992 25.666 -7.33398 30.999 -20.001c5.33301 -12 8 -25.667 8 -41v-2c-0.666992 -16.667 -3 -32.667 -7 -48s-7.33301 -26.333 -10 -33l43 -10l-19 -63zM322.001 2054.01c-3.33301 3.33301 -7.16797 5.5 -11.501 6.5s-8.16602 1.5 -11.499 1.5h-4
c-9.33301 0 -16.666 -2.33301 -21.999 -7c-6.66699 -5.33301 -10.334 -11.666 -11.001 -18.999v-3c0 -12 6.33301 -20.667 19 -26c14 -6.66699 30.667 -12.667 50 -18c1.33301 10.667 2 20.667 2 30c0 7.33301 -0.666992 14.666 -2 21.999s-4.33301 12 -9 14v-1z" />
    <glyph glyph-name="uniFC62" unicode="&#x651;&#x650;" horiz-adv-x="425" arabic-form="isolated" 
d="M385 1972c8 -10 15.1641 -21.1729 21.4971 -33.5059s11.833 -24.5 16.5 -36.5c6.66699 -21.333 10.334 -43.333 11.001 -66v-7c0 -20 -2.33301 -38.667 -7 -56c-6 -19.333 -15.333 -35.666 -28 -48.999s-28.667 -21.333 -48 -24
c-4.66699 -0.666992 -9.33398 -1 -14.001 -1c-10 0 -18 1.66699 -24 5c-9.33301 4.66699 -19.666 11.334 -30.999 20.001c-2.66699 -7.33301 -6.5 -15.666 -11.5 -24.999s-11.333 -18.5 -19 -27.5s-17 -17.167 -28 -24.5s-23.833 -12.666 -38.5 -15.999
c-9.33301 -2 -18 -3 -26 -3c-11.333 0 -21.333 2 -30 6c-15.333 6.66699 -27.166 17 -35.499 31s-14.166 30 -17.499 48c-3.33301 16.667 -5 33 -5 49c0 1.33301 0.333008 3 1 5c0 17.333 1.33301 33.333 4 48s6 25.667 10 33c0 -0.666992 0.333008 -1 1 -1s2 1 4 3l10 10
c4 4 7.66699 7.33301 11 10c1.33301 1.33301 2.33301 2 3 2s1 -0.333008 1 -1c-4 -14 -6.66699 -30 -8 -48c-0.666992 -5.33301 -1 -10.333 -1 -15c0 -12.667 1.33301 -24.334 4 -35.001c3.33301 -15.333 9.66602 -27.666 18.999 -36.999c6.66699 -8 16 -12 28 -12
c3.33301 0 7 0.333008 11 1c19.333 2.66699 33.5 9.66699 42.5 21s15.333 24.5 19 39.5s6 30.333 7 46s3.5 28.834 7.5 39.501c0 -0.666992 0.666992 -1 2 -1c0.666992 0 1.66699 0.666992 3 2c2.66699 2 5.5 4.83301 8.5 8.5s5.83301 6.83398 8.5 9.50098
c0.666992 1.33301 1.66699 2 3 2c0.666992 0 1.33398 -0.333008 2.00098 -1c-0.666992 -6.66699 -1 -13 -1 -19c0 -12 1.66699 -23.333 5 -34c5.33301 -16.667 13.333 -29.5 24 -38.5s23 -13.5 37 -13.5c14.667 0 29.667 6.66699 45 20c2.66699 4.66699 4 9.66699 4 15
c0 2.66699 -0.333008 5.33398 -1 8.00098c-1.33301 8 -4 16.333 -8 25s-8.83301 17.167 -14.5 25.5s-11.167 15.5 -16.5 21.5l20 37c6 11.333 12.333 22.666 19 33.999zM421.997 1589.99l-340 -193l17 91l340 193z" />
    <glyph glyph-name="afii57409" unicode="&#x621;" horiz-adv-x="1079" arabic-form="isolated" 
d="M68 184l609.999 -0.00195312c12 0 25.5 1.83301 40.5 5.5s28.167 12.167 39.5 25.5c11.333 11.333 17.5 23.333 18.5 36s1.5 23.334 1.5 32.001c0 15.333 -1.66699 29.666 -5 42.999s-11.666 26.333 -24.999 39c-4 4 -9.66699 7.83301 -17 11.5s-18 8 -32 13
s-32.833 11 -56.5 18l-91.5 26.5l-209 58c-58 15.333 -106.833 33.5 -146.5 54.5s-70.167 46.5 -91.5 76.5s-35.166 61.167 -41.499 93.5s-9.5 62.5 -9.5 90.5s3.16699 58.167 9.5 90.5s20.166 63.5 41.499 93.5c16.667 22.667 35.334 40.334 56.001 53.001
s42.167 22 64.5 28s45.333 9.66699 69 11s47.5 2 71.5 2h612v-184h-576c-13.333 0 -27.333 -0.5 -42 -1.5s-28.667 -7.16699 -42 -18.5c-15.333 -11.333 -24.166 -23.333 -26.499 -36s-3.5 -26.667 -3.5 -42s1.66699 -29.833 5 -43.5s13.333 -27.167 30 -40.5
c7.33301 -6 17.333 -12 30 -18s25.667 -11.5 39 -16.5s26 -9.33301 38 -13s21.333 -6.16699 28 -7.5l233 -66l89.5 -28c27 -8.66699 51.667 -17.667 74 -27s42.333 -19.5 60 -30.5s33.5 -23.5 47.5 -37.5c14 -14.667 25.167 -30.5 33.5 -47.5s14.833 -34.167 19.5 -51.5
s7.83398 -34.666 9.50098 -51.999s2.5 -33.333 2.5 -48c0 -32.667 -2.83301 -61.5 -8.5 -86.5s-12.834 -46.833 -21.501 -65.5s-18.334 -34.5 -29.001 -47.5s-21 -23.5 -31 -31.5c-14 -10 -28.5 -18 -43.5 -24s-30 -10.5 -45 -13.5s-29.833 -5 -44.5 -6
s-28.334 -1.5 -41.001 -1.5h-694v184z" />
    <glyph glyph-name="afii57410" unicode="&#x622;" horiz-adv-x="403" arabic-form="isolated" 
d="M82 1434h240v-1434h-240v1434zM10 1636h377v-108h-377v108z" />
    <glyph glyph-name="afii57411" unicode="&#x623;" horiz-adv-x="403" arabic-form="isolated" 
d="M82 1434h240v-1434h-240v1434zM99 1593h121c4.66699 0 7 2 7 6c0 1.33301 -0.166992 2.33301 -0.5 3s-2.83301 1.83398 -7.5 3.50098s-12.334 4.16699 -23.001 7.5l-46 15c-19.333 6.66699 -33.166 15.167 -41.499 25.5s-12.5 24.166 -12.5 41.499
c0 22.667 5.66699 38.5 17 47.5s26.333 13.5 45 13.5h149v-57h-121c-1.33301 0 -3.66602 0.333008 -6.99902 1h-1c-3.33301 0 -5 -1.66699 -5 -5c0 -1.33301 1.16699 -2.83301 3.5 -4.5s6.33301 -3.5 12 -5.5l23.5 -8l38 -13c21.333 -7.33301 37.166 -16.333 47.499 -27
s15.5 -26 15.5 -46c0 -17.333 -4.83301 -31.333 -14.5 -42s-23.167 -16 -40.5 -16h-159v60z" />
    <glyph glyph-name="afii57412" unicode="&#x624;" horiz-adv-x="1176" arabic-form="isolated" 
d="M129 -174l457.002 0.000976562c13.333 0 28.166 0.5 44.499 1.5s34.166 2.83301 53.499 5.5c38.667 4.66699 72.667 18.667 102 42c35.333 30.667 56.666 72.334 63.999 125.001h-385c-27.333 0 -56 1.16699 -86 3.5s-59.5 8.16602 -88.5 17.499
s-56.667 23.166 -83 41.499s-49.833 43.833 -70.5 76.5c-56 86.667 -84 226.667 -84 420c0 85.333 7 161.666 21 228.999c15.333 68 46.666 127.667 93.999 179c25.333 28 51.833 50 79.5 66s55.834 27.833 84.501 35.5s57.334 12.334 86.001 14.001s56.667 2.5 84 2.5h350
c32 0 62.833 -2 92.5 -6s57.5 -16.333 83.5 -37c28 -24 45.333 -50 52 -78c8 -29.333 12 -55.666 12 -78.999v-762c0 -70 -5.83301 -135 -17.5 -195s-35.167 -111.667 -70.5 -155c-25.333 -30 -54.833 -53.667 -88.5 -71s-67.667 -30.333 -102 -39
s-66.833 -14.334 -97.5 -17.001s-55.667 -4 -75 -4h-512v184zM852.002 815.001c0 15.333 -1.66504 28.333 -4.99805 39s-12 21 -26 31c-10.667 6.66699 -21.167 11 -31.5 13s-20.833 3 -31.5 3h-205c-40 0 -76.333 -5.83301 -109 -17.5s-58.334 -28.167 -77.001 -49.5
c-16.667 -19.333 -29.5 -43 -38.5 -71s-15.5 -56.333 -19.5 -85s-6.33301 -55.5 -7 -80.5s-1 -43.833 -1 -56.5c0 -48 2 -89 6 -123s9 -62.5 15 -85.5s12.5 -41.167 19.5 -54.5s13.833 -23.333 20.5 -30c27.333 -31.333 59.333 -50 96 -56
c18.667 -2.66699 37.167 -4.66699 55.5 -6s36.166 -2 53.499 -2h285v631zM407.004 1290l213.999 0.000976562c2.66699 0 5.5 0.666992 8.5 2s4.5 4 4.5 8c0 2.66699 -0.5 4.5 -1.5 5.5s-5.5 3 -13.5 6s-21.333 7.5 -40 13.5l-81 27c-34 11.333 -58.333 26 -73 44
s-22 42.667 -22 74c0 39.333 10 67 30 83s46.333 24 79 24h262v-101h-213c-3.33301 0 -8 0.333008 -14 1h-1c-5.33301 0 -8 -2.66699 -8 -8c0 -2.66699 2 -5.16699 6 -7.5s11 -5.33301 21 -9s23.833 -8.33398 41.5 -14.001l67.5 -22.5
c36.667 -12.667 64.334 -28.5 83.001 -47.5s28 -46.167 28 -81.5c0 -30 -8.5 -54.5 -25.5 -73.5s-40.833 -28.5 -71.5 -28.5h-281v105z" />
    <glyph glyph-name="afii57413" unicode="&#x625;" horiz-adv-x="403" arabic-form="isolated" 
d="M82 1434h240v-1434h-240v1434zM90 -257h121c4.66699 0 7 2 7 6c0 1.33301 -0.166992 2.33301 -0.5 3s-2.83301 1.83398 -7.5 3.50098s-12.334 4.16699 -23.001 7.5l-46 15c-19.333 6.66699 -33.166 15.167 -41.499 25.5s-12.5 24.166 -12.5 41.499
c0 22.667 5.66699 38.5 17 47.5s26.333 13.5 45 13.5h149v-57h-121c-1.33301 0 -3.66602 0.333008 -6.99902 1h-1c-3.33301 0 -5 -1.66699 -5 -5c0 -1.33301 1.16699 -2.83301 3.5 -4.5s6.33301 -3.5 12 -5.5l23.5 -8l38 -13c21.333 -7.33301 37.166 -16.333 47.499 -27
s15.5 -26 15.5 -46c0 -17.333 -4.83301 -31.333 -14.5 -42s-23.167 -16 -40.5 -16h-159v60z" />
    <glyph glyph-name="afii57414" unicode="&#x626;" horiz-adv-x="1511" arabic-form="isolated" 
d="M331 255c22 -29.333 49 -48.335 81 -57.002s70 -13 114 -13l584 -1c12 0 25.5 1.83301 40.5 5.5s28.167 12.167 39.5 25.5c10.667 10.667 16.667 22.5 18 35.5s2 23.833 2 32.5c0 36 -10.5 65.5 -31.5 88.5s-47.5 42 -79.5 57s-66.833 27.167 -104.5 36.5l-106.5 27
c-58 14.667 -106.667 32.667 -146 54s-70 47 -92 77c-21.333 30 -35.166 61.167 -41.499 93.5s-9.5 62.5 -9.5 90.5s3.16699 58.167 9.5 90.5s20.166 63.5 41.499 93.5c16.667 22.667 35.334 40.334 56.001 53.001s42.167 22 64.5 28s45.333 9.66699 69 11s47.5 2 71.5 2
h498v-184h-462c-13.333 0 -27.166 -0.666992 -41.499 -2s-28.5 -7.33301 -42.5 -18c-14.667 -11.333 -23.334 -23.5 -26.001 -36.5s-4 -26.833 -4 -41.5c0 -15.333 1.66699 -29.833 5 -43.5s13.333 -27.167 30 -40.5c7.33301 -6 17.166 -12.167 29.499 -18.5
s25.166 -12 38.499 -17s26 -9.16699 38 -12.5s21.667 -5.66602 29 -6.99902l233 -66c37.333 -13.333 69.833 -31 97.5 -53s50.834 -47.333 69.501 -76s32.5 -59.5 41.5 -92.5s13.5 -66.5 13.5 -100.5c0 -65.333 -10 -116 -30 -152
c-18.667 -35.333 -38.667 -61.666 -60 -78.999c-14 -10 -28.5 -18 -43.5 -24s-30 -10.5 -45 -13.5s-29.833 -5 -44.5 -6s-28.334 -1.5 -41.001 -1.5l-750 1c-62.667 0 -116.167 5.66699 -160.5 17s-84.833 33 -121.5 65c-22.667 20 -41.167 41.667 -55.5 65
s-25.666 48.166 -33.999 74.499s-14 54.5 -17 84.5s-4.5 61.667 -4.5 95v401h240v-358c0 -48 2.83301 -86.5 8.5 -115.5s16.167 -53.833 31.5 -74.5zM55 1027l213.999 0.000976562c2.66699 0 5.5 0.666992 8.5 2s4.5 4 4.5 8c0 2.66699 -0.5 4.5 -1.5 5.5s-5.5 3 -13.5 6
s-21.333 7.5 -40 13.5l-81 27c-34 11.333 -58.333 26 -73 44s-22 42.667 -22 74c0 39.333 10 67 30 83s46.333 24 79 24h262v-101h-213c-3.33301 0 -8 0.333008 -14 1h-1c-5.33301 0 -8 -2.66699 -8 -8c0 -2.66699 2 -5.16699 6 -7.5s11 -5.33301 21 -9
s23.833 -8.33398 41.5 -14.001l67.5 -22.5c36.667 -12.667 64.334 -28.5 83.001 -47.5s28 -46.167 28 -81.5c0 -30 -8.5 -54.5 -25.5 -73.5s-40.833 -28.5 -71.5 -28.5h-281v105z" />
    <glyph glyph-name="afii57415" unicode="&#x627;" horiz-adv-x="403" arabic-form="isolated" 
d="M82 1434h240v-1434h-240v1434z" />
    <glyph glyph-name="afii57416" unicode="&#x628;" horiz-adv-x="1649" arabic-form="isolated" 
d="M301 526c0 -46 2.00098 -90.002 6.00098 -132.002s16.333 -79.667 37 -113c10 -18 22.167 -33.167 36.5 -45.5s31.166 -22.333 50.499 -30s41.833 -13.167 67.5 -16.5s54.834 -5 87.501 -5h477c32.667 0 61.667 1.66699 87 5s47.833 8.83301 67.5 16.5
s36.667 17.667 51 30s26.5 27.5 36.5 45.5c20.667 34 33 72.167 37 114.5s6.33301 87.5 7 135.5v555h248l-2 -560c0 -36 -0.833008 -70.667 -2.5 -104s-5.66699 -65.666 -12 -96.999s-15.5 -61.666 -27.5 -90.999s-28 -58.333 -48 -87
c-26 -35.333 -53.833 -62.833 -83.5 -82.5s-59.667 -34.334 -90 -44.001s-60.5 -15.5 -90.5 -17.5s-58 -3 -84 -3h-665c-25.333 0 -52.833 1 -82.5 3s-59.834 7.83301 -90.501 17.5s-61.167 24.334 -91.5 44.001s-58.5 47.167 -84.5 82.5c-20 26.667 -36 55.167 -48 85.5
s-21 61.833 -27 94.5s-9.83301 66.167 -11.5 100.5s-2.5 68.833 -2.5 103.5v319h248zM685.001 -357.002v191h239v-191h-239z" />
    <glyph glyph-name="afii57417" unicode="&#x629;" horiz-adv-x="1262" arabic-form="isolated" 
d="M631 1098c32.667 0 68.1689 -0.833984 106.502 -2.50098s77 -6.16699 116 -13.5s77.167 -18.666 114.5 -33.999s71 -37 101 -65c32 -28.667 57.167 -62.334 75.5 -101.001s32.166 -78.167 41.499 -118.5s15.333 -79.5 18 -117.5s4 -71 4 -99
c0 -58 -3.5 -110.167 -10.5 -156.5s-16.667 -87.5 -29 -123.5s-27 -67.5 -44 -94.5s-35.5 -49.833 -55.5 -68.5c-28.667 -27.333 -61.834 -48.666 -99.501 -63.999s-76.5 -26.833 -116.5 -34.5s-79.333 -12.5 -118 -14.5s-73.334 -3 -104.001 -3
c-32.667 0 -68.334 1 -107.001 3s-77.5 6.83301 -116.5 14.5s-77 19.167 -114 34.5s-70.5 36.666 -100.5 63.999c-32.667 30 -58.334 64.167 -77.001 102.5s-32.667 77.5 -42 117.5s-15.166 78.833 -17.499 116.5s-3.5 70.5 -3.5 98.5c0 30 1.33301 64.667 4 104
s8.83398 79.333 18.501 120s23.667 80.334 42 119.001s43.5 72.334 75.5 101.001c30 28 63.5 49.667 100.5 65s75 26.666 114 33.999s77.833 11.833 116.5 13.5s74.334 2.5 107.001 2.5zM301.002 540.999c0 -22.667 0.501953 -46.167 1.50195 -70.5
s3.66699 -48.666 8 -72.999s11.166 -48 20.499 -71s22.666 -44.5 39.999 -64.5c18 -20 37.5 -36 58.5 -48s42.667 -21 65 -27s45.166 -10 68.499 -12s46 -3 68 -3c22.667 0 45.5 1 68.5 3s45.5 6 67.5 12s43.333 15 64 27s40 28 58 48s31.833 41.167 41.5 63.5
s16.834 45.5 21.501 69.5s7.33398 48.333 8.00098 73s1 49 1 73v65c0 18 -1 36.833 -3 56.5s-5.66699 39.334 -11 59.001s-12.5 38.5 -21.5 56.5s-20.5 34.333 -34.5 49c-18 19.333 -37.5 34.666 -58.5 45.999s-42.833 20 -65.5 26s-45.5 9.83301 -68.5 11.5
s-45.5 2.5 -67.5 2.5c-19.333 0 -40.833 -0.833008 -64.5 -2.5s-47.334 -5.5 -71.001 -11.5s-46.5 -14.667 -68.5 -26s-41.333 -26.666 -58 -45.999c-17.333 -19.333 -30.5 -41.833 -39.5 -67.5s-15.667 -51.834 -20 -78.501s-6.83301 -52.334 -7.5 -77.001
s-1 -45.667 -1 -63zM348.004 1305v191h239v-191h-239zM670.004 1305v191h239v-191h-239z" />
    <glyph glyph-name="afii57418" unicode="&#x62a;" horiz-adv-x="1649" arabic-form="isolated" 
d="M301 526c0 -46 2.00098 -90.002 6.00098 -132.002s16.333 -79.667 37 -113c10 -18 22.167 -33.167 36.5 -45.5s31.166 -22.333 50.499 -30s41.833 -13.167 67.5 -16.5s54.834 -5 87.501 -5h477c32.667 0 61.667 1.66699 87 5s47.833 8.83301 67.5 16.5
s36.667 17.667 51 30s26.5 27.5 36.5 45.5c20.667 34 33 72.167 37 114.5s6.33301 87.5 7 135.5v555h248l-2 -560c0 -36 -0.833008 -70.667 -2.5 -104s-5.66699 -65.666 -12 -96.999s-15.5 -61.666 -27.5 -90.999s-28 -58.333 -48 -87
c-26 -35.333 -53.833 -62.833 -83.5 -82.5s-59.667 -34.334 -90 -44.001s-60.5 -15.5 -90.5 -17.5s-58 -3 -84 -3h-665c-25.333 0 -52.833 1 -82.5 3s-59.834 7.83301 -90.501 17.5s-61.167 24.334 -91.5 44.001s-58.5 47.167 -84.5 82.5c-20 26.667 -36 55.167 -48 85.5
s-21 61.833 -27 94.5s-9.83301 66.167 -11.5 100.5s-2.5 68.833 -2.5 103.5v319h248zM604.001 1247v191h239v-191h-239zM926.001 1247v191h239v-191h-239z" />
    <glyph glyph-name="afii57419" unicode="&#x62b;" horiz-adv-x="1649" arabic-form="isolated" 
d="M301 526c0 -46 2.00098 -90.002 6.00098 -132.002s16.333 -79.667 37 -113c10 -18 22.167 -33.167 36.5 -45.5s31.166 -22.333 50.499 -30s41.833 -13.167 67.5 -16.5s54.834 -5 87.501 -5h477c32.667 0 61.667 1.66699 87 5s47.833 8.83301 67.5 16.5
s36.667 17.667 51 30s26.5 27.5 36.5 45.5c20.667 34 33 72.167 37 114.5s6.33301 87.5 7 135.5v555h248l-2 -560c0 -36 -0.833008 -70.667 -2.5 -104s-5.66699 -65.666 -12 -96.999s-15.5 -61.666 -27.5 -90.999s-28 -58.333 -48 -87
c-26 -35.333 -53.833 -62.833 -83.5 -82.5s-59.667 -34.334 -90 -44.001s-60.5 -15.5 -90.5 -17.5s-58 -3 -84 -3h-665c-25.333 0 -52.833 1 -82.5 3s-59.834 7.83301 -90.501 17.5s-61.167 24.334 -91.5 44.001s-58.5 47.167 -84.5 82.5c-20 26.667 -36 55.167 -48 85.5
s-21 61.833 -27 94.5s-9.83301 66.167 -11.5 100.5s-2.5 68.833 -2.5 103.5v319h248zM510.001 1116v191h239v-191h-239zM697.001 1396v191h239v-191h-239zM862.001 1116v191h239v-191h-239z" />
    <glyph glyph-name="afii57420" unicode="&#x62c;" horiz-adv-x="1220" arabic-form="isolated" 
d="M1059 294l92.0029 0.00195312v-184l-584 -1c-24 0 -47.667 -1 -71 -3s-45.5 -5 -66.5 -9s-40.333 -9.16699 -58 -15.5s-32.5 -13.5 -44.5 -21.5c-16 -10.667 -29.167 -22.5 -39.5 -35.5s-17.166 -27.5 -20.499 -43.5c-2 -7.33301 -3 -14.666 -3 -21.999
c0 -10 1.33301 -20 4 -30c4.66699 -19.333 14.667 -40.333 30 -63c7.33301 -8 17 -14.5 29 -19.5s24.833 -9 38.5 -12s27.167 -5 40.5 -6s25 -1.5 35 -1.5h105v-184h-201c-18 0 -36.333 0.5 -55 1.5s-37.334 3.66699 -56.001 8s-36.834 10.666 -54.501 18.999
s-34.834 19.833 -51.501 34.5c-10 10 -20 22 -30 36s-19 30.667 -27 50s-14.5 41.833 -19.5 67.5s-7.5 54.5 -7.5 86.5c0 50 5.33301 90.167 16 120.5s23.667 53.833 39 70.5c24 32.667 52.5 59.167 85.5 79.5s68.167 36.333 105.5 48s76.166 19.667 116.499 24
s80.166 7.16602 119.499 8.49902h49c21.333 0 42 -0.333008 62 -1c35.333 -1.33301 67 -2 95 -2h87v458c0 16 -1.66699 32.833 -5 50.5s-12 34.834 -26 51.501c-16 20.667 -34.667 33.667 -56 39s-41.333 8 -60 8h-535v184h617c46 0 88.833 -7.5 128.5 -22.5
s71.834 -35.5 96.501 -61.5c23.333 -22.667 42.5 -55.334 57.5 -98.001s22.5 -95.334 22.5 -158.001v-451zM689.003 -356.998v184h224v-184h-224z" />
    <glyph glyph-name="afii57421" unicode="&#x62d;" horiz-adv-x="1220" arabic-form="isolated" 
d="M1059 294l92.0029 0.00195312v-184l-584 -1c-24 0 -47.667 -1 -71 -3s-45.5 -5 -66.5 -9s-40.333 -9.16699 -58 -15.5s-32.5 -13.5 -44.5 -21.5c-16 -10.667 -29.167 -22.5 -39.5 -35.5s-17.166 -27.5 -20.499 -43.5c-2 -7.33301 -3 -14.666 -3 -21.999
c0 -10 1.33301 -20 4 -30c4.66699 -19.333 14.667 -40.333 30 -63c7.33301 -8 17 -14.5 29 -19.5s24.833 -9 38.5 -12s27.167 -5 40.5 -6s25 -1.5 35 -1.5h741v-184h-837c-18 0 -36.333 0.5 -55 1.5s-37.334 3.66699 -56.001 8s-36.834 10.666 -54.501 18.999
s-34.834 19.833 -51.501 34.5c-10 10 -20 22 -30 36s-19 30.667 -27 50s-14.5 41.833 -19.5 67.5s-7.5 54.5 -7.5 86.5c0 50 5.33301 90.167 16 120.5s23.667 53.833 39 70.5c24 32.667 52.5 59.167 85.5 79.5s68.167 36.333 105.5 48s76.166 19.667 116.499 24
s80.166 7.16602 119.499 8.49902h49c21.333 0 42 -0.333008 62 -1c35.333 -1.33301 67 -2 95 -2h87v458c0 16 -1.66699 32.833 -5 50.5s-12 34.834 -26 51.501c-16 20.667 -34.667 33.667 -56 39s-41.333 8 -60 8h-535v184h617c46 0 88.833 -7.5 128.5 -22.5
s71.834 -35.5 96.501 -61.5c23.333 -22.667 42.5 -55.334 57.5 -98.001s22.5 -95.334 22.5 -158.001v-451z" />
    <glyph glyph-name="afii57422" unicode="&#x62e;" horiz-adv-x="1220" arabic-form="isolated" 
d="M1059 294l92.0029 0.00195312v-184l-584 -1c-24 0 -47.667 -1 -71 -3s-45.5 -5 -66.5 -9s-40.333 -9.16699 -58 -15.5s-32.5 -13.5 -44.5 -21.5c-16 -10.667 -29.167 -22.5 -39.5 -35.5s-17.166 -27.5 -20.499 -43.5c-2 -7.33301 -3 -14.666 -3 -21.999
c0 -10 1.33301 -20 4 -30c4.66699 -19.333 14.667 -40.333 30 -63c7.33301 -8 17 -14.5 29 -19.5s24.833 -9 38.5 -12s27.167 -5 40.5 -6s25 -1.5 35 -1.5h741v-184h-837c-18 0 -36.333 0.5 -55 1.5s-37.334 3.66699 -56.001 8s-36.834 10.666 -54.501 18.999
s-34.834 19.833 -51.501 34.5c-10 10 -20 22 -30 36s-19 30.667 -27 50s-14.5 41.833 -19.5 67.5s-7.5 54.5 -7.5 86.5c0 50 5.33301 90.167 16 120.5s23.667 53.833 39 70.5c24 32.667 52.5 59.167 85.5 79.5s68.167 36.333 105.5 48s76.166 19.667 116.499 24
s80.166 7.16602 119.499 8.49902h49c21.333 0 42 -0.333008 62 -1c35.333 -1.33301 67 -2 95 -2h87v458c0 16 -1.66699 32.833 -5 50.5s-12 34.834 -26 51.501c-16 20.667 -34.667 33.667 -56 39s-41.333 8 -60 8h-535v184h617c46 0 88.833 -7.5 128.5 -22.5
s71.834 -35.5 96.501 -61.5c23.333 -22.667 42.5 -55.334 57.5 -98.001s22.5 -95.334 22.5 -158.001v-451zM377.003 1243v191h239v-191h-239z" />
    <glyph glyph-name="afii57423" unicode="&#x62f;" horiz-adv-x="1051" arabic-form="isolated" 
d="M53 0l-0.00390625 183.999h389c24.667 0 50.167 1.16699 76.5 3.5s51.666 7.5 75.999 15.5s46.833 19.667 67.5 35s38 35.666 52 60.999c7.33301 14 13.333 30.667 18 50s8.16699 39.333 10.5 60s4 41 5 61s1.5 38 1.5 54c0 8.66699 -0.166992 21.5 -0.5 38.5
s-1.16602 35.333 -2.49902 55s-3.16602 39.5 -5.49902 59.5s-5.5 37.333 -9.5 52c-6.66699 22.667 -16.834 44.5 -30.501 65.5s-31.167 39.333 -52.5 55s-47.166 28.167 -77.499 37.5s-65.833 14 -106.5 14h-387v184h465c48.667 0 91.334 -4 128.001 -12
s68.334 -18 95.001 -30s48.834 -24.667 66.501 -38s31.834 -25.333 42.501 -36c30 -31.333 53.333 -65.833 70 -103.5s29 -76 37 -115s12.667 -77.667 14 -116s2 -73.833 2 -106.5c0 -38.667 -0.833008 -76 -2.5 -112s-5.83398 -70.5 -12.501 -103.5
s-16.667 -64.5 -30 -94.5s-31.333 -58.333 -54 -85c-25.333 -29.333 -52.333 -52.666 -81 -69.999s-57.5 -30.666 -86.5 -39.999s-57 -15.5 -84 -18.5s-50.833 -4.5 -71.5 -4.5h-522z" />
    <glyph glyph-name="afii57424" unicode="&#x630;" horiz-adv-x="1051" arabic-form="isolated" 
d="M53 0l-0.00390625 183.999h389c24.667 0 50.167 1.16699 76.5 3.5s51.666 7.5 75.999 15.5s46.833 19.667 67.5 35s38 35.666 52 60.999c7.33301 14 13.333 30.667 18 50s8.16699 39.333 10.5 60s4 41 5 61s1.5 38 1.5 54c0 8.66699 -0.166992 21.5 -0.5 38.5
s-1.16602 35.333 -2.49902 55s-3.16602 39.5 -5.49902 59.5s-5.5 37.333 -9.5 52c-6.66699 22.667 -16.834 44.5 -30.501 65.5s-31.167 39.333 -52.5 55s-47.166 28.167 -77.499 37.5s-65.833 14 -106.5 14h-387v184h465c48.667 0 91.334 -4 128.001 -12
s68.334 -18 95.001 -30s48.834 -24.667 66.501 -38s31.834 -25.333 42.501 -36c30 -31.333 53.333 -65.833 70 -103.5s29 -76 37 -115s12.667 -77.667 14 -116s2 -73.833 2 -106.5c0 -38.667 -0.833008 -76 -2.5 -112s-5.83398 -70.5 -12.501 -103.5
s-16.667 -64.5 -30 -94.5s-31.333 -58.333 -54 -85c-25.333 -29.333 -52.333 -52.666 -81 -69.999s-57.5 -30.666 -86.5 -39.999s-57 -15.5 -84 -18.5s-50.833 -4.5 -71.5 -4.5h-522zM282.996 1243v191h239v-191h-239z" />
    <glyph glyph-name="afii57425" unicode="&#x631;" horiz-adv-x="670" arabic-form="isolated" 
d="M43 -180h37.002c17.333 0 33.333 0.333008 48 1c24 0.666992 45.167 2.83398 63.5 6.50098s34.666 8.66699 48.999 15s28.5 14.5 42.5 24.5s26.167 21 36.5 33s19 26.167 26 42.5s12.333 35.333 16 57s5.5 47.167 5.5 76.5v1009h239v-1058c0 -48 -5 -89.5 -15 -124.5
s-22.333 -64.833 -37 -89.5s-29.834 -44.834 -45.501 -60.501s-29.5 -28.167 -41.5 -37.5c-44 -31.333 -100 -53.333 -168 -66c-52 -10 -114 -15 -186 -15c-22.667 0 -46 0.333008 -70 1v185z" />
    <glyph glyph-name="afii57426" unicode="&#x632;" horiz-adv-x="670" arabic-form="isolated" 
d="M43 -180h37.002c17.333 0 33.333 0.333008 48 1c24 0.666992 45.167 2.83398 63.5 6.50098s34.666 8.66699 48.999 15s28.5 14.5 42.5 24.5s26.167 21 36.5 33s19 26.167 26 42.5s12.333 35.333 16 57s5.5 47.167 5.5 76.5v1009h239v-1058c0 -48 -5 -89.5 -15 -124.5
s-22.333 -64.833 -37 -89.5s-29.834 -44.834 -45.501 -60.501s-29.5 -28.167 -41.5 -37.5c-44 -31.333 -100 -53.333 -168 -66c-52 -10 -114 -15 -186 -15c-22.667 0 -46 0.333008 -70 1v185zM367.002 1243v191h239v-191h-239z" />
    <glyph glyph-name="afii57427" unicode="&#x633;" horiz-adv-x="2588" arabic-form="isolated" 
d="M919 -28c15.333 20.667 25.833 45.501 31.5 74.501s8.5 67.5 8.5 115.5v924h240v-903h414v901h240v-901h223c10.667 0 22.334 0.5 35.001 1.5s25.5 3.16699 38.5 6.5s25.667 8.33301 38 15s23.5 16 33.5 28c10 10.667 18 22.5 24 35.5s10.667 26.333 14 40
s5.5 27.167 6.5 40.5s1.5 26 1.5 38v696h239v-733c0 -54.667 -8.33301 -105.167 -25 -151.5s-41 -84.5 -73 -114.5c-20 -18 -42 -32.667 -66 -44s-48.167 -20 -72.5 -26s-48.5 -10.167 -72.5 -12.5s-46 -3.5 -66 -3.5h-940c-6.66699 -39.333 -17.834 -75.5 -33.501 -108.5
s-38.834 -63.167 -69.501 -90.5c-36.667 -32 -77.167 -53.667 -121.5 -65s-97.833 -17 -160.5 -17h-363c-62.667 0 -116.167 5.66699 -160.5 17s-84.833 33 -121.5 65c-22.667 20 -41.167 41.667 -55.5 65s-25.666 48.166 -33.999 74.499s-14 54.5 -17 84.5
s-4.5 61.667 -4.5 95v684h240v-641c0 -48 2.83301 -86.5 8.5 -115.5s16.167 -53.833 31.5 -74.5c22 -29.333 49 -48.333 81 -57s70 -13 114 -13h199c44 0 82 4.33301 114 13s59 27.667 81 57z" />
    <glyph glyph-name="afii57428" unicode="&#x634;" horiz-adv-x="2588" arabic-form="isolated" 
d="M919 -28c15.333 20.667 25.833 45.501 31.5 74.501s8.5 67.5 8.5 115.5v924h240v-903h414v901h240v-901h223c10.667 0 22.334 0.5 35.001 1.5s25.5 3.16699 38.5 6.5s25.667 8.33301 38 15s23.5 16 33.5 28c10 10.667 18 22.5 24 35.5s10.667 26.333 14 40
s5.5 27.167 6.5 40.5s1.5 26 1.5 38v696h239v-733c0 -54.667 -8.33301 -105.167 -25 -151.5s-41 -84.5 -73 -114.5c-20 -18 -42 -32.667 -66 -44s-48.167 -20 -72.5 -26s-48.5 -10.167 -72.5 -12.5s-46 -3.5 -66 -3.5h-940c-6.66699 -39.333 -17.834 -75.5 -33.501 -108.5
s-38.834 -63.167 -69.501 -90.5c-36.667 -32 -77.167 -53.667 -121.5 -65s-97.833 -17 -160.5 -17h-363c-62.667 0 -116.167 5.66699 -160.5 17s-84.833 33 -121.5 65c-22.667 20 -41.167 41.667 -55.5 65s-25.666 48.166 -33.999 74.499s-14 54.5 -17 84.5
s-4.5 61.667 -4.5 95v684h240v-641c0 -48 2.83301 -86.5 8.5 -115.5s16.167 -53.833 31.5 -74.5c22 -29.333 49 -48.333 81 -57s70 -13 114 -13h199c44 0 82 4.33301 114 13s59 27.667 81 57zM1284 1396v191h239v-191h-239zM1606 1396v191h239v-191h-239zM1931 1396v191h239
v-191h-239z" />
    <glyph glyph-name="afii57429" unicode="&#x635;" horiz-adv-x="2560" arabic-form="isolated" 
d="M929 -28c15.333 20.667 25.832 45.5059 31.499 74.5059s8.5 67.5 8.5 115.5l-3 924h240l-1 -144c17.333 24 38.166 44.167 62.499 60.5s50 29.833 77 40.5s54.333 18.834 82 24.501s53.5 9.83398 77.5 12.501s45.5 4.16699 64.5 4.5s33.167 0.5 42.5 0.5h467
c29.333 0 60 -2 92 -6s63.5 -12 94.5 -24s61 -29.167 90 -51.5s55.167 -51.833 78.5 -88.5c18.667 -30.667 33.167 -62.167 43.5 -94.5s17.833 -64.833 22.5 -97.5s7.33398 -65.334 8.00098 -98.001s1 -64.334 1 -95.001c0 -36.667 -0.833008 -71.834 -2.5 -105.501
s-5.5 -66.334 -11.5 -98.001s-15 -62.334 -27 -92.001s-28.333 -58.834 -49 -87.501c-26 -35.333 -53.833 -62.833 -83.5 -82.5s-59.667 -34.334 -90 -44.001s-60.5 -15.5 -90.5 -17.5s-58 -3 -84 -3h-869c-6 -40 -16.833 -76.333 -32.5 -109s-39.167 -63 -70.5 -91
c-36.667 -32 -77.167 -53.667 -121.5 -65s-97.833 -17 -160.5 -17h-363c-62.667 0 -116.167 5.66699 -160.5 17s-84.833 33 -121.5 65c-22.667 20 -41.167 41.667 -55.5 65s-25.666 48.166 -33.999 74.499s-14 54.5 -17 84.5s-4.5 61.667 -4.5 95v684h240v-641
c0 -48 2.83301 -86.5 8.5 -115.5s16.167 -53.833 31.5 -74.5c22 -29.333 49 -48.333 81 -57s70 -13 114 -13h199c44 0 82 4.33301 114 13s59 27.667 81 57zM1538 901.006c-95.333 -3.33301 -171.499 -32.668 -228.499 -88.001s-92.167 -134.333 -105.5 -237l2 -392h770
c32.667 0 61.667 1.66699 87 5s47.833 8.83301 67.5 16.5s36.667 17.667 51 30s26.5 27.5 36.5 45.5c20.667 34 33 72.167 37 114.5s6 86.5 6 132.5c0 69.333 -3.5 127.333 -10.5 174s-20.833 84.334 -41.5 113.001c-14.667 20 -31.667 35.667 -51 47s-39.333 20 -60 26
s-41.334 9.66699 -62 11c-20.667 1.33301 -39.334 2 -56.001 2h-442z" />
    <glyph glyph-name="afii57430" unicode="&#x636;" horiz-adv-x="2560" arabic-form="isolated" 
d="M929 -28c15.333 20.667 25.832 45.5059 31.499 74.5059s8.5 67.5 8.5 115.5l-3 924h240l-1 -144c17.333 24 38.166 44.167 62.499 60.5s50 29.833 77 40.5s54.333 18.834 82 24.501s53.5 9.83398 77.5 12.501s45.5 4.16699 64.5 4.5s33.167 0.5 42.5 0.5h467
c29.333 0 60 -2 92 -6s63.5 -12 94.5 -24s61 -29.167 90 -51.5s55.167 -51.833 78.5 -88.5c18.667 -30.667 33.167 -62.167 43.5 -94.5s17.833 -64.833 22.5 -97.5s7.33398 -65.334 8.00098 -98.001s1 -64.334 1 -95.001c0 -36.667 -0.833008 -71.834 -2.5 -105.501
s-5.5 -66.334 -11.5 -98.001s-15 -62.334 -27 -92.001s-28.333 -58.834 -49 -87.501c-26 -35.333 -53.833 -62.833 -83.5 -82.5s-59.667 -34.334 -90 -44.001s-60.5 -15.5 -90.5 -17.5s-58 -3 -84 -3h-869c-6 -40 -16.833 -76.333 -32.5 -109s-39.167 -63 -70.5 -91
c-36.667 -32 -77.167 -53.667 -121.5 -65s-97.833 -17 -160.5 -17h-363c-62.667 0 -116.167 5.66699 -160.5 17s-84.833 33 -121.5 65c-22.667 20 -41.167 41.667 -55.5 65s-25.666 48.166 -33.999 74.499s-14 54.5 -17 84.5s-4.5 61.667 -4.5 95v684h240v-641
c0 -48 2.83301 -86.5 8.5 -115.5s16.167 -53.833 31.5 -74.5c22 -29.333 49 -48.333 81 -57s70 -13 114 -13h199c44 0 82 4.33301 114 13s59 27.667 81 57zM1538 901.006c-95.333 -3.33301 -171.499 -32.668 -228.499 -88.001s-92.167 -134.333 -105.5 -237l2 -392h770
c32.667 0 61.667 1.66699 87 5s47.833 8.83301 67.5 16.5s36.667 17.667 51 30s26.5 27.5 36.5 45.5c20.667 34 33 72.167 37 114.5s6 86.5 6 132.5c0 69.333 -3.5 127.333 -10.5 174s-20.833 84.334 -41.5 113.001c-14.667 20 -31.667 35.667 -51 47s-39.333 20 -60 26
s-41.334 9.66699 -62 11c-20.667 1.33301 -39.334 2 -56.001 2h-442zM1482 1243v191h239v-191h-239z" />
    <glyph glyph-name="afii57431" unicode="&#x637;" horiz-adv-x="1865" arabic-form="isolated" 
d="M510 942c17.333 24 38.166 44.1719 62.499 60.5049s50 29.833 77 40.5s54.333 18.834 82 24.501s53.5 9.83398 77.5 12.501s45.5 4.16699 64.5 4.5s33.167 0.5 42.5 0.5h467c29.333 0 60 -2 92 -6s63.5 -12 94.5 -24s61 -29.167 90 -51.5s55.167 -51.833 78.5 -88.5
c18.667 -30.667 33.167 -62.167 43.5 -94.5s17.833 -64.833 22.5 -97.5s7.33398 -65.334 8.00098 -98.001s1 -64.334 1 -95.001c0 -36.667 -0.833008 -71.834 -2.5 -105.501s-5.5 -66.334 -11.5 -98.001s-15 -62.334 -27 -92.001s-28.333 -58.834 -49 -87.501
c-26 -35.333 -53.833 -62.833 -83.5 -82.5s-59.667 -34.334 -90 -44.001s-60.5 -15.5 -90.5 -17.5s-58 -3 -84 -3h-1256v184h152v1250h240zM843 901.005c-95.333 -3.33301 -171.498 -32.668 -228.498 -88.001s-92.167 -134.333 -105.5 -237l-1 -392h773
c32.667 0 61.667 1.66699 87 5s47.833 8.83301 67.5 16.5s36.667 17.667 51 30s26.5 27.5 36.5 45.5c20.667 34 33 72.167 37 114.5s6 86.5 6 132.5c0 69.333 -3.5 127.333 -10.5 174s-20.833 84.334 -41.5 113.001c-14.667 20 -31.667 35.667 -51 47s-39.333 20 -60 26
s-41.334 9.66699 -62.001 11s-39.334 2 -56.001 2h-442z" />
    <glyph glyph-name="afii57432" unicode="&#x638;" horiz-adv-x="1865" arabic-form="isolated" 
d="M510 942c17.333 24 38.166 44.1719 62.499 60.5049s50 29.833 77 40.5s54.333 18.834 82 24.501s53.5 9.83398 77.5 12.501s45.5 4.16699 64.5 4.5s33.167 0.5 42.5 0.5h467c29.333 0 60 -2 92 -6s63.5 -12 94.5 -24s61 -29.167 90 -51.5s55.167 -51.833 78.5 -88.5
c18.667 -30.667 33.167 -62.167 43.5 -94.5s17.833 -64.833 22.5 -97.5s7.33398 -65.334 8.00098 -98.001s1 -64.334 1 -95.001c0 -36.667 -0.833008 -71.834 -2.5 -105.501s-5.5 -66.334 -11.5 -98.001s-15 -62.334 -27 -92.001s-28.333 -58.834 -49 -87.501
c-26 -35.333 -53.833 -62.833 -83.5 -82.5s-59.667 -34.334 -90 -44.001s-60.5 -15.5 -90.5 -17.5s-58 -3 -84 -3h-1256v184h152v1250h240zM843 901.005c-95.333 -3.33301 -171.498 -32.668 -228.498 -88.001s-92.167 -134.333 -105.5 -237l-1 -392h773
c32.667 0 61.667 1.66699 87 5s47.833 8.83301 67.5 16.5s36.667 17.667 51 30s26.5 27.5 36.5 45.5c20.667 34 33 72.167 37 114.5s6 86.5 6 132.5c0 69.333 -3.5 127.333 -10.5 174s-20.833 84.334 -41.5 113.001c-14.667 20 -31.667 35.667 -51 47s-39.333 20 -60 26
s-41.334 9.66699 -62.001 11s-39.334 2 -56.001 2h-442zM842.002 1243v191h239v-191h-239z" />
    <glyph glyph-name="afii57433" unicode="&#x639;" horiz-adv-x="1220" arabic-form="isolated" 
d="M345 -357c-18 0 -36.3271 0.501953 -54.9941 1.50195s-37.334 3.66699 -56.001 8s-36.834 10.666 -54.501 18.999s-34.834 19.833 -51.501 34.5c-10 10 -20 22 -30 36s-19 30.667 -27 50s-14.5 41.833 -19.5 67.5s-7.5 54.5 -7.5 86.5c0 50 5.33301 90.167 16 120.5
s23.667 53.833 39 70.5c14 20 30.167 37.333 48.5 52s37.666 27.5 57.999 38.5s41.166 20.167 62.499 27.5s41.666 13.666 60.999 18.999c-18.667 23.333 -35.334 45.666 -50.001 66.999s-27.167 43.5 -37.5 66.5s-18.166 48.333 -23.499 76s-8 59.5 -8 95.5
c0 32.667 0.5 65.5 1.5 98.5s5.33301 65.833 13 98.5s19.667 65.167 36 97.5s39.5 64.166 69.5 95.499c10.667 10.667 24.834 22.667 42.501 36s39.834 26 66.501 38s58.334 22 95.001 30s79.334 12 128.001 12h465v-184h-387c-40.667 0 -76.167 -4.66699 -106.5 -14
s-56.166 -21.833 -77.499 -37.5s-38.833 -34 -52.5 -55s-23.834 -42.833 -30.501 -65.5c-8 -30 -12.5 -58.833 -13.5 -86.5s-1.5 -50.167 -1.5 -67.5c0 -16 0.333008 -30.167 1 -42.5s2 -24.166 4 -35.499s5.16699 -22.833 9.5 -34.5s10.166 -24.5 17.499 -38.5
c12.667 -23.333 28 -42.833 46 -58.5s37.667 -28.667 59 -39s43.666 -18 66.999 -23s46.666 -8.16699 69.999 -9.5h419v-184l-584 -1c-20 -0.666992 -42.167 -1.5 -66.5 -2.5s-47.666 -2.5 -69.999 -4.5s-42 -4.66699 -59 -8s-28.5 -7 -34.5 -11
c-20.667 -15.333 -33.334 -32.333 -38.001 -51s-7 -37.667 -7 -57c0 -32 3.83301 -57.167 11.5 -75.5s16.167 -32.166 25.5 -41.499c15.333 -15.333 32.666 -24.333 51.999 -27s39.333 -4 60 -4h741v-184h-837z" />
    <glyph glyph-name="afii57434" unicode="&#x63a;" horiz-adv-x="1220" arabic-form="isolated" 
d="M345 -357c-18 0 -36.3271 0.501953 -54.9941 1.50195s-37.334 3.66699 -56.001 8s-36.834 10.666 -54.501 18.999s-34.834 19.833 -51.501 34.5c-10 10 -20 22 -30 36s-19 30.667 -27 50s-14.5 41.833 -19.5 67.5s-7.5 54.5 -7.5 86.5c0 50 5.33301 90.167 16 120.5
s23.667 53.833 39 70.5c14 20 30.167 37.333 48.5 52s37.666 27.5 57.999 38.5s41.166 20.167 62.499 27.5s41.666 13.666 60.999 18.999c-18.667 23.333 -35.334 45.666 -50.001 66.999s-27.167 43.5 -37.5 66.5s-18.166 48.333 -23.499 76s-8 59.5 -8 95.5
c0 32.667 0.5 65.5 1.5 98.5s5.33301 65.833 13 98.5s19.667 65.167 36 97.5s39.5 64.166 69.5 95.499c10.667 10.667 24.834 22.667 42.501 36s39.834 26 66.501 38s58.334 22 95.001 30s79.334 12 128.001 12h465v-184h-387c-40.667 0 -76.167 -4.66699 -106.5 -14
s-56.166 -21.833 -77.499 -37.5s-38.833 -34 -52.5 -55s-23.834 -42.833 -30.501 -65.5c-8 -30 -12.5 -58.833 -13.5 -86.5s-1.5 -50.167 -1.5 -67.5c0 -16 0.333008 -30.167 1 -42.5s2 -24.166 4 -35.499s5.16699 -22.833 9.5 -34.5s10.166 -24.5 17.499 -38.5
c12.667 -23.333 28 -42.833 46 -58.5s37.667 -28.667 59 -39s43.666 -18 66.999 -23s46.666 -8.16699 69.999 -9.5h419v-184l-584 -1c-20 -0.666992 -42.167 -1.5 -66.5 -2.5s-47.666 -2.5 -69.999 -4.5s-42 -4.66699 -59 -8s-28.5 -7 -34.5 -11
c-20.667 -15.333 -33.334 -32.333 -38.001 -51s-7 -37.667 -7 -57c0 -32 3.83301 -57.167 11.5 -75.5s16.167 -32.166 25.5 -41.499c15.333 -15.333 32.666 -24.333 51.999 -27s39.333 -4 60 -4h741v-184h-837zM541.006 1243v191h239v-191h-239z" />
    <glyph glyph-name="afii57441" unicode="&#x641;" horiz-adv-x="1746" arabic-form="isolated" 
d="M286 526c0 -46 2.00195 -90.0029 6.00195 -132.003s16.333 -79.667 37 -113c10 -18 22.167 -33.167 36.5 -45.5s31.166 -22.333 50.499 -30s41.833 -13.167 67.5 -16.5s54.834 -5 87.501 -5h141c-39.333 88 -59 213 -59 375c0 85.333 7 161.666 21 228.999
c15.333 68 46.666 127.667 93.999 179c25.333 28 51.833 50 79.5 66s55.834 27.833 84.501 35.5s57.334 12.334 86.001 14.001s56.667 2.5 84 2.5h350c32 0 62.833 -2 92.5 -6s57.5 -16.333 83.5 -37c28 -24 45.333 -50 52 -78c8 -29.333 12 -55.666 12 -78.999v-514
c0 -37.333 -2.83301 -70.666 -8.5 -99.999s-13.334 -55.333 -23.001 -78s-21 -42.5 -34 -59.5s-26.5 -31.833 -40.5 -44.5c-22 -20 -44.833 -35.833 -68.5 -47.5s-48.167 -20.5 -73.5 -26.5s-51.333 -9.83301 -78 -11.5s-54.334 -2.5 -83.001 -2.5l-633 -1h-173
c-25.333 0 -52.833 1 -82.5 3s-59.834 7.83301 -90.501 17.5s-61.167 24.334 -91.5 44.001s-58.5 47.167 -84.5 82.5c-20 26.667 -36 55.167 -48 85.5s-21 61.833 -27 94.5s-9.83301 66.167 -11.5 100.5s-2.5 68.833 -2.5 103.5v319h248zM1058 191.997
c18.667 -2.66699 37.1699 -4.66797 55.5029 -6.00098s36.166 -2 53.499 -2l68 1c44.667 0 80.334 5 107.001 15s48.667 26.667 66 50c15.333 20.667 26.166 43.834 32.499 69.501s10.166 52.5 11.499 80.5v415c0 15.333 -1.66699 28.333 -5 39s-12 21 -26 31
c-10.667 6.66699 -21.167 11 -31.5 13s-20.833 3 -31.5 3h-205c-40 0 -76.333 -5.83301 -109 -17.5s-58.334 -28.167 -77.001 -49.5c-16.667 -19.333 -29.5 -43 -38.5 -71s-15.5 -56.333 -19.5 -85s-6.33301 -55.5 -7 -80.5s-1 -43.833 -1 -56.5c0 -48 2 -89 6 -123
s9 -62.5 15 -85.5s12.5 -41.167 19.5 -54.5s13.833 -23.333 20.5 -30c27.333 -31.333 59.333 -50 96 -56zM1080 1243v191h239v-191h-239z" />
    <glyph glyph-name="afii57442" unicode="&#x642;" horiz-adv-x="1488" arabic-form="isolated" 
d="M555 -358c-74 0 -139.831 10.502 -197.498 31.502s-107.167 48.667 -148.5 83s-74.5 73.166 -99.5 116.499s-41.833 87.333 -50.5 132l179 89c3.33301 -24.667 13 -52.5 29 -83.5s38.667 -60.167 68 -87.5s66 -50.333 110 -69s96 -28 156 -28h297
c13.333 0 28.166 0.5 44.499 1.5s34.166 2.83301 53.499 5.5c38.667 4.66699 72.667 18.667 102 42c35.333 30.667 56.666 72.334 63.999 125.001h-385c-27.333 0 -56 1.16699 -86 3.5s-59.5 8.16602 -88.5 17.499s-56.667 23.166 -83 41.499s-49.833 43.833 -70.5 76.5
c-56 86.667 -84 226.667 -84 420c0 85.333 7 161.666 21 228.999c15.333 68 46.666 127.667 93.999 179c25.333 28 51.833 50 79.5 66s55.834 27.833 84.501 35.5s57.334 12.334 86.001 14.001s56.667 2.5 84 2.5h350c32 0 62.833 -2 92.5 -6s57.5 -16.333 83.5 -37
c28 -24 45.333 -50 52 -78c8 -29.333 12 -55.666 12 -78.999v-762c0 -70 -5.83301 -135 -17.5 -195s-35.167 -111.667 -70.5 -155c-25.333 -30 -54.833 -53.667 -88.5 -71s-67.667 -30.333 -102 -39s-66.833 -14.334 -97.5 -17.001s-55.667 -4 -75 -4h-398zM1164 815.002
c0 15.333 -1.66504 28.333 -4.99805 39s-12 21 -26 31c-10.667 6.66699 -21.167 11 -31.5 13s-20.833 3 -31.5 3h-205c-40 0 -76.333 -5.83301 -109 -17.5s-58.334 -28.167 -77.001 -49.5c-16.667 -19.333 -29.5 -43 -38.5 -71s-15.5 -56.333 -19.5 -85
s-6.33301 -55.5 -7 -80.5s-1 -43.833 -1 -56.5c0 -48 2 -89 6 -123s9 -62.5 15 -85.5s12.5 -41.167 19.5 -54.5s13.833 -23.333 20.5 -30c27.333 -31.333 59.333 -50 96 -56c18.667 -2.66699 37.167 -4.66699 55.5 -6s36.166 -2 53.499 -2h285v631zM604.004 1247v191h239
v-191h-239zM926.004 1247v191h239v-191h-239z" />
    <glyph glyph-name="afii57443" unicode="&#x643;" horiz-adv-x="1649" arabic-form="isolated" 
d="M301 526c0 -46 2 -90.001 6 -132.001s16.333 -79.667 37 -113c10 -18 22.167 -33.167 36.5 -45.5s31.166 -22.333 50.499 -30s41.833 -13.167 67.5 -16.5s54.834 -5 87.501 -5h477c32.667 0 61.834 1.66699 87.501 5s48.167 8.83301 67.5 16.5s36 17.667 50 30
s26.333 27.5 37 45.5c20.667 34 33 72.167 37 114.5s6.33301 87.5 7 135.5v902h248l-2 -907c0 -36 -0.833008 -70.667 -2.5 -104s-5.66699 -65.666 -12 -96.999s-15.5 -61.833 -27.5 -91.5s-28 -58.5 -48 -86.5c-26 -35.333 -53.833 -62.833 -83.5 -82.5
s-59.667 -34.334 -90 -44.001s-60.5 -15.5 -90.5 -17.5s-58 -3 -84 -3h-665c-25.333 0 -52.833 1 -82.5 3s-59.834 7.83301 -90.501 17.5s-61.167 24.334 -91.5 44.001s-58.5 47.167 -84.5 82.5c-20 26.667 -36 55.167 -48 85.5s-21 61.833 -27 94.5
s-9.83301 66.167 -11.5 100.5s-2.5 68.833 -2.5 103.5v319h248zM563 697.999h289c3.33301 0 7 1 11 3s6 5.66699 6 11c0 3.33301 -0.5 5.83301 -1.5 7.5s-7 4.33398 -18 8.00098l-54 18l-109.5 36.5c-46 15.333 -79 35.166 -99 59.499s-30 57.5 -30 99.5
c0 52.667 13.5 90 40.5 112s62.833 33 107.5 33h354v-136h-288c-2 0 -4.66699 0.333008 -8 1h-11c-3.33301 -0.666992 -6.33301 -1.66699 -9 -3s-4 -4 -4 -8c0 -3.33301 2.66699 -6.66602 8 -9.99902s14.833 -7.5 28.5 -12.5s32.5 -11.333 56.5 -19l92 -30.5
c24.667 -8 46.167 -17.167 64.5 -27.5s33.833 -22.333 46.5 -36s22.167 -29.5 28.5 -47.5s9.5 -39 9.5 -63c0 -40.667 -11.333 -73.834 -34 -99.501s-55 -38.5 -97 -38.5h-379v142z" />
    <glyph glyph-name="afii57444" unicode="&#x644;" horiz-adv-x="1265" arabic-form="isolated" 
d="M919 -28c15.333 20.667 25.8311 45.5 31.498 74.5s8.5 67.5 8.5 115.5v1272h240v-1315c0 -33.333 -1.5 -65 -4.5 -95s-8.66699 -58.167 -17 -84.5s-19.666 -51.166 -33.999 -74.499s-32.833 -45 -55.5 -65c-36.667 -32 -77.167 -53.667 -121.5 -65
s-97.833 -17 -160.5 -17h-363c-62.667 0 -116.167 5.66699 -160.5 17s-84.833 33 -121.5 65c-22.667 20 -41.167 41.667 -55.5 65s-25.666 48.166 -33.999 74.499s-14 54.5 -17 84.5s-4.5 61.667 -4.5 95v684h240v-641c0 -48 2.83301 -86.5 8.5 -115.5
s16.167 -53.833 31.5 -74.5c22 -29.333 49 -48.333 81 -57s70 -13 114 -13h199c44 0 82 4.33301 114 13s59 27.667 81 57z" />
    <glyph glyph-name="afii57445" unicode="&#x645;" horiz-adv-x="1565" arabic-form="isolated" 
d="M45 -225c0 61.333 7.33398 119.002 22.001 173.002c14 56 44.333 103.333 91 142c18 16.667 37.667 30.667 59 42s43 20.5 65 27.5s44 12.167 66 15.5s43 5.66602 63 6.99902h10c4 0 7.66699 0.333008 11 1c-17.333 29.333 -31.166 60.166 -41.499 92.499
s-18 64.333 -23 96s-8.16699 62 -9.5 91s-2 54.5 -2 76.5c0 30 1.33301 64.667 4 104s8.83398 79.166 18.501 119.499s23.667 79.833 42 118.5s43.5 72.667 75.5 102c30 27.333 63.5 48.666 100.5 63.999s75 26.833 114 34.5s77.667 12.334 116 14.001
s74.166 2.5 107.499 2.5c32.667 0 68.167 -0.833008 106.5 -2.5s77 -6.33398 116 -14.001s77.167 -19.167 114.5 -34.5s71 -36.666 101 -63.999c31.333 -29.333 56.166 -63.166 74.499 -101.499s32.333 -77.5 42 -117.5s15.834 -79 18.501 -117s4 -71.333 4 -100
c0 -116.667 -13.333 -210 -40 -280c-26.667 -69.333 -59.667 -123.666 -99 -162.999c-28.667 -27.333 -61.834 -48.833 -99.501 -64.5s-76.5 -27.334 -116.5 -35.001s-79.333 -12.334 -118 -14.001s-73.334 -2.5 -104.001 -2.5c-42 0 -88.5 0.833008 -139.5 2.5
s-100.833 4.83398 -149.5 9.50098h-100c-31.333 0 -66.333 -4 -105 -12c-38 -8 -71.333 -29.333 -100 -64c-23.333 -28 -38.333 -60 -45 -96s-10 -75 -10 -117v-241h-240v305zM604.001 541.002c0 -45.333 2.99902 -93.3311 8.99902 -143.998s26.333 -95.667 61 -135
s75.667 -64.333 123 -75c46.667 -10 92.334 -15 137.001 -15s90 5 136 15c46.667 11.333 87.334 36.333 122.001 75c35.333 40.667 56 85 62 133c3.33301 24.667 5.83301 49.167 7.5 73.5s2.5 48.5 2.5 72.5v65c0 17.333 -1 36 -3 56s-5.66699 39.667 -11 59
s-12.5 38.166 -21.5 56.499s-20.5 34.833 -34.5 49.5c-18 20 -37.5 35.667 -58.5 47s-42.833 19.833 -65.5 25.5s-45.5 9.33398 -68.5 11.001s-45.5 2.5 -67.5 2.5c-19.333 0 -40.833 -0.666992 -64.5 -2s-47.334 -5 -71.001 -11s-46.5 -14.667 -68.5 -26
s-41.333 -27 -58 -47c-17.333 -19.333 -30.5 -41.833 -39.5 -67.5s-15.667 -51.834 -20 -78.501s-6.83301 -52.334 -7.5 -77.001s-1 -45.667 -1 -63z" />
    <glyph glyph-name="afii57446" unicode="&#x646;" horiz-adv-x="1265" arabic-form="isolated" 
d="M919 -28c15.333 20.667 25.8311 45.5 31.498 74.5s8.5 67.5 8.5 115.5v924h240v-967c0 -33.333 -1.5 -65 -4.5 -95s-8.66699 -58.167 -17 -84.5s-19.666 -51.166 -33.999 -74.499s-32.833 -45 -55.5 -65c-36.667 -32 -77.167 -53.667 -121.5 -65s-97.833 -17 -160.5 -17
h-363c-62.667 0 -116.167 5.66699 -160.5 17s-84.833 33 -121.5 65c-22.667 20 -41.167 41.667 -55.5 65s-25.666 48.166 -33.999 74.499s-14 54.5 -17 84.5s-4.5 61.667 -4.5 95v684h240v-641c0 -48 2.83301 -86.5 8.5 -115.5s16.167 -53.833 31.5 -74.5
c22 -29.333 49 -48.333 81 -57s70 -13 114 -13h199c44 0 82 4.33301 114 13s59 27.667 81 57zM502.998 1243v191h239v-191h-239z" />
    <glyph glyph-name="afii57470" unicode="&#x647;" horiz-adv-x="1262" arabic-form="isolated" 
d="M631 1098c32.667 0 68.1689 -0.833984 106.502 -2.50098s77 -6.16699 116 -13.5s77.167 -18.666 114.5 -33.999s71 -37 101 -65c32 -28.667 57.167 -62.334 75.5 -101.001s32.166 -78.167 41.499 -118.5s15.333 -79.5 18 -117.5s4 -71 4 -99
c0 -58 -3.5 -110.167 -10.5 -156.5s-16.667 -87.5 -29 -123.5s-27 -67.5 -44 -94.5s-35.5 -49.833 -55.5 -68.5c-28.667 -27.333 -61.834 -48.666 -99.501 -63.999s-76.5 -26.833 -116.5 -34.5s-79.333 -12.5 -118 -14.5s-73.334 -3 -104.001 -3
c-32.667 0 -68.334 1 -107.001 3s-77.5 6.83301 -116.5 14.5s-77 19.167 -114 34.5s-70.5 36.666 -100.5 63.999c-32.667 30 -58.334 64.167 -77.001 102.5s-32.667 77.5 -42 117.5s-15.166 78.833 -17.499 116.5s-3.5 70.5 -3.5 98.5c0 30 1.33301 64.667 4 104
s8.83398 79.333 18.501 120s23.667 80.334 42 119.001s43.5 72.334 75.5 101.001c30 28 63.5 49.667 100.5 65s75 26.666 114 33.999s77.833 11.833 116.5 13.5s74.334 2.5 107.001 2.5zM301.002 540.999c0 -22.667 0.501953 -46.167 1.50195 -70.5
s3.66699 -48.666 8 -72.999s11.166 -48 20.499 -71s22.666 -44.5 39.999 -64.5c18 -20 37.5 -36 58.5 -48s42.667 -21 65 -27s45.166 -10 68.499 -12s46 -3 68 -3c22.667 0 45.5 1 68.5 3s45.5 6 67.5 12s43.333 15 64 27s40 28 58 48s31.833 41.167 41.5 63.5
s16.834 45.5 21.501 69.5s7.33398 48.333 8.00098 73s1 49 1 73v65c0 18 -1 36.833 -3 56.5s-5.66699 39.334 -11 59.001s-12.5 38.5 -21.5 56.5s-20.5 34.333 -34.5 49c-18 19.333 -37.5 34.666 -58.5 45.999s-42.833 20 -65.5 26s-45.5 9.83301 -68.5 11.5
s-45.5 2.5 -67.5 2.5c-19.333 0 -40.833 -0.833008 -64.5 -2.5s-47.334 -5.5 -71.001 -11.5s-46.5 -14.667 -68.5 -26s-41.333 -26.666 -58 -45.999c-17.333 -19.333 -30.5 -41.833 -39.5 -67.5s-15.667 -51.834 -20 -78.501s-6.83301 -52.334 -7.5 -77.001
s-1 -45.667 -1 -63z" />
    <glyph glyph-name="afii57448" unicode="&#x648;" horiz-adv-x="1176" arabic-form="isolated" 
d="M129 -174l457.002 0.000976562c13.333 0 28.166 0.5 44.499 1.5s34.166 2.83301 53.499 5.5c38.667 4.66699 72.667 18.667 102 42c35.333 30.667 56.666 72.334 63.999 125.001h-385c-27.333 0 -56 1.16699 -86 3.5s-59.5 8.16602 -88.5 17.499
s-56.667 23.166 -83 41.499s-49.833 43.833 -70.5 76.5c-56 86.667 -84 226.667 -84 420c0 85.333 7 161.666 21 228.999c15.333 68 46.666 127.667 93.999 179c25.333 28 51.833 50 79.5 66s55.834 27.833 84.501 35.5s57.334 12.334 86.001 14.001s56.667 2.5 84 2.5h350
c32 0 62.833 -2 92.5 -6s57.5 -16.333 83.5 -37c28 -24 45.333 -50 52 -78c8 -29.333 12 -55.666 12 -78.999v-762c0 -70 -5.83301 -135 -17.5 -195s-35.167 -111.667 -70.5 -155c-25.333 -30 -54.833 -53.667 -88.5 -71s-67.667 -30.333 -102 -39
s-66.833 -14.334 -97.5 -17.001s-55.667 -4 -75 -4h-512v184zM852.002 815.001c0 15.333 -1.66504 28.333 -4.99805 39s-12 21 -26 31c-10.667 6.66699 -21.167 11 -31.5 13s-20.833 3 -31.5 3h-205c-40 0 -76.333 -5.83301 -109 -17.5s-58.334 -28.167 -77.001 -49.5
c-16.667 -19.333 -29.5 -43 -38.5 -71s-15.5 -56.333 -19.5 -85s-6.33301 -55.5 -7 -80.5s-1 -43.833 -1 -56.5c0 -48 2 -89 6 -123s9 -62.5 15 -85.5s12.5 -41.167 19.5 -54.5s13.833 -23.333 20.5 -30c27.333 -31.333 59.333 -50 96 -56
c18.667 -2.66699 37.167 -4.66699 55.5 -6s36.166 -2 53.499 -2h285v631z" />
    <glyph glyph-name="afii57449" unicode="&#x649;" horiz-adv-x="1511" arabic-form="isolated" 
d="M331 255c22 -29.333 49 -48.335 81 -57.002s70 -13 114 -13l584 -1c12 0 25.5 1.83301 40.5 5.5s28.167 12.167 39.5 25.5c10.667 10.667 16.667 22.5 18 35.5s2 23.833 2 32.5c0 36 -10.5 65.5 -31.5 88.5s-47.5 42 -79.5 57s-66.833 27.167 -104.5 36.5l-106.5 27
c-58 14.667 -106.667 32.667 -146 54s-70 47 -92 77c-21.333 30 -35.166 61.167 -41.499 93.5s-9.5 62.5 -9.5 90.5s3.16699 58.167 9.5 90.5s20.166 63.5 41.499 93.5c16.667 22.667 35.334 40.334 56.001 53.001s42.167 22 64.5 28s45.333 9.66699 69 11s47.5 2 71.5 2
h498v-184h-462c-13.333 0 -27.166 -0.666992 -41.499 -2s-28.5 -7.33301 -42.5 -18c-14.667 -11.333 -23.334 -23.5 -26.001 -36.5s-4 -26.833 -4 -41.5c0 -15.333 1.66699 -29.833 5 -43.5s13.333 -27.167 30 -40.5c7.33301 -6 17.166 -12.167 29.499 -18.5
s25.166 -12 38.499 -17s26 -9.16699 38 -12.5s21.667 -5.66602 29 -6.99902l233 -66c37.333 -13.333 69.833 -31 97.5 -53s50.834 -47.333 69.501 -76s32.5 -59.5 41.5 -92.5s13.5 -66.5 13.5 -100.5c0 -65.333 -10 -116 -30 -152
c-18.667 -35.333 -38.667 -61.666 -60 -78.999c-14 -10 -28.5 -18 -43.5 -24s-30 -10.5 -45 -13.5s-29.833 -5 -44.5 -6s-28.334 -1.5 -41.001 -1.5l-750 1c-62.667 0 -116.167 5.66699 -160.5 17s-84.833 33 -121.5 65c-22.667 20 -41.167 41.667 -55.5 65
s-25.666 48.166 -33.999 74.499s-14 54.5 -17 84.5s-4.5 61.667 -4.5 95v401h240v-358c0 -48 2.83301 -86.5 8.5 -115.5s16.167 -53.833 31.5 -74.5z" />
    <glyph glyph-name="afii57450" unicode="&#x64a;" horiz-adv-x="1511" arabic-form="isolated" 
d="M331 255c22 -29.333 49 -48.335 81 -57.002s70 -13 114 -13l584 -1c12 0 25.5 1.83301 40.5 5.5s28.167 12.167 39.5 25.5c10.667 10.667 16.667 22.5 18 35.5s2 23.833 2 32.5c0 36 -10.5 65.5 -31.5 88.5s-47.5 42 -79.5 57s-66.833 27.167 -104.5 36.5l-106.5 27
c-58 14.667 -106.667 32.667 -146 54s-70 47 -92 77c-21.333 30 -35.166 61.167 -41.499 93.5s-9.5 62.5 -9.5 90.5s3.16699 58.167 9.5 90.5s20.166 63.5 41.499 93.5c16.667 22.667 35.334 40.334 56.001 53.001s42.167 22 64.5 28s45.333 9.66699 69 11s47.5 2 71.5 2
h498v-184h-462c-13.333 0 -27.166 -0.666992 -41.499 -2s-28.5 -7.33301 -42.5 -18c-14.667 -11.333 -23.334 -23.5 -26.001 -36.5s-4 -26.833 -4 -41.5c0 -15.333 1.66699 -29.833 5 -43.5s13.333 -27.167 30 -40.5c7.33301 -6 17.166 -12.167 29.499 -18.5
s25.166 -12 38.499 -17s26 -9.16699 38 -12.5s21.667 -5.66602 29 -6.99902l233 -66c37.333 -13.333 69.833 -31 97.5 -53s50.834 -47.333 69.501 -76s32.5 -59.5 41.5 -92.5s13.5 -66.5 13.5 -100.5c0 -65.333 -10 -116 -30 -152
c-18.667 -35.333 -38.667 -61.666 -60 -78.999c-14 -10 -28.5 -18 -43.5 -24s-30 -10.5 -45 -13.5s-29.833 -5 -44.5 -6s-28.334 -1.5 -41.001 -1.5l-750 1c-62.667 0 -116.167 5.66699 -160.5 17s-84.833 33 -121.5 65c-22.667 20 -41.167 41.667 -55.5 65
s-25.666 48.166 -33.999 74.499s-14 54.5 -17 84.5s-4.5 61.667 -4.5 95v401h240v-358c0 -48 2.83301 -86.5 8.5 -115.5s16.167 -53.833 31.5 -74.5zM466 -357.002v191h239v-191h-239zM788 -357.002v191h239v-191h-239z" />
    <glyph glyph-name="uniFDFA" unicode="&#xfdfa;" horiz-adv-x="2188" arabic-form="isolated" 
d="M285 68c-14 22 -21.0029 46.3281 -21.0029 72.9951c0 14.667 3.33301 30 10 46s15.167 30.5 25.5 43.5s21.833 23.667 34.5 32s25 12.5 37 12.5c4.66699 0 11.334 -3 20.001 -9c22.667 -10.667 40.667 -16 54 -16c20.667 0 39 10.333 55 31l8 10l8 10
c6 5.33301 14.333 19.666 25 42.999l12 25c1.33301 1.33301 2.5 2.83301 3.5 4.5l4.5 7.5c-6 2 -10 4 -12 6l-35 10c-68 22.667 -111.667 73.334 -131 152.001l-6 29l-4 20v3c0 1.33301 -0.666992 3.66602 -2 6.99902l-4 2l-6 -8c-44.667 -62.667 -94 -94 -148 -94
c-14 0 -28.333 1.33301 -43 4s-27.667 6.16699 -39 10.5s-20.666 9.16602 -27.999 14.499s-11 10.666 -11 15.999c0 26 22.667 58.667 68 98c23.333 19.333 47.333 36.666 72 51.999s50.667 28.333 78 39l28 10l8 4c2.66699 0 5 0.666992 7 2v27
c0 2.66699 -1 5.33398 -3 8.00098l39 63c1.33301 -4 2 -7 2 -9v-5l2 -27c8.66699 -118 23 -200.667 43 -248c22.667 -44 59.667 -72.667 111 -86c-1.33301 7.33301 -2 13 -2 17s-0.666992 6.66699 -2 8l-6 82c-1.33301 8 -2.5 18.833 -3.5 32.5s-2.5 30.167 -4.5 49.5
c-4 30.667 -6 56.667 -6 78l36 88v-21l9 -78l6 -65l4 -47l6 -58l4 -47c1.33301 -9.33301 2.33301 -18 3 -26s1.66699 -15.667 3 -23c5.33301 -1.33301 10 -2 14 -2s7 -0.666992 9 -2l55 -4l88 -4h45c138.667 0 252.667 27.333 342 82l4 8l10 31
c9.33301 24.667 17.666 37 24.999 37c4 0 6 -5 6 -15v-14l-4 -16c-1.33301 -5.33301 -2 -10 -2 -14v-11c6 -8 14 -16.167 24 -24.5s20.667 -15.833 32 -22.5s22.666 -12.167 33.999 -16.5s21 -6.5 29 -6.5c33.333 0 61.333 29.333 84 88v13l-4 37l-4 43l-4 53
c-1.33301 3.33301 -2.16602 9.83301 -2.49902 19.5s-1.16602 22.167 -2.49902 37.5l-4 57c-1.33301 12.667 -2.33301 24.5 -3 35.5s-1 21.167 -1 30.5c-3.33301 -1.33301 -6.33301 -2 -9 -2h-5c-21.333 0 -41.166 3.66699 -59.499 11s-34.833 17.833 -49.5 31.5
s-27 29.834 -37 48.501s-16.667 39 -20 61h-2c-1.33301 -3.33301 -2.33301 -6 -3 -8s-1 -3.66699 -1 -5c-21.333 -77.333 -48 -121.666 -80 -132.999v-4h53c12 0 23.667 -2 35 -6s21.166 -9.5 29.499 -16.5s15 -15.333 20 -25s7.5 -19.834 7.5 -30.501
c0 -46 -23.667 -82 -71 -108l-43 -25c-91.333 -54.667 -177.333 -82 -258 -82c-32 0 -61 4.33301 -87 13s-48.167 20.834 -66.5 36.501s-32.5 34.5 -42.5 56.5s-15 46.667 -15 74c0 19.333 2.5 40.666 7.5 63.999s13.167 48 24.5 74c-40 12 -65 40.667 -75 86h-4l-7 -13
c-30.667 -60 -65.334 -90 -104.001 -90c-65.333 0 -98 51.333 -98 154c-3.33301 -2 -5.66602 -3.5 -6.99902 -4.5s-2.66602 -2.16699 -3.99902 -3.5l-18 -17l-10 -8.5c-2.66699 -2.33301 -4.66699 -4.16602 -6 -5.49902c-7.33301 -7.33301 -17.166 -13 -29.499 -17
s-27.833 -6 -46.5 -6c-74 0 -111 12.333 -111 37c0 10.667 4 23.5 12 38.5s19.667 32.833 35 53.5c11.333 15.333 38 33.333 80 54l31 14c18 8 28.333 12 31 12c9.33301 4 17.166 8 23.499 12l17.5 11v22l37 70v-51l2 -35l2 -43l2 -47v-49l2 -17l2 -26
c4 -41.333 23.667 -62 59 -62c38.667 0 67.334 15.667 86.001 47l6 11c1.33301 2 2 3.33301 2 4c0 1.33301 0.666992 2.66602 2 3.99902l-2 4v4c0 1.33301 -0.666992 2.66602 -2 3.99902l-4 41l-10 68l-10 67l-4 33v5c0 2.66699 -0.666992 5.66699 -2 9l39 76
c1.33301 -3.33301 2 -6.33301 2 -9v-5l8 -41l10 -60l10 -61c2 -11.333 3.83301 -22.5 5.5 -33.5s3.16699 -21.833 4.5 -32.5l6.5 -37c1.66699 -9.33301 3.16699 -16.666 4.5 -21.999l4 -18v-7c10.667 -27.333 33.667 -41 69 -41c27.333 0 42.666 8.33301 45.999 25v2
c0 22 -7 57 -21 105l-18 59l-17 53l-12 43c0 1.33301 -0.333008 3.83301 -1 7.5s-1.66699 8.16699 -3 13.5l24 65c3.33301 -9.33301 7.16602 -22.166 11.499 -38.499s10.166 -36.166 17.499 -59.499c35.333 -114 53 -189 53 -225c0 -16 -2.33301 -32.167 -7 -48.5
s-10.5 -31.166 -17.5 -44.499s-14.833 -24.166 -23.5 -32.499s-17 -12.5 -25 -12.5h-9c-2 0 -4.66699 0.666992 -8 2c-5.33301 -11.333 -9 -23.5 -11 -36.5s-3 -26.5 -3 -40.5c0 -46.667 16.333 -83.667 49 -111s77.667 -41 135 -41c102.667 0 196.334 30.667 281.001 92
l10 6l2 2v5c0 8.66699 -37 18 -111 28c-15.333 2 -27.5 3.5 -36.5 4.5s-14.5 2.16699 -16.5 3.5l-16.5 3c-3.66699 0.666992 -6.16699 1 -7.5 1c-11.333 3.33301 -17 9.66602 -17 18.999v8l4 8l7 19c4.66699 11.333 11.334 21.333 20.001 30
c5.33301 3.33301 11.333 6.5 18 9.5l21 9.5c18.667 8 33.834 15.5 45.501 22.5s21 15 28 24s11.833 19.333 14.5 31s4 26.167 4 43.5v38c0 11.333 -0.666992 21.666 -2 30.999l-4 60l-6 86l-8 76l-9 79c-4 44 -8 76.333 -12 97l37 110c1.33301 -8 2 -14.667 2 -20
c0 -4.66699 0.666992 -8 2 -10l10 -95l15 -118l10 -86c14 -118 33 -199.333 57 -244c13.333 -21.333 30.333 -38.5 51 -51.5s45.334 -21.167 74.001 -24.5c-1.33301 11.333 -2.33301 22.666 -3 33.999s-1 22.666 -1 33.999v22c0 8 -0.666992 15.667 -2 23l-2 43v39l41 90
c4 -37.333 6 -61.333 6 -72l2 -68c0 -1.33301 2 -26.333 6 -75v-22c0 -7.33301 0.666992 -15.666 2 -24.999l2 -21c3.33301 1.33301 6.5 2.33301 9.5 3s5.5 1 7.5 1c30 10 49 17 57 21c9.33301 4.66699 26.333 17 51 37l15 10c2 -2 3.83301 -3.5 5.5 -4.5
s3.16699 -2.16699 4.5 -3.5c24.667 -19.333 47.667 -34.666 69 -45.999s41.333 -18 60 -20c26.667 25.333 53.334 49.166 80.001 71.499s54 42.833 82 61.5c54.667 36.667 92 55 112 55c28 0 56.667 -10.667 86 -32c32.667 -20.667 49 -40 49 -58c0 -22 -10 -49.333 -30 -82
c-10.667 -15.333 -21 -28.333 -31 -39s-20.333 -18.667 -31 -24c-28.667 -15.333 -64.834 -26.666 -108.501 -33.999s-95.5 -11 -155.5 -11c-11.333 0 -23 0.333008 -35 1s-24.333 1.66699 -37 3c-31.333 -62.667 -56.333 -94 -75 -94c-6 0 -9 4 -9 12
c0 7.33301 2 15.666 6 24.999s9.66699 20 17 32l12 25c1.33301 1.33301 2.66602 2.83301 3.99902 4.5s2.66602 4.16699 3.99902 7.5c-3.33301 1.33301 -6.16602 2.33301 -8.49902 3s-4.16602 1.66699 -5.49902 3l-20 11c-13.333 6 -25.5 12 -36.5 18
s-20.167 12.333 -27.5 19c-34 -22.667 -54.333 -35 -61 -37l-37 -11l-10 -4h-9v-26l5 -47l2 -60c8 -118.667 26.333 -198.334 55 -239.001c29.333 -41.333 83.333 -64 162 -68v4c-26 18 -39 46.667 -39 86c0 55.333 19 106 57 152s80.333 69 127 69
c16.667 0 33.667 -2.5 51 -7.5s33.5 -11.5 48.5 -19.5s27.833 -17 38.5 -27s17.334 -20 20.001 -30v-14c-31.333 13.333 -66.333 20 -105 20c-22.667 0 -45 -2.5 -67 -7.5s-41.667 -11.5 -59 -19.5s-31.333 -17 -42 -27s-16 -20 -16 -30c0 -20 17.667 -48.667 53 -86
c18.667 -17.333 35.167 -30.5 49.5 -39.5s26.5 -13.5 36.5 -13.5h4c2 0 4.33301 0.666992 7 2c1.33301 0 3.33301 0.333008 6 1l12 3c106.667 24.667 188.667 51.334 246 80.001l-33 -73c-142 -72.667 -270.333 -109 -385 -109c-124 0 -205.333 45.667 -244 137l-4 12
c-37.333 -88.667 -75.666 -133 -114.999 -133c-40 0 -85 30 -135 90c-99.333 -76 -227.666 -114 -384.999 -114c-32 0 -60.833 0.833008 -86.5 2.5s-49.167 4.16699 -70.5 7.5c1.33301 -3.33301 2 -6 2 -8v-4l4 -25c5.33301 -40 12.166 -73.833 20.499 -101.5
s19.166 -49.167 32.499 -64.5c11.333 -13.333 28.166 -25.166 50.499 -35.499s50.5 -20.166 84.5 -29.499c35.333 -9.33301 71.666 -16.166 108.999 -20.499s76 -6.5 116 -6.5c145.333 0 257.333 20.667 336 62c21.333 51.333 40.666 77 57.999 77
c5.33301 0 8 -5.33301 8 -16c0 -17.333 -5.66699 -40 -17 -68c-1.33301 -4 -2.33301 -7.5 -3 -10.5s-1.66699 -6.16699 -3 -9.5c6 -19.333 23.667 -29 53 -29c43.333 0 77 9 101 27c4 6 6 10 6 12l12 37c18.667 50.667 34.334 78 47.001 82h2c6 0 9 -4 9 -12v-15
c0 -17.333 -4.33301 -37.666 -13 -60.999l-4 -12l-2 -7c32 -18.667 62 -28 90 -28c10 0 15 4.66699 15 14c0 10.667 -3.66699 26.334 -11 47.001l-6 25l33 71c18 -43.333 27 -79.333 27 -108c0 -40 -8.5 -71.833 -25.5 -95.5s-39.5 -35.5 -67.5 -35.5
c-23.333 0 -50.333 9.66699 -81 29c-1.33301 1.33301 -3 2.5 -5 3.5s-4.66699 2.5 -8 4.5c-30.667 -36 -70.334 -54 -119.001 -54c-62.667 0 -96 18 -100 54c-40 -23.333 -91 -41.166 -153 -53.499s-134.667 -18.5 -218 -18.5c-73.333 0 -135.5 5.16699 -186.5 15.5
s-92.833 27.333 -125.5 51s-57.334 54.334 -74.001 92.001s-27 83.834 -31 138.501v18c-43.333 -69.333 -75 -109.333 -95 -120c15.333 -34 23 -61.333 23 -82c0 -29.333 -7.16699 -53.833 -21.5 -73.5s-33.166 -29.5 -56.499 -29.5c-9.33301 0 -18.333 1 -27 3
s-16.667 5.33301 -24 10l-41 18c-7.33301 3.33301 -13.166 6.33301 -17.499 9l-11.5 7c-37.333 -69.333 -82.333 -104 -135 -104h-19c-4.66699 0 -9.33398 -0.666992 -14.001 -2l-10 -4l-6 -2l-16 -4h-7c-1.33301 0 -3.33301 1.33301 -6 4v6
c1.33301 3.33301 4.33301 6.33301 9 9s10.667 5.66699 18 9c11.333 5.33301 21 9.66602 29 12.999s14 6 18 8l25 10c5.33301 3.33301 10.333 6.83301 15 10.5s9.66699 7.16699 15 10.5l17 12l16 12c2.66699 2.66699 9 6.66699 19 12
c3.33301 3.33301 6.33301 6.16602 9 8.49902s5 4.5 7 6.5zM452.997 104.995c0 9.33301 -3.5 19.333 -10.5 30s-17.833 21.667 -32.5 33c-27.333 23.333 -53.333 35 -78 35c-18 0 -27 -8.33301 -27 -25c0 -14.667 16 -33 48 -55c30.667 -20.667 57.667 -31 81 -31h9
c6.66699 0 10 4.33301 10 13zM364.997 638.995l-5.99902 76c-20.667 -7.33301 -40.834 -15.5 -60.501 -24.5s-39.167 -19.167 -58.5 -30.5c-38 -22.667 -57 -38.667 -57 -48c0 -2.66699 0.666992 -4.66699 2 -6l4 -2l6 -6c6 -4 19.667 -6 41 -6
c50.667 0 93.667 15.667 129 47zM401.998 1092l-2 80.001c-3.33301 -1.33301 -6 -2.33301 -8 -3s-3.66699 -1 -5 -1l-28 -15l-41 -16c-46.667 -20.667 -70 -37 -70 -49c0 -15.333 18.333 -23 55 -23c15.333 0 31.333 2.16699 48 6.5s33.667 11.166 51 20.499zM505.998 1577
c-1.33301 -5.33301 -1.99805 -9.99805 -1.99805 -13.998v-10c0 -33.333 11.667 -50 35 -50c15.333 0 28.333 10.333 39 31c-1.33301 3.33301 -2 5.66602 -2 6.99902v5l-2 19v5c0 2.66699 -0.666992 5.66699 -2 9l20 27l6 -43l2 -15c2 -21.333 11.667 -32 29 -32
c15.333 0 23 6.66699 23 20v10l-3 19l-4 16v8l15 23c9.33301 -27.333 14 -53.333 14 -78c0 -43.333 -15 -65 -45 -65c-12.667 0 -26.334 5.33301 -41.001 16c-26.667 -20.667 -44.334 -31 -53.001 -31c-32.667 0 -49 17.667 -49 53c0 19.333 2 38.666 6 57.999zM951 1546
c2 -19.333 3.83301 -39.168 5.5 -59.501s3.16699 -41.166 4.5 -62.499l6 -87l6 -86l6 -92l4 -53v-5c0 -2 0.666992 -5 2 -9l-2 -23c-6 -74.667 -14 -117 -24 -127c-1.33301 5.33301 -2 9.33301 -2 12v7l-9 59l-8 80l-10 88l-8 90l-10 102l-4 56zM1266 1376l6 52l418 188
l-10 -47zM1610 1153c-22.667 9.33301 -39.667 20.834 -51 34.501s-17 30.167 -17 49.5c0 40 18.667 70 56 90l53 31c52 30 109 59.5 171 88.5s128.667 57.5 200 85.5l-19 -49l-22 -10c-52.667 -20.667 -102.5 -41.834 -149.5 -63.501s-91.5 -44.167 -133.5 -67.5
c-83.333 -44.667 -125 -75 -125 -91c0 -10 15.667 -25 47 -45l6 -4zM1737 968.997c9.33301 -1.33301 17.335 -2.00098 24.002 -2.00098h19c61.333 0 118.666 6 171.999 18c54 14.667 84 29.667 90 45v4c0 10 -11.667 21 -35 33c-11.333 7.33301 -21.833 12.666 -31.5 15.999
s-18.167 5 -25.5 5c-20 0 -53.333 -13 -100 -39c-23.333 -13.333 -44.333 -26.666 -63 -39.999s-35.334 -26.666 -50.001 -39.999zM932.002 265.996l57 70l99 -72l53 68l100 -76l-53 -63l-98 71l-58 -71zM2030 110.996l-13.998 42.998c-28 -36 -53.333 -54 -76 -54
c-10 0 -19.333 2.5 -28 7.5s-16.167 11.833 -22.5 20.5s-11.5 18.334 -15.5 29.001s-6 22 -6 34c0 32 10.333 67.333 31 106c22 39.333 41 59 57 59c21.333 0 44.666 -19.667 69.999 -59c26 -39.333 39 -74.666 39 -105.999c0 -78.667 -28.667 -157.334 -86 -236.001
c-57.333 -79.333 -114.666 -119 -171.999 -119c-13.333 0 -29.333 2.66699 -48 8s-40.334 13 -65.001 23c-48 18.667 -75.333 34.334 -82 47.001v6c1.33301 1.33301 2.5 2.33301 3.5 3s3.16699 1 6.5 1h2c6 -2 13 -4 21 -6l20 -6l35 -10
c9.33301 -3.33301 18.166 -5.5 26.499 -6.5s16.5 -1.5 24.5 -1.5c88.667 0 181.667 72.333 279 217zM1913 214.994c10.667 -23.333 32 -35.001 64 -35.001c7.33301 0 13 2 17 6s7.66699 9.66699 11 17c-10 42 -27.667 63 -53 63c-9.33301 0 -17.333 -4.16699 -24 -12.5
s-11.667 -21.166 -15 -38.499zM1231 -115.007c5.33301 -5.33301 10.9971 -8.00293 16.9971 -8.00293c20 0 30 9.66699 30 29c0 18.667 7.66699 29 23 31v-45c0 -30 -17.667 -45 -53 -45c-5.33301 0 -10.166 0.833008 -14.499 2.5s-9.16602 4.16699 -14.499 7.5
c-22 -22 -42.667 -33 -62 -33c-10.667 0 -20.667 4.66699 -30 14l-13 13c-5.33301 5.33301 -10.666 8 -15.999 8s-13 -2.16699 -23 -6.5s-22 -11.166 -36 -20.499c-23.333 -15.333 -47.333 -26.666 -72 -33.999s-48.667 -11 -72 -11h-33c-46 0 -69 5.66699 -69 17
c0 10.667 22.333 16 67 16h39c42.667 0 83.667 11.667 123 35c40.667 26 68 39 82 39c14.667 0 31 -9 49 -27c5.33301 -2.66699 9 -4.66699 11 -6h8c19.333 2 30 11 32 27v8c0 9.33301 6.33301 17.333 19 24l4 2c5.33301 0 8 -4 8 -12v-4c0 -2 -0.666992 -4 -2 -6
c-1.33301 -1.33301 -2 -4.66602 -2 -9.99902v-5z" />
    <glyph glyph-name="uniFE86" unicode="&#x622;" horiz-adv-x="1220" arabic-form="final" 
d="M129 -174l457.004 0.000976562c13.333 0 28.166 0.5 44.499 1.5s34.166 2.83301 53.499 5.5c38.667 4.66699 72.667 18.667 102 42c35.333 30.667 56.666 72.334 63.999 125.001h-385c-27.333 0 -56 1.16699 -86 3.5s-59.5 8.16602 -88.5 17.499
s-56.667 23.166 -83 41.499s-49.833 43.833 -70.5 76.5c-56 86.667 -84 226.667 -84 420c0 85.333 7 161.666 21 228.999c15.333 68 46.666 127.667 93.999 179c25.333 28 51.833 50 79.5 66s55.834 27.833 84.501 35.5s57.334 12.334 86.001 14.001s56.667 2.5 84 2.5h350
c32 0 62.833 -2 92.5 -6s57.5 -16.333 83.5 -37c28 -24 45.333 -50 52 -78c8 -29.333 12 -55.666 12 -78.999v-701h140v-184h-146c-4.66699 -44.667 -13.334 -86 -26.001 -124s-31.334 -72.333 -56.001 -103c-25.333 -30 -54.833 -53.667 -88.5 -71
s-67.667 -30.333 -102 -39s-66.833 -14.334 -97.5 -17.001s-55.667 -4 -75 -4h-512v184zM852.004 815.001c0 15.333 -1.66504 28.333 -4.99805 39s-12 21 -26 31c-10.667 6.66699 -21.167 11 -31.5 13s-20.833 3 -31.5 3h-205c-40 0 -76.333 -5.83301 -109 -17.5
s-58.334 -28.167 -77.001 -49.5c-16.667 -19.333 -29.5 -43 -38.5 -71s-15.5 -56.333 -19.5 -85s-6.33301 -55.5 -7 -80.5s-1 -43.833 -1 -56.5c0 -48 2 -89 6 -123s9 -62.5 15 -85.5s12.5 -41.167 19.5 -54.5s13.833 -23.333 20.5 -30c27.333 -31.333 59.333 -50 96 -56
c18.667 -2.66699 37.167 -4.66699 55.5 -6s36.166 -2 53.499 -2h285v631zM407.006 1290l213.999 0.000976562c2.66699 0 5.5 0.666992 8.5 2s4.5 4 4.5 8c0 2.66699 -0.5 4.5 -1.5 5.5s-5.5 3 -13.5 6s-21.333 7.5 -40 13.5l-81 27c-34 11.333 -58.333 26 -73 44
s-22 42.667 -22 74c0 39.333 10 67 30 83s46.333 24 79 24h262v-101h-213c-3.33301 0 -8 0.333008 -14 1h-1c-5.33301 0 -8 -2.66699 -8 -8c0 -2.66699 2 -5.16699 6 -7.5s11 -5.33301 21 -9s23.833 -8.33398 41.5 -14.001l67.5 -22.5
c36.667 -12.667 64.334 -28.5 83.001 -47.5s28 -46.167 28 -81.5c0 -30 -8.5 -54.5 -25.5 -73.5s-40.833 -28.5 -71.5 -28.5h-281v105z" />
    <glyph glyph-name="uniFE8A" unicode="&#x623;" horiz-adv-x="1677" arabic-form="final" 
d="M1569 0c-35.333 0 -72.3379 3 -111.005 9c-37.333 6 -72.666 24 -105.999 54c-10 10 -20 22 -30 36s-19 30.833 -27 50.5s-14.5 42.167 -19.5 67.5s-7.5 54 -7.5 86v167c0 37.333 0.166992 84.166 0.5 140.499s0.5 125.166 0.5 206.499c0.666992 2 1 4.33301 1 7
s-0.333008 5.66699 -1 9c-0.666992 6 -1.66699 12.333 -3 19s-3.16602 13 -5.49902 19s-5.16602 10.667 -8.49902 14c-8 8 -18.833 12.667 -32.5 14s-25.834 2 -36.501 2h-29c-18.667 0 -36.167 -3.33301 -52.5 -10s-29.5 -15.667 -39.5 -27
c-12 -14.667 -19.333 -32.667 -22 -54s-4 -41.333 -4 -60l-2 -348c0 -33.333 -1.5 -65 -4.5 -95s-8.66699 -58.167 -17 -84.5s-19.666 -51.166 -33.999 -74.499s-32.833 -45 -55.5 -65c-36.667 -32 -77.167 -53.667 -121.5 -65s-97.833 -17 -160.5 -17h-207
c-62.667 0 -116.167 5.66699 -160.5 17s-84.833 33 -121.5 65c-22.667 20 -41.167 41.667 -55.5 65s-25.666 48.166 -33.999 74.499s-14 54.5 -17 84.5s-4.5 61.667 -4.5 95v326h240v-283c0 -48 2.83301 -86.5 8.5 -115.5s16.167 -53.833 31.5 -74.5
c22 -29.333 49 -48.333 81 -57s70 -13 114 -13h48c44 0 82 4.33301 114 13s59 27.667 81 57c15.333 20.667 25.833 45.5 31.5 74.5s8.5 67.5 8.5 115.5l-3 319c0 19.333 1 40 3 62s5.33301 44.667 10 68c9.33301 48 31.666 89.333 66.999 124
c18.667 18.667 42.834 34.834 72.501 48.501s67.5 20.5 113.5 20.5l260 -2c8.66699 0 18.834 -0.166992 30.501 -0.5s23.5 -1.83301 35.5 -4.5s24 -6.5 36 -11.5s23 -12.167 33 -21.5c24 -22 38.667 -50.333 44 -85c2.66699 -16.667 4.5 -31.167 5.5 -43.5
s1.5 -22.833 1.5 -31.5v-555c0 -32 3.66699 -57.167 11 -75.5s16 -32.166 26 -41.499c14.667 -14.667 32 -23.5 52 -26.5s40 -4.5 60 -4.5h30v-184h-118zM45.9951 963l213.999 0.000976562c2.66699 0 5.5 0.666992 8.5 2s4.5 4 4.5 8c0 2.66699 -0.5 4.5 -1.5 5.5
s-5.5 3 -13.5 6s-21.333 7.5 -40 13.5l-81 27c-34 11.333 -58.333 26 -73 44s-22 42.667 -22 74c0 39.333 10 67 30 83s46.333 24 79 24h262v-101h-213c-3.33301 0 -8 0.333008 -14 1h-1c-5.33301 0 -8 -2.66699 -8 -8c0 -2.66699 2 -5.16699 6 -7.5s11 -5.33301 21 -9
s23.833 -8.33398 41.5 -14.001l67.5 -22.5c36.667 -12.667 64.334 -28.5 83.001 -47.5s28 -46.167 28 -81.5c0 -30 -8.5 -54.5 -25.5 -73.5s-40.833 -28.5 -71.5 -28.5h-281v105z" />
    <glyph glyph-name="uniFE8C" unicode="&#x624;" horiz-adv-x="729" arabic-form="final" 
d="M-9 1l-0.000976562 184.003h24c44.667 0 80.334 5 107.001 15s48.667 26.667 66 50c18 25.333 29.833 53.666 35.5 84.999s8.83398 64.333 9.50098 99c-0.666992 4.66699 -1 9 -1 13v14h1v271h239v-271l5 -148c8 -28.667 20.667 -51.5 38 -68.5s37 -30 59 -39
s45.333 -14.833 70 -17.5s48 -4 70 -4h26v-184h-98c-23.333 0 -47.166 0.833008 -71.499 2.5s-48.833 5.16699 -73.5 10.5s-48.834 13.5 -72.501 24.5s-45.834 25.833 -66.501 44.5c-21.333 -18.667 -43.5 -33.334 -66.5 -44.001s-46.833 -18.834 -71.5 -24.501
s-50 -9.16699 -76 -10.5s-53 -2 -81 -2h-72zM103.999 951.003h289c3.33301 0 7 1 11 3s6 5.66699 6 11c0 3.33301 -0.5 5.83301 -1.5 7.5s-7 4.33398 -18 8.00098l-54 18l-109.5 36.5c-46 15.333 -79 35.166 -99 59.499s-30 57.5 -30 99.5c0 52.667 13.5 90 40.5 112
s62.833 33 107.5 33h354v-136h-288c-2 0 -4.66699 0.333008 -8 1h-11c-3.33301 -0.666992 -6.33301 -1.66699 -9 -3s-4 -4 -4 -8c0 -3.33301 2.66699 -6.66602 8 -9.99902s14.833 -7.5 28.5 -12.5s32.5 -11.333 56.5 -19l92 -30.5c24.667 -8 46.167 -17.167 64.5 -27.5
s33.833 -22.333 46.5 -36s22.167 -29.5 28.5 -47.5s9.5 -39 9.5 -63c0 -40.667 -11.333 -73.834 -34 -99.501s-55 -38.5 -97 -38.5h-379v142z" />
    <glyph glyph-name="uniFE90" unicode="&#x625;" horiz-adv-x="1855" arabic-form="final" 
d="M500 0c-25.333 0 -52.833 1.00098 -82.5 3.00098s-59.834 7.83301 -90.501 17.5s-61.167 24.334 -91.5 44.001s-58.5 47.167 -84.5 82.5c-20 26.667 -36 55.167 -48 85.5s-21 61.833 -27 94.5s-9.83301 66.167 -11.5 100.5s-2.5 68.833 -2.5 103.5v319h248l-1 -324
c0 -46 2 -90 6 -132s16.333 -79.667 37 -113c10 -18 22.167 -33.167 36.5 -45.5s31.166 -22.333 50.499 -30s41.833 -13.167 67.5 -16.5s54.834 -5 87.501 -5l547 1c44.667 0 80.334 5 107.001 15s48.667 26.667 66 50c18 25.333 29.833 53.666 35.5 84.999
s8.83398 64.333 9.50098 99c0 1.33301 -0.166992 3.83301 -0.5 7.5s-0.5 11.834 -0.5 24.501v171c0 48 0.166992 108.5 0.5 181.5s0.5 162.167 0.5 267.5h239v-625l5 -148c8 -28.667 20.667 -51.5 38 -68.5s37 -30 59 -39s45.333 -14.833 70 -17.5s48 -4 70 -4h26v-184h-98
c-23.333 0 -47.166 0.833008 -71.499 2.5s-48.833 5.16699 -73.5 10.5s-48.834 13.5 -72.501 24.5s-45.834 25.833 -66.501 44.5c-21.333 -18.667 -43.5 -33.334 -66.5 -44.001s-46.833 -18.834 -71.5 -24.501s-50 -9.16699 -76 -10.5s-53 -2 -81 -2zM685 -356.999v191h239
v-191h-239z" />
    <glyph glyph-name="uniFE92" unicode="&#x626;" horiz-adv-x="729" arabic-form="final" 
d="M-9 1l-0.000976562 184.003h24c44.667 0 80.334 5 107.001 15s48.667 26.667 66 50c18 25.333 29.833 53.666 35.5 84.999s8.83398 64.333 9.50098 99c-0.666992 4.66699 -1 9 -1 13v14h1v625h239v-625l5 -148c8 -28.667 20.667 -51.5 38 -68.5s37 -30 59 -39
s45.333 -14.833 70 -17.5s48 -4 70 -4h26v-184h-98c-23.333 0 -47.166 0.833008 -71.499 2.5s-48.833 5.16699 -73.5 10.5s-48.834 13.5 -72.501 24.5s-45.834 25.833 -66.501 44.5c-21.333 -18.667 -43.5 -33.334 -66.5 -44.001s-46.833 -18.834 -71.5 -24.501
s-50 -9.16699 -76 -10.5s-53 -2 -81 -2h-72zM227.999 -356.997v191h239v-191h-239z" />
    <glyph glyph-name="uniFE94" unicode="&#x626;" horiz-adv-x="1265" arabic-form="initial" 
d="M453 0c-28 0 -57.834 2.3291 -89.501 6.99609s-63.167 14.667 -94.5 30s-61.166 37 -89.499 65s-52.833 65.667 -73.5 113c-6.66699 16 -13.167 34.5 -19.5 55.5s-12 45.333 -17 73s-9 59.167 -12 94.5s-4.5 75.666 -4.5 120.999c0 28.667 0.833008 58.834 2.5 90.501
s5.5 63.334 11.5 95.001s14.5 62.834 25.5 93.501s25.833 59.334 44.5 86.001c26 38 55.667 67.833 89 89.5s66.833 37.834 100.5 48.501s66 17.167 97 19.5s57.167 3.5 78.5 3.5h321v125h240v-1026h217v-184h-827zM329.999 306.996
c12 -27.333 26.834 -48.998 44.501 -64.998s36.5 -28.333 56.5 -37s40.167 -14.334 60.5 -17.001s39.5 -4 57.5 -4h273c0 9.33301 0.166992 19.166 0.5 29.499s0.5 19.833 0.5 28.5v659h-274c-16 0 -33 -1 -51 -3s-36 -6.5 -54 -13.5s-35.333 -16.833 -52 -29.5
s-31.334 -29.334 -44.001 -50.001c-6 -10 -11.833 -21.833 -17.5 -35.5s-10.667 -30.667 -15 -51s-7.83301 -44.166 -10.5 -71.499s-4 -59.333 -4 -96c0 -42.667 1.16699 -78.5 3.5 -107.5s5 -52.833 8 -71.5s6.16699 -33 9.5 -43s6 -17.333 8 -22zM353 1396v191h239v-191
h-239zM675 1396v191h239v-191h-239z" />
    <glyph glyph-name="uniFE96" unicode="&#x626;" horiz-adv-x="1855" arabic-form="medial" 
d="M500 0c-25.333 0 -52.833 1.00098 -82.5 3.00098s-59.834 7.83301 -90.501 17.5s-61.167 24.334 -91.5 44.001s-58.5 47.167 -84.5 82.5c-20 26.667 -36 55.167 -48 85.5s-21 61.833 -27 94.5s-9.83301 66.167 -11.5 100.5s-2.5 68.833 -2.5 103.5v319h248l-1 -324
c0 -46 2 -90 6 -132s16.333 -79.667 37 -113c10 -18 22.167 -33.167 36.5 -45.5s31.166 -22.333 50.499 -30s41.833 -13.167 67.5 -16.5s54.834 -5 87.501 -5l547 1c44.667 0 80.334 5 107.001 15s48.667 26.667 66 50c18 25.333 29.833 53.666 35.5 84.999
s8.83398 64.333 9.50098 99c0 1.33301 -0.166992 3.83301 -0.5 7.5s-0.5 11.834 -0.5 24.501v171c0 48 0.166992 108.5 0.5 181.5s0.5 162.167 0.5 267.5h239v-625l5 -148c8 -28.667 20.667 -51.5 38 -68.5s37 -30 59 -39s45.333 -14.833 70 -17.5s48 -4 70 -4h26v-184h-98
c-23.333 0 -47.166 0.833008 -71.499 2.5s-48.833 5.16699 -73.5 10.5s-48.834 13.5 -72.501 24.5s-45.834 25.833 -66.501 44.5c-21.333 -18.667 -43.5 -33.334 -66.5 -44.001s-46.833 -18.834 -71.5 -24.501s-50 -9.16699 -76 -10.5s-53 -2 -81 -2zM604 1247v191h239v-191
h-239zM926 1247v191h239v-191h-239z" />
    <glyph glyph-name="uniFE98" unicode="&#x627;" horiz-adv-x="729" arabic-form="final" 
d="M-9 1l-0.000976562 184.003h24c44.667 0 80.334 5 107.001 15s48.667 26.667 66 50c18 25.333 29.833 53.666 35.5 84.999s8.83398 64.333 9.50098 99c-0.666992 4.66699 -1 9 -1 13v14h1v625h239v-625l5 -148c8 -28.667 20.667 -51.5 38 -68.5s37 -30 59 -39
s45.333 -14.833 70 -17.5s48 -4 70 -4h26v-184h-98c-23.333 0 -47.166 0.833008 -71.499 2.5s-48.833 5.16699 -73.5 10.5s-48.834 13.5 -72.501 24.5s-45.834 25.833 -66.501 44.5c-21.333 -18.667 -43.5 -33.334 -66.5 -44.001s-46.833 -18.834 -71.5 -24.501
s-50 -9.16699 -76 -10.5s-53 -2 -81 -2h-72zM67.999 1247v191h239v-191h-239zM389.999 1247v191h239v-191h-239z" />
    <glyph glyph-name="uniFE9B" unicode="&#x628;" horiz-adv-x="769" arabic-form="final" 
d="M-10 1l0.00195312 183.999h226c44.667 0 80.334 5 107.001 15s48.667 26.667 66 50c19.333 26 31.666 55.667 36.999 89s8 68 8 104v410h239v-482c0 -37.333 -2.83301 -70.666 -8.5 -99.999s-13.334 -55.333 -23.001 -78s-21 -42.5 -34 -59.5s-26.5 -31.833 -40.5 -44.5
c-22 -20 -44.833 -35.833 -68.5 -47.5s-48.167 -20.5 -73.5 -26.5s-51.333 -9.83301 -78 -11.5s-54.334 -2.5 -83.001 -2.5h-274zM79.002 966.999v191h239v-191h-239zM266.002 1247v191h239v-191h-239zM431.002 966.999v191h239v-191h-239z" />
    <glyph glyph-name="uniFE9C" unicode="&#x628;" horiz-adv-x="729" arabic-form="initial" 
d="M-9 1l-0.000976562 184.003h24c44.667 0 80.334 5 107.001 15s48.667 26.667 66 50c18 25.333 29.833 53.666 35.5 84.999s8.83398 64.333 9.50098 99c-0.666992 4.66699 -1 9 -1 13v14h1v394h239v-394l5 -148c8 -28.667 20.667 -51.5 38 -68.5s37 -30 59 -39
s45.333 -14.833 70 -17.5s48 -4 70 -4h26v-184h-98c-23.333 0 -47.166 0.833008 -71.499 2.5s-48.833 5.16699 -73.5 10.5s-48.834 13.5 -72.501 24.5s-45.834 25.833 -66.501 44.5c-21.333 -18.667 -43.5 -33.334 -66.5 -44.001s-46.833 -18.834 -71.5 -24.501
s-50 -9.16699 -76 -10.5s-53 -2 -81 -2h-72zM53.999 967.003v191h239v-191h-239zM240.999 1247v191h239v-191h-239zM405.999 967.003v191h239v-191h-239z" />
    <glyph glyph-name="uniFE9E" unicode="&#x628;" horiz-adv-x="1309" arabic-form="medial" 
d="M1062 184l257.003 0.00195312v-184l-749 -1c-24 0 -47.667 -1 -71 -3s-45.5 -5 -66.5 -9s-40.333 -9.16699 -58 -15.5s-32.5 -13.5 -44.5 -21.5c-16 -10.667 -29.167 -22.5 -39.5 -35.5s-17.166 -27.5 -20.499 -43.5c-2 -7.33301 -3 -14.666 -3 -21.999
c0 -10 1.33301 -20 4 -30c4.66699 -19.333 14.667 -40.333 30 -63c7.33301 -8 17 -14.5 29 -19.5s24.833 -9 38.5 -12s27.167 -5 40.5 -6s25 -1.5 35 -1.5h186v-184h-282c-18 0 -36.333 0.5 -55 1.5s-37.334 3.66699 -56.001 8s-36.834 10.666 -54.501 18.999
s-34.834 19.833 -51.501 34.5c-10 10 -20 22 -30 36s-19 30.667 -27 50s-14.5 41.833 -19.5 67.5s-7.5 54.5 -7.5 86.5c0 50 5.33301 90.167 16 120.5s23.667 53.833 39 70.5c24 32.667 52.5 59.167 85.5 79.5s68.167 36.333 105.5 48s76.166 19.667 116.499 24
s80.166 7.16602 119.499 8.49902h49c21.333 0 42 -0.333008 62 -1c35.333 -1.33301 67 -2 95 -2h87v458c0 16 -1.66699 32.833 -5 50.5s-12 34.834 -26 51.501c-16 20.667 -34.667 33.667 -56 39s-41.333 8 -60 8h-535v184h617c46 0 88.833 -7.5 128.5 -22.5
s71.834 -35.5 96.501 -61.5c23.333 -22.667 42.5 -55.334 57.5 -98.001s22.5 -95.334 22.5 -158.001v-451zM739.003 -466.998v184h224v-184h-224z" />
    <glyph glyph-name="uniFEA0" unicode="&#x629;" horiz-adv-x="1240" arabic-form="final" 
d="M-27 0l-0.000976562 184.001h772c7.33301 0 16 0.333008 26 1s19.333 4.66699 28 12c8 6.66699 12.667 13.667 14 21s2 15.333 2 24v510c0 16 -1.66699 32.833 -5 50.5s-12 34.834 -26 51.501c-16 20.667 -34.667 33.667 -56 39s-41.333 8 -60 8h-535v184h617
c46 0 88.833 -7.5 128.5 -22.5s71.834 -35.5 96.501 -61.5c23.333 -22.667 42.5 -55.334 57.5 -98.001s22.5 -95.334 22.5 -158.001v-561h195v-184h-1277zM450.999 -356.999v191h239v-191h-239z" />
    <glyph glyph-name="uniFEA3" unicode="&#x62a;" horiz-adv-x="1319" arabic-form="final" 
d="M-27 0l-0.000976562 184.001h772c7.33301 0 16 0.333008 26 1s19.333 4.66699 28 12c8 6.66699 12.667 13.667 14 21s2 15.333 2 24v510c0 16 -1.66699 32.833 -5 50.5s-12 34.834 -26 51.501c-16 20.667 -34.667 33.667 -56 39s-41.333 8 -60 8h-535v184h617
c46 0 88.833 -7.5 128.5 -22.5s71.834 -35.5 96.501 -61.5c23.333 -22.667 42.5 -55.334 57.5 -98.001s22.5 -95.334 22.5 -158.001v-561h160v-184h-1242z" />
    <glyph glyph-name="uniFEA4" unicode="&#x62a;" horiz-adv-x="1240" arabic-form="initial" 
d="M-27 0l-0.000976562 184.001h772c7.33301 0 16 0.333008 26 1s19.333 4.66699 28 12c8 6.66699 12.667 13.667 14 21s2 15.333 2 24v510c0 16 -1.66699 32.833 -5 50.5s-12 34.834 -26 51.501c-16 20.667 -34.667 33.667 -56 39s-41.333 8 -60 8h-535v184h617
c46 0 88.833 -7.5 128.5 -22.5s71.834 -35.5 96.501 -61.5c23.333 -22.667 42.5 -55.334 57.5 -98.001s22.5 -95.334 22.5 -158.001v-561h195v-184h-1277z" />
    <glyph glyph-name="uniFEA6" unicode="&#x62a;" horiz-adv-x="1309" arabic-form="medial" 
d="M1062 184l257.003 0.00195312v-184l-749 -1c-24 0 -47.667 -1 -71 -3s-45.5 -5 -66.5 -9s-40.333 -9.16699 -58 -15.5s-32.5 -13.5 -44.5 -21.5c-16 -10.667 -29.167 -22.5 -39.5 -35.5s-17.166 -27.5 -20.499 -43.5c-2 -7.33301 -3 -14.666 -3 -21.999
c0 -10 1.33301 -20 4 -30c4.66699 -19.333 14.667 -40.333 30 -63c7.33301 -8 17 -14.5 29 -19.5s24.833 -9 38.5 -12s27.167 -5 40.5 -6s25 -1.5 35 -1.5h741v-184h-837c-18 0 -36.333 0.5 -55 1.5s-37.334 3.66699 -56.001 8s-36.834 10.666 -54.501 18.999
s-34.834 19.833 -51.501 34.5c-10 10 -20 22 -30 36s-19 30.667 -27 50s-14.5 41.833 -19.5 67.5s-7.5 54.5 -7.5 86.5c0 50 5.33301 90.167 16 120.5s23.667 53.833 39 70.5c24 32.667 52.5 59.167 85.5 79.5s68.167 36.333 105.5 48s76.166 19.667 116.499 24
s80.166 7.16602 119.499 8.49902h49c21.333 0 42 -0.333008 62 -1c35.333 -1.33301 67 -2 95 -2h87v458c0 16 -1.66699 32.833 -5 50.5s-12 34.834 -26 51.501c-16 20.667 -34.667 33.667 -56 39s-41.333 8 -60 8h-535v184h617c46 0 88.833 -7.5 128.5 -22.5
s71.834 -35.5 96.501 -61.5c23.333 -22.667 42.5 -55.334 57.5 -98.001s22.5 -95.334 22.5 -158.001v-451zM351.003 1161v191h239v-191h-239z" />
    <glyph glyph-name="uniFEA8" unicode="&#x62b;" horiz-adv-x="1240" arabic-form="final" 
d="M-27 0l-0.000976562 184.001h772c7.33301 0 16 0.333008 26 1s19.333 4.66699 28 12c8 6.66699 12.667 13.667 14 21s2 15.333 2 24v510c0 16 -1.66699 32.833 -5 50.5s-12 34.834 -26 51.501c-16 20.667 -34.667 33.667 -56 39s-41.333 8 -60 8h-535v184h617
c46 0 88.833 -7.5 128.5 -22.5s71.834 -35.5 96.501 -61.5c23.333 -22.667 42.5 -55.334 57.5 -98.001s22.5 -95.334 22.5 -158.001v-561h195v-184h-1277zM376.999 1243v191h239v-191h-239z" />
    <glyph glyph-name="uniFEAA" unicode="&#x62b;" horiz-adv-x="1131" arabic-form="initial" 
d="M53 0l-0.00683594 184.003h389c24.667 0 50.167 1.16699 76.5 3.5s51.666 7.5 75.999 15.5s46.833 19.667 67.5 35s38 35.666 52 60.999c7.33301 14 13.333 30.667 18 50s8.16699 39.333 10.5 60s4 41 5 61s1.5 38 1.5 54c0 8.66699 -0.166992 21.5 -0.5 38.5
s-1.16602 35.333 -2.49902 55s-3.16602 39.5 -5.49902 59.5s-5.5 37.333 -9.5 52c-6.66699 22.667 -16.834 44.5 -30.501 65.5s-31.167 39.333 -52.5 55s-47.166 28.167 -77.499 37.5s-65.833 14 -106.5 14h-387v184h465c48.667 0 91.334 -4 128.001 -12
s68.334 -18 95.001 -30s48.834 -24.667 66.501 -38s31.834 -25.333 42.501 -36c30 -31.333 53.333 -65.833 70 -103.5s29 -76 37 -115s12.667 -77.667 14 -116s2 -73.833 2 -106.5c0 -33.333 -0.666992 -65.333 -2 -96s-4.16602 -60.334 -8.49902 -89.001
s-10.666 -56.334 -18.999 -83.001s-19.5 -52 -33.5 -76h207v-184h-1088z" />
    <glyph glyph-name="uniFEAC" unicode="&#x62b;" horiz-adv-x="1131" arabic-form="medial" 
d="M53 0l-0.00683594 184.003h389c24.667 0 50.167 1.16699 76.5 3.5s51.666 7.5 75.999 15.5s46.833 19.667 67.5 35s38 35.666 52 60.999c7.33301 14 13.333 30.667 18 50s8.16699 39.333 10.5 60s4 41 5 61s1.5 38 1.5 54c0 8.66699 -0.166992 21.5 -0.5 38.5
s-1.16602 35.333 -2.49902 55s-3.16602 39.5 -5.49902 59.5s-5.5 37.333 -9.5 52c-6.66699 22.667 -16.834 44.5 -30.501 65.5s-31.167 39.333 -52.5 55s-47.166 28.167 -77.499 37.5s-65.833 14 -106.5 14h-387v184h465c48.667 0 91.334 -4 128.001 -12
s68.334 -18 95.001 -30s48.834 -24.667 66.501 -38s31.834 -25.333 42.501 -36c30 -31.333 53.333 -65.833 70 -103.5s29 -76 37 -115s12.667 -77.667 14 -116s2 -73.833 2 -106.5c0 -33.333 -0.666992 -65.333 -2 -96s-4.16602 -60.334 -8.49902 -89.001
s-10.666 -56.334 -18.999 -83.001s-19.5 -52 -33.5 -76h207v-184h-1088zM247.993 1243v191h239v-191h-239z" />
    <glyph glyph-name="uniFEB0" unicode="&#x62c;" horiz-adv-x="769" arabic-form="final" 
d="M43 -180l37.001 0.00195312c17.333 0 33.333 0.333008 48 1c24 0.666992 45.167 2.83398 63.5 6.50098s34.666 8.66699 48.999 15s28.5 14.5 42.5 24.5s26.167 21 36.5 33s19 26.167 26 42.5s12.333 35.333 16 57s5.5 47.167 5.5 76.5v1009h239v-901h178v-184h-179
c-2 -43.333 -8.33301 -80.833 -19 -112.5s-23 -58.834 -37 -81.501s-28.5 -41.334 -43.5 -56.001s-27.833 -26.334 -38.5 -35.001c-44 -31.333 -100 -53.333 -168 -66c-52 -10 -114 -15 -186 -15c-22.667 0 -46 0.333008 -70 1v185zM367.001 1243v191h239v-191h-239z" />
    <glyph glyph-name="uniFEB2" unicode="&#x62c;" horiz-adv-x="2619" arabic-form="initial" 
d="M1191 -1c-6.66699 -39.333 -17.833 -75.499 -33.5 -108.499s-38.834 -63.167 -69.501 -90.5c-36.667 -32 -77.167 -53.667 -121.5 -65s-97.833 -17 -160.5 -17h-363c-62.667 0 -116.167 5.66699 -160.5 17s-84.833 33 -121.5 65c-22.667 20 -41.167 41.667 -55.5 65
s-25.666 48.166 -33.999 74.499s-14 54.5 -17 84.5s-4.5 61.667 -4.5 95v684h240v-641c0 -48 2.83301 -86.5 8.5 -115.5s16.167 -53.833 31.5 -74.5c22 -29.333 49 -48.333 81 -57s70 -13 114 -13h199c44 0 82 4.33301 114 13s59 27.667 81 57
c15.333 20.667 25.833 45.5 31.5 74.5s8.5 67.5 8.5 115.5v924h240v-903h414v901h240v-901h223c10.667 0 22.334 0.5 35 1.5c12.667 1 25.5 3.16699 38.5 6.5s25.667 8.33301 38 15s23.5 16 33.5 28c10 10.667 18 22.5 24 35.5s10.667 26.333 14 40s5.5 27.167 6.5 40.5
s1.5 26 1.5 38v696h239v-733c0 -61.333 -10.667 -117 -32 -167h155v-184z" />
    <glyph glyph-name="uniFEB3" unicode="&#x62c;" horiz-adv-x="1789" arabic-form="medial" 
d="M401 183h412.999v901h240v-901h223c10.667 0 22.334 0.5 35.001 1.5s25.5 3.16699 38.5 6.5s25.667 8.33301 38 15s23.5 16 33.5 28c10 10.667 18 22.5 24 35.5s10.667 26.333 14 40s5.5 27.167 6.5 40.5s1.5 26 1.5 38v696h239v-733
c0 -54.667 -8.33301 -105.167 -25 -151.5s-41 -84.5 -73 -114.5c-20 -18 -42 -32.667 -66 -44s-48.167 -20 -72.5 -26s-48.5 -10.167 -72.5 -12.5s-46 -3.5 -66 -3.5h-1347v184h176v901h240v-901z" />
    <glyph glyph-name="uniFEB6" unicode="&#x62d;" horiz-adv-x="2619" arabic-form="final" 
d="M1191 -1c-6.66699 -39.333 -17.833 -75.499 -33.5 -108.499s-38.834 -63.167 -69.501 -90.5c-36.667 -32 -77.167 -53.667 -121.5 -65s-97.833 -17 -160.5 -17h-363c-62.667 0 -116.167 5.66699 -160.5 17s-84.833 33 -121.5 65c-22.667 20 -41.167 41.667 -55.5 65
s-25.666 48.166 -33.999 74.499s-14 54.5 -17 84.5s-4.5 61.667 -4.5 95v684h240v-641c0 -48 2.83301 -86.5 8.5 -115.5s16.167 -53.833 31.5 -74.5c22 -29.333 49 -48.333 81 -57s70 -13 114 -13h199c44 0 82 4.33301 114 13s59 27.667 81 57
c15.333 20.667 25.833 45.5 31.5 74.5s8.5 67.5 8.5 115.5v924h240v-903h414v901h240v-901h223c10.667 0 22.334 0.5 35 1.5c12.667 1 25.5 3.16699 38.5 6.5s25.667 8.33301 38 15s23.5 16 33.5 28c10 10.667 18 22.5 24 35.5s10.667 26.333 14 40s5.5 27.167 6.5 40.5
s1.5 26 1.5 38v696h239v-733c0 -61.333 -10.667 -117 -32 -167h155v-184zM1284 1396v191h239v-191h-239zM1606 1396v191h239v-191h-239zM1931 1396v191h239v-191h-239z" />
    <glyph glyph-name="uniFEB7" unicode="&#x62d;" horiz-adv-x="1789" arabic-form="initial" 
d="M401 183h412.999v901h240v-901h223c10.667 0 22.334 0.5 35.001 1.5s25.5 3.16699 38.5 6.5s25.667 8.33301 38 15s23.5 16 33.5 28c10 10.667 18 22.5 24 35.5s10.667 26.333 14 40s5.5 27.167 6.5 40.5s1.5 26 1.5 38v696h239v-733
c0 -54.667 -8.33301 -105.167 -25 -151.5s-41 -84.5 -73 -114.5c-20 -18 -42 -32.667 -66 -44s-48.167 -20 -72.5 -26s-48.5 -10.167 -72.5 -12.5s-46 -3.5 -66 -3.5h-1347v184h176v901h240v-901zM445.999 1396v191h239v-191h-239zM767.999 1396v191h239v-191h-239z
M1093 1396v191h239v-191h-239z" />
    <glyph glyph-name="uniFEB8" unicode="&#x62d;" horiz-adv-x="1820" arabic-form="medial" 
d="M-15 -1l-0.000976562 184h176v901h240v-901h413v901h240v-901h223c10.667 0 22.334 0.5 35.001 1.5s25.5 3.16699 38.5 6.5s25.667 8.33301 38 15s23.5 16 33.5 28c10 10.667 18 22.5 24 35.5s10.667 26.333 14 40s5.5 27.167 6.5 40.5s1.5 26 1.5 38v696h239v-733
c0 -61.333 -10.667 -117 -32 -167h154v-184zM490.999 1396v191h239v-191h-239zM812.999 1396v191h239v-191h-239zM1138 1396v191h239v-191h-239z" />
    <glyph glyph-name="uniFEBB" unicode="&#x62e;" horiz-adv-x="1771" arabic-form="final" 
d="M416 942c17.333 24 38.166 44.1719 62.499 60.5049s50 29.833 77 40.5s54.333 18.834 82 24.501s53.5 9.83398 77.5 12.501s45.5 4.16699 64.5 4.5s33.167 0.5 42.5 0.5h467c29.333 0 60 -2 92 -6s63.5 -12 94.5 -24s61 -29.167 90 -51.5s55.167 -51.833 78.5 -88.5
c18.667 -30.667 33.167 -62.167 43.5 -94.5s17.833 -64.833 22.5 -97.5s7.33398 -65.334 8.00098 -98.001s1 -64.334 1 -95.001c0 -36.667 -0.833008 -71.834 -2.5 -105.501s-5.5 -66.334 -11.5 -98.001s-15 -62.334 -27 -92.001s-28.333 -58.834 -49 -87.501
c-26 -35.333 -53.833 -62.833 -83.5 -82.5s-59.667 -34.334 -90 -44.001s-60.5 -15.5 -90.5 -17.5s-58 -3 -84 -3h-1291v184h187v902h240zM749 901.005c-95.333 -3.33301 -171.498 -32.668 -228.498 -88.001s-92.167 -134.333 -105.5 -237l-1 -392h773
c32.667 0 61.667 1.66699 87 5s47.833 8.83301 67.5 16.5s36.667 17.667 51 30s26.5 27.5 36.5 45.5c20.667 34 33 72.167 37 114.5s6 86.5 6 132.5c0 69.333 -3.5 127.333 -10.5 174s-20.833 84.334 -41.5 113.001c-14.667 20 -31.667 35.667 -51 47s-39.333 20 -60 26
s-41.334 9.66699 -62.001 11s-39.334 2 -56.001 2h-442z" />
    <glyph glyph-name="uniFEBC" unicode="&#x62e;" horiz-adv-x="1806" arabic-form="initial" 
d="M-10 0l0.00195312 183.998h187v902h240l-1 -144c17.333 24 38.166 44.167 62.499 60.5s50 29.833 77 40.5s54.333 18.834 82 24.501s53.5 9.83398 77.5 12.501s45.5 4.16699 64.5 4.5s33.167 0.5 42.5 0.5h467c29.333 0 60 -2 92 -6s63.5 -12 94.5 -24
s61 -29.167 90 -51.5s55.167 -51.833 78.5 -88.5c18.667 -30.667 33.167 -62.167 43.5 -94.5s17.833 -64.833 22.5 -97.5s7.33398 -65.334 8.00098 -98.001s1 -64.334 1 -95.001c0 -33.333 -0.666992 -65.166 -2 -95.499s-4.33301 -59.666 -9 -87.999
s-11.334 -56 -20.001 -83s-20.334 -53.5 -35.001 -79.5h162v-184h-1825zM749.002 900.998c-95.333 -3.33301 -171.498 -32.668 -228.498 -88.001s-92.167 -134.333 -105.5 -237l-1 -392h773c32.667 0 61.667 1.66699 87 5s47.833 8.83301 67.5 16.5s36.667 17.667 51 30
s26.5 27.5 36.5 45.5c20.667 34 33 72.167 37 114.5s6 86.5 6 132.5c0 69.333 -3.5 127.333 -10.5 174s-20.833 84.334 -41.5 113.001c-14.667 20 -31.667 35.667 -51 47s-39.333 20 -60 26s-41.334 9.66699 -62.001 11s-39.334 2 -56.001 2h-442z" />
    <glyph glyph-name="uniFEBE" unicode="&#x62e;" horiz-adv-x="2604" arabic-form="medial" 
d="M1201 0c-6 -40 -16.833 -76.334 -32.5 -109.001s-39.167 -63 -70.5 -91c-36.667 -32 -77.167 -53.667 -121.5 -65s-97.833 -17 -160.5 -17h-363c-62.667 0 -116.167 5.66699 -160.5 17s-84.833 33 -121.5 65c-22.667 20 -41.167 41.667 -55.5 65
s-25.666 48.166 -33.999 74.499s-14 54.5 -17 84.5s-4.5 61.667 -4.5 95v684h240v-641c0 -48 2.83301 -86.5 8.5 -115.5s16.167 -53.833 31.5 -74.5c22 -29.333 49 -48.333 81 -57s70 -13 114 -13h199c44 0 82 4.33301 114 13s59 27.667 81 57
c15.333 20.667 25.833 45.5 31.5 74.5s8.5 67.5 8.5 115.5l-3 924h240l-1 -144c17.333 24 38.166 44.167 62.499 60.5s50 29.833 77 40.5s54.333 18.834 82 24.501s53.5 9.83398 77.5 12.501s45.5 4.16699 64.5 4.5s33.167 0.5 42.5 0.5h467c29.333 0 60 -2 92 -6
s63.5 -12 94.5 -24s61 -29.167 90 -51.5s55.167 -51.833 78.5 -88.5c18.667 -30.667 33.167 -62.167 43.5 -94.5s17.833 -64.833 22.5 -97.5s7.33398 -65.334 8 -98.001c0.666992 -32.667 1 -64.334 1 -95.001c0 -33.333 -0.666992 -65.166 -2 -95.499
s-4.33301 -59.666 -9 -87.999s-11.334 -56 -20 -83c-8.66699 -27 -20.334 -53.5 -35 -79.5h172v-184h-1413zM1538 900.999c-95.333 -3.33301 -171.498 -32.668 -228.498 -88.001s-92.167 -134.333 -105.5 -237l2 -392h770c32.667 0 61.667 1.66699 87 5
s47.833 8.83301 67.5 16.5s36.667 17.667 51 30s26.5 27.5 36.5 45.5c20.667 34 33 72.167 37 114.5s6 86.5 6 132.5c0 69.333 -3.5 127.333 -10.5 174s-20.833 84.334 -41.5 113.001c-14.667 20 -31.667 35.667 -51 47s-39.333 20 -60 26s-41.334 9.66699 -62.001 11
s-39.334 2 -56.001 2h-442zM1482 1243v191h239v-191h-239z" />
    <glyph glyph-name="uniFEC0" unicode="&#x62f;" horiz-adv-x="1806" arabic-form="final" 
d="M-10 0l0.00195312 183.998h187v902h240l-1 -144c17.333 24 38.166 44.167 62.499 60.5s50 29.833 77 40.5s54.333 18.834 82 24.501s53.5 9.83398 77.5 12.501s45.5 4.16699 64.5 4.5s33.167 0.5 42.5 0.5h467c29.333 0 60 -2 92 -6s63.5 -12 94.5 -24
s61 -29.167 90 -51.5s55.167 -51.833 78.5 -88.5c18.667 -30.667 33.167 -62.167 43.5 -94.5s17.833 -64.833 22.5 -97.5s7.33398 -65.334 8.00098 -98.001s1 -64.334 1 -95.001c0 -33.333 -0.666992 -65.166 -2 -95.499s-4.33301 -59.666 -9 -87.999
s-11.334 -56 -20.001 -83s-20.334 -53.5 -35.001 -79.5h162v-184h-1825zM749.002 900.998c-95.333 -3.33301 -171.498 -32.668 -228.498 -88.001s-92.167 -134.333 -105.5 -237l-1 -392h773c32.667 0 61.667 1.66699 87 5s47.833 8.83301 67.5 16.5s36.667 17.667 51 30
s26.5 27.5 36.5 45.5c20.667 34 33 72.167 37 114.5s6 86.5 6 132.5c0 69.333 -3.5 127.333 -10.5 174s-20.833 84.334 -41.5 113.001c-14.667 20 -31.667 35.667 -51 47s-39.333 20 -60 26s-41.334 9.66699 -62.001 11s-39.334 2 -56.001 2h-442zM769.004 1243v191h239
v-191h-239z" />
    <glyph glyph-name="uniFEC3" unicode="&#x630;" horiz-adv-x="1771" arabic-form="final" 
d="M416 942c17.333 24 38.166 44.1719 62.499 60.5049s50 29.833 77 40.5s54.333 18.834 82 24.501s53.5 9.83398 77.5 12.501s45.5 4.16699 64.5 4.5s33.167 0.5 42.5 0.5h467c29.333 0 60 -2 92 -6s63.5 -12 94.5 -24s61 -29.167 90 -51.5s55.167 -51.833 78.5 -88.5
c18.667 -30.667 33.167 -62.167 43.5 -94.5s17.833 -64.833 22.5 -97.5s7.33398 -65.334 8.00098 -98.001s1 -64.334 1 -95.001c0 -36.667 -0.833008 -71.834 -2.5 -105.501s-5.5 -66.334 -11.5 -98.001s-15 -62.334 -27 -92.001s-28.333 -58.834 -49 -87.501
c-26 -35.333 -53.833 -62.833 -83.5 -82.5s-59.667 -34.334 -90 -44.001s-60.5 -15.5 -90.5 -17.5s-58 -3 -84 -3h-1291v184h187v1250h240zM749 901.005c-95.333 -3.33301 -171.498 -32.668 -228.498 -88.001s-92.167 -134.333 -105.5 -237l-1 -392h773
c32.667 0 61.667 1.66699 87 5s47.833 8.83301 67.5 16.5s36.667 17.667 51 30s26.5 27.5 36.5 45.5c20.667 34 33 72.167 37 114.5s6 86.5 6 132.5c0 69.333 -3.5 127.333 -10.5 174s-20.833 84.334 -41.5 113.001c-14.667 20 -31.667 35.667 -51 47s-39.333 20 -60 26
s-41.334 9.66699 -62.001 11s-39.334 2 -56.001 2h-442z" />
    <glyph glyph-name="uniFEC6" unicode="&#x631;" horiz-adv-x="1915" arabic-form="final" 
d="M119 0l0.00195312 183.998h152v1250h240l-1 -492c17.333 24 38.166 44.167 62.499 60.5s50 29.833 77 40.5s54.333 18.834 82 24.501s53.5 9.83398 77.5 12.501s45.5 4.16699 64.5 4.5s33.167 0.5 42.5 0.5h467c29.333 0 60 -2 92 -6s63.5 -12 94.5 -24
s61 -29.167 90 -51.5s55.167 -51.833 78.5 -88.5c18.667 -30.667 33.167 -62.167 43.5 -94.5s17.833 -64.833 22.5 -97.5s7.33398 -65.334 8.00098 -98.001s1 -64.334 1 -95.001c0 -33.333 -0.666992 -65.166 -2 -95.499s-4.33301 -59.666 -9 -87.999
s-11.334 -56 -20.001 -83s-20.334 -53.5 -35.001 -79.5h178v-184h-1806zM843.002 900.998c-95.333 -3.33301 -171.498 -32.668 -228.498 -88.001s-92.167 -134.333 -105.5 -237l-1 -392h773c32.667 0 61.667 1.66699 87 5s47.833 8.83301 67.5 16.5s36.667 17.667 51 30
s26.5 27.5 36.5 45.5c20.667 34 33 72.167 37 114.5s6 86.5 6 132.5c0 69.333 -3.5 127.333 -10.5 174s-20.833 84.334 -41.5 113.001c-14.667 20 -31.667 35.667 -51 47s-39.333 20 -60 26s-41.334 9.66699 -62.001 11s-39.334 2 -56.001 2h-442zM842.004 1243v191h239
v-191h-239z" />
    <glyph glyph-name="uniFEC8" unicode="&#x632;" horiz-adv-x="1815" arabic-form="final" 
d="M-10 0l0.00195312 183.998h187v1250h240l-1 -492c17.333 24 38.166 44.167 62.499 60.5s50 29.833 77 40.5s54.333 18.834 82 24.501s53.5 9.83398 77.5 12.501s45.5 4.16699 64.5 4.5s33.167 0.5 42.5 0.5h467c29.333 0 60 -2 92 -6s63.5 -12 94.5 -24
s61 -29.167 90 -51.5s55.167 -51.833 78.5 -88.5c18.667 -30.667 33.167 -62.167 43.5 -94.5s17.833 -64.833 22.5 -97.5s7.33398 -65.334 8.00098 -98.001s1 -64.334 1 -95.001c0 -33.333 -0.666992 -65.166 -2 -95.499s-4.33301 -59.666 -9 -87.999
s-11.334 -56 -20.001 -83s-20.334 -53.5 -35.001 -79.5h172v-184h-1835zM749.002 900.998c-95.333 -3.33301 -171.498 -32.668 -228.498 -88.001s-92.167 -134.333 -105.5 -237l-1 -392h773c32.667 0 61.667 1.66699 87 5s47.833 8.83301 67.5 16.5s36.667 17.667 51 30
s26.5 27.5 36.5 45.5c20.667 34 33 72.167 37 114.5s6 86.5 6 132.5c0 69.333 -3.5 127.333 -10.5 174s-20.833 84.334 -41.5 113.001c-14.667 20 -31.667 35.667 -51 47s-39.333 20 -60 26s-41.334 9.66699 -62.001 11s-39.334 2 -56.001 2h-442zM804.004 1243v191h239
v-191h-239z" />
    <glyph glyph-name="uniFECB" unicode="&#x633;" horiz-adv-x="1115" arabic-form="final" 
d="M-15 184l194.992 -0.00292969c-14 24 -25.167 49.333 -33.5 76s-14.666 54.334 -18.999 83.001s-7.16602 58.334 -8.49902 89.001s-2 62.667 -2 96c0 32.667 0.666992 68.167 2 106.5s6 77 14 116s20.333 77.333 37 115s40 72.167 70 103.5
c10.667 10.667 24.834 22.667 42.501 36s39.834 26 66.501 38s58.334 22 95.001 30s79.334 12 128.001 12h465v-184h-387c-40.667 0 -76.167 -4.66699 -106.5 -14s-56.166 -21.833 -77.499 -37.5s-38.833 -34 -52.5 -55s-23.834 -42.833 -30.501 -65.5
c-4 -14.667 -7.16699 -32 -9.5 -52s-4.16602 -39.833 -5.49902 -59.5s-2.16602 -38 -2.49902 -55s-0.5 -29.833 -0.5 -38.5c0 -16 0.5 -34 1.5 -54s2.66699 -40.333 5 -61s5.83301 -40.667 10.5 -60s10.667 -36 18 -50c14 -25.333 31.333 -45.666 52 -60.999
s43.167 -27 67.5 -35s49.5 -13.167 75.5 -15.5s51.667 -3.5 77 -3.5h389v-184h-1076v184z" />
    <glyph glyph-name="uniFECC" unicode="&#x633;" horiz-adv-x="1225" arabic-form="initial" 
d="M870 1088c14.667 0 30.6709 -0.833008 48.0039 -2.5s35.166 -5 53.499 -10s36.666 -12.333 54.999 -22s35.833 -22.5 52.5 -38.5c17.333 -17.333 31 -36.166 41 -56.499s17.5 -41.5 22.5 -63.5s8.16699 -44.667 9.5 -68c0.666992 -15.333 1 -30.666 1 -45.999v-23
c-1.33301 -63.333 -9.33301 -121.833 -24 -175.5s-33.5 -103.667 -56.5 -150s-48.667 -89.833 -77 -130.5l-84.5 -118h324v-184h-1250v184h314l-84.5 118c-28.333 40.667 -54 84.167 -77 130.5s-41.833 96.333 -56.5 150s-22.667 112.167 -24 175.5v23
c0 15.333 0.333008 30.666 1 45.999c1.33301 23.333 4.5 46 9.5 68s12.5 43.167 22.5 63.5s23.667 39.166 41 56.499c16.667 16 34.167 28.833 52.5 38.5s36.666 17 54.999 22s36.166 8.33301 53.499 10s33.333 2.5 48 2.5h530zM308.004 689
c2.66699 -24.667 9.83203 -51.668 21.499 -81.001s26 -59.666 43 -90.999s36 -63 57 -95l62.5 -92l60 -81.5l49 -64.5h7l49 64.5l60.5 81.5c21 29.333 41.833 60 62.5 92s39.667 63.667 57 95s31.833 61.833 43.5 91.5s18.834 56.5 21.501 80.5
c1.33301 15.333 2.33301 31.666 3 48.999v50c-1.33301 15.333 -3.33301 29.333 -6 42s-6.33398 22 -11.001 28c-24 29.333 -66 44 -126 44h-314c-60 0 -102 -14.667 -126 -44c-5.33301 -6 -9.16602 -15.333 -11.499 -28s-3.83301 -26.667 -4.5 -42
c-0.666992 -10 -1 -20 -1 -30v-20c0.666992 -17.333 1.66699 -33.666 3 -48.999z" />
    <glyph glyph-name="uniFECE" unicode="&#x633;" horiz-adv-x="1309" arabic-form="medial" 
d="M361 -467c-18 0 -36.3213 0.50293 -54.9883 1.50293s-37.334 3.66699 -56.001 8s-36.834 10.666 -54.501 18.999s-34.834 19.833 -51.501 34.5c-10 10 -20 22 -30 36s-19 30.667 -27 50s-14.5 41.833 -19.5 67.5s-7.5 54.5 -7.5 86.5c0 50 5.33301 90.167 16 120.5
s23.667 53.833 39 70.5c14 20 30.167 37.333 48.5 52s37.666 27.5 57.999 38.5s41.166 20.167 62.499 27.5s41.666 13.666 60.999 18.999c8.66699 1.33301 16.667 2.33301 24 3l22 2l-34.5 48.5l-33 47l-28.5 41.5c-8.66699 12.667 -15.334 23.334 -20.001 32.001
c-18 28.667 -35 58.667 -51 90s-30 64.166 -42 98.499s-21.667 70.666 -29 108.999s-11.333 79.166 -12 122.499v23c0 15.333 0.333008 30.666 1 45.999c1.33301 23.333 4.5 46 9.5 68s12.5 43.167 22.5 63.5s23.667 39.166 41 56.499c16.667 16 34.167 28.833 52.5 38.5
s36.666 17 54.999 22s36.166 8.33301 53.499 10s33.333 2.5 48 2.5h530c14.667 0 30.667 -0.833008 48 -2.5s35.166 -5 53.499 -10s36.666 -12.333 54.999 -22s35.833 -22.5 52.5 -38.5c17.333 -17.333 31 -36.166 41 -56.499s17.5 -41.5 22.5 -63.5
s8.16699 -44.667 9.5 -68c0.666992 -15.333 1 -30.666 1 -45.999v-23c-1.33301 -63.333 -9.33301 -121.833 -24 -175.5s-33.5 -103.667 -56.5 -150s-48.667 -89.833 -77 -130.5l-84.5 -118h324v-184h-521l-215 -1c-20 -0.666992 -42.167 -1.5 -66.5 -2.5
s-47.666 -2.5 -69.999 -4.5s-42 -4.66699 -59 -8s-28.5 -7 -34.5 -11c-20.667 -15.333 -33.334 -32.333 -38.001 -51s-7 -37.667 -7 -57c0 -32 3.83301 -57.167 11.5 -75.5s16.167 -32.166 25.5 -41.499c15.333 -15.333 32.666 -24.333 51.999 -27s39.333 -4 60 -4h741v-184
h-837zM392.012 689.003c2.66699 -24.667 9.83203 -51.668 21.499 -81.001s26 -59.666 43 -90.999s36 -63 57 -95l62.5 -92l60 -81.5l49 -64.5h7l49 64.5l60.5 81.5c21 29.333 41.833 60 62.5 92s39.667 63.667 57 95s31.833 61.833 43.5 91.5s18.834 56.5 21.501 80.5
c1.33301 15.333 2.33301 31.666 3 48.999v50c-1.33301 15.333 -3.33301 29.333 -6 42s-6.33398 22 -11.001 28c-24 29.333 -66 44 -126 44h-314c-60 0 -102 -14.667 -126 -44c-5.33301 -6 -9.16602 -15.333 -11.499 -28s-3.83301 -26.667 -4.5 -42
c-0.666992 -10 -1 -20 -1 -30v-20c0.666992 -17.333 1.66699 -33.666 3 -48.999zM541.01 1243v191h239v-191h-239z" />
    <glyph glyph-name="uniFED0" unicode="&#x634;" horiz-adv-x="1225" arabic-form="final" 
d="M870 1088c14.667 0 30.6709 -0.833008 48.0039 -2.5s35.166 -5 53.499 -10s36.666 -12.333 54.999 -22s35.833 -22.5 52.5 -38.5c17.333 -17.333 31 -36.166 41 -56.499s17.5 -41.5 22.5 -63.5s8.16699 -44.667 9.5 -68c0.666992 -15.333 1 -30.666 1 -45.999v-23
c-1.33301 -63.333 -9.33301 -121.833 -24 -175.5s-33.5 -103.667 -56.5 -150s-48.667 -89.833 -77 -130.5l-84.5 -118h324v-184h-1250v184h314l-84.5 118c-28.333 40.667 -54 84.167 -77 130.5s-41.833 96.333 -56.5 150s-22.667 112.167 -24 175.5v23
c0 15.333 0.333008 30.666 1 45.999c1.33301 23.333 4.5 46 9.5 68s12.5 43.167 22.5 63.5s23.667 39.166 41 56.499c16.667 16 34.167 28.833 52.5 38.5s36.666 17 54.999 22s36.166 8.33301 53.499 10s33.333 2.5 48 2.5h530zM308.004 689
c2.66699 -24.667 9.83203 -51.668 21.499 -81.001s26 -59.666 43 -90.999s36 -63 57 -95l62.5 -92l60 -81.5l49 -64.5h7l49 64.5l60.5 81.5c21 29.333 41.833 60 62.5 92s39.667 63.667 57 95s31.833 61.833 43.5 91.5s18.834 56.5 21.501 80.5
c1.33301 15.333 2.33301 31.666 3 48.999v50c-1.33301 15.333 -3.33301 29.333 -6 42s-6.33398 22 -11.001 28c-24 29.333 -66 44 -126 44h-314c-60 0 -102 -14.667 -126 -44c-5.33301 -6 -9.16602 -15.333 -11.499 -28s-3.83301 -26.667 -4.5 -42
c-0.666992 -10 -1 -20 -1 -30v-20c0.666992 -17.333 1.66699 -33.666 3 -48.999zM461.002 1243v191h239v-191h-239z" />
    <glyph glyph-name="uniFED2" unicode="&#x634;" horiz-adv-x="1801" arabic-form="initial" 
d="M1692 184l118 -0.00195312v-184h-1333c-25.333 0 -52.833 1 -82.5 3s-59.834 7.83301 -90.501 17.5s-61.167 24.334 -91.5 44.001s-58.5 47.167 -84.5 82.5c-20 26.667 -36 55.167 -48 85.5s-21 61.833 -27 94.5s-9.83301 66.167 -11.5 100.5s-2.5 68.833 -2.5 103.5v319
h248l-1 -324c0 -46 2 -90 6 -132s16.333 -79.667 37 -113c10 -18 22.167 -33.167 36.5 -45.5s31.166 -22.333 50.499 -30s41.833 -13.167 67.5 -16.5s54.834 -5 87.501 -5h141c-39.333 88 -59 213 -59 375c0 85.333 7 161.666 21 228.999
c15.333 68 46.666 127.667 93.999 179c25.333 28 51.833 50 79.5 66s55.834 27.833 84.501 35.5s57.334 12.334 86.001 14.001s56.667 2.5 84 2.5h350c32 0 62.833 -2 92.5 -6s57.5 -16.333 83.5 -37c28 -24 45.333 -50 52 -78c8 -29.333 12 -55.666 12 -78.999v-701z
M1058 191.998c18.667 -2.66699 37.1689 -4.66699 55.502 -6s36.166 -2 53.499 -2h285v631c0 15.333 -1.66699 28.333 -5 39s-12 21 -26 31c-10.667 6.66699 -21.167 11 -31.5 13s-20.833 3 -31.5 3h-205c-40 0 -76.333 -5.83301 -109 -17.5s-58.334 -28.167 -77.001 -49.5
c-16.667 -19.333 -29.5 -43 -38.5 -71s-15.5 -56.333 -19.5 -85s-6.33301 -55.5 -7 -80.5s-1 -43.833 -1 -56.5c0 -48 2 -89 6 -123s9 -62.5 15 -85.5s12.5 -41.167 19.5 -54.5s13.833 -23.333 20.5 -30c27.333 -31.333 59.333 -50 96 -56zM1080 1243v191h239v-191h-239z
" />
    <glyph glyph-name="uniFED3" unicode="&#x634;" horiz-adv-x="1215" arabic-form="medial" 
d="M-9 0l0.000976562 183.998h190c-39.333 88 -59 213 -59 375c0 85.333 7 161.666 21 228.999c15.333 68 46.666 127.667 93.999 179c25.333 28 51.833 50 79.5 66s55.834 27.833 84.501 35.5s57.334 12.334 86.001 14.001s56.667 2.5 84 2.5h350c32 0 62.833 -2 92.5 -6
s57.5 -16.333 83.5 -37c28 -24 45.333 -50 52 -78c8 -29.333 12 -55.666 12 -78.999v-514c0 -37.333 -2.83301 -70.666 -8.5 -99.999s-13.334 -55.333 -23.001 -78s-21 -42.5 -34 -59.5s-26.5 -31.833 -40.5 -44.5c-22 -20 -44.833 -35.833 -68.5 -47.5
s-48.167 -20.5 -73.5 -26.5s-51.333 -9.83301 -78 -11.5s-54.334 -2.5 -83.001 -2.5zM527.001 191.998c18.667 -2.66699 37.1699 -4.66797 55.5029 -6.00098s36.166 -2 53.499 -2l68 1c44.667 0 80.334 5 107.001 15s48.667 26.667 66 50
c15.333 20.667 26.166 43.834 32.499 69.501s10.166 52.5 11.499 80.5v415c0 15.333 -1.66699 28.333 -5 39s-12 21 -26 31c-10.667 6.66699 -21.167 11 -31.5 13s-20.833 3 -31.5 3h-205c-40 0 -76.333 -5.83301 -109 -17.5s-58.334 -28.167 -77.001 -49.5
c-16.667 -19.333 -29.5 -43 -38.5 -71s-15.5 -56.333 -19.5 -85s-6.33301 -55.5 -7 -80.5s-1 -43.833 -1 -56.5c0 -48 2 -89 6 -123s9 -62.5 15 -85.5s12.5 -41.167 19.5 -54.5s13.833 -23.333 20.5 -30c27.333 -31.333 59.333 -50 96 -56zM560.004 1243v191h239v-191h-239z
" />
    <glyph glyph-name="uniFED6" unicode="&#x635;" horiz-adv-x="1523" arabic-form="final" 
d="M555 -358c-74 0 -139.829 10.502 -197.496 31.502s-107.167 48.667 -148.5 83s-74.5 73.166 -99.5 116.499s-41.833 87.333 -50.5 132l179 89c3.33301 -24.667 13 -52.5 29 -83.5s38.667 -60.167 68 -87.5s66 -50.333 110 -69s96 -28 156 -28h297
c13.333 0 28.166 0.5 44.499 1.5s34.166 2.83301 53.499 5.5c38.667 4.66699 72.667 18.667 102 42c35.333 30.667 56.666 72.334 63.999 125.001h-385c-27.333 0 -56 1.16699 -86 3.5s-59.5 8.16602 -88.5 17.499s-56.667 23.166 -83 41.499s-49.833 43.833 -70.5 76.5
c-56 86.667 -84 226.667 -84 420c0 85.333 7 161.666 21 228.999c15.333 68 46.666 127.667 93.999 179c25.333 28 51.833 50 79.5 66s55.834 27.833 84.501 35.5s57.334 12.334 86.001 14.001s56.667 2.5 84 2.5h350c32 0 62.833 -2 92.5 -6s57.5 -16.333 83.5 -37
c28 -24 45.333 -50 52 -78c8 -29.333 12 -55.666 12 -78.999v-701h129v-184h-135c-4.66699 -44.667 -13.334 -86 -26.001 -124s-31.334 -72.333 -56.001 -103c-25.333 -30 -54.833 -53.667 -88.5 -71s-67.667 -30.333 -102 -39s-66.833 -14.334 -97.5 -17.001
s-55.667 -4 -75 -4h-398zM1164 815.002c0 15.333 -1.66504 28.333 -4.99805 39s-12 21 -26 31c-10.667 6.66699 -21.167 11 -31.5 13s-20.833 3 -31.5 3h-205c-40 0 -76.333 -5.83301 -109 -17.5s-58.334 -28.167 -77.001 -49.5c-16.667 -19.333 -29.5 -43 -38.5 -71
s-15.5 -56.333 -19.5 -85s-6.33301 -55.5 -7 -80.5s-1 -43.833 -1 -56.5c0 -48 2 -89 6 -123s9 -62.5 15 -85.5s12.5 -41.167 19.5 -54.5s13.833 -23.333 20.5 -30c27.333 -31.333 59.333 -50 96 -56c18.667 -2.66699 37.167 -4.66699 55.5 -6s36.166 -2 53.499 -2h285v631z
M604.006 1247v191h239v-191h-239zM926.006 1247v191h239v-191h-239z" />
    <glyph glyph-name="uniFED7" unicode="&#x635;" horiz-adv-x="1168" arabic-form="initial" 
d="M886 1237c32 0 62.8359 -2.00195 92.5029 -6.00195s57.5 -16.333 83.5 -37c28 -24 45.333 -50 52 -78c8 -29.333 12 -55.666 12 -78.999v-556c0 -70 -5.83301 -135 -17.5 -195s-35.167 -111.667 -70.5 -155c-25.333 -30 -54.833 -53.667 -88.5 -71
s-67.667 -30.333 -102 -39s-66.833 -14.334 -97.5 -17.001s-55.667 -4 -75 -4h-686v184h631c13.333 0 28.166 0.5 44.499 1.5s34.166 2.83301 53.499 5.5c38.667 4.66699 72.667 18.667 102 42c35.333 30.667 56.666 72.334 63.999 125.001l-406 1
c-27.333 0 -56.666 1.83301 -87.999 5.5s-62.166 11 -92.499 22s-59.333 26.333 -87 46s-51.834 45.834 -72.501 78.501c-8.66699 12 -16.834 31.5 -24.501 58.5s-13.667 58.167 -18 93.5s-6.5 73.333 -6.5 114c0 41.333 3.33301 81.833 10 121.5s17.167 77.167 31.5 112.5
s33.5 65.333 57.5 90c27.333 32 56.833 57 88.5 75s64 31.167 97 39.5s65.5 13.333 97.5 15s61.667 2.5 89 2.5zM886.003 966.998c0 15.333 -1.66895 28.3311 -5.00195 38.998s-12 21 -26 31c-10.667 6.66699 -21.167 11 -31.5 13s-20.833 3 -31.5 3l-233 -3
c-40 0 -76.333 -6 -109 -18s-58.334 -28.667 -77.001 -50c-12 -13.333 -21.667 -31.666 -29 -54.999s-12.666 -48.666 -15.999 -75.999c-4 -25.333 -6 -51 -6 -77c0 -2 0.333008 -4.33301 1 -7c0 -28.667 1.83301 -55.167 5.5 -79.5s9.33398 -45 17.001 -62
s16.834 -27.167 27.501 -30.5c12.667 -12 24.834 -21.333 36.501 -28s25 -11.5 40 -14.5s32.667 -5.16699 53 -6.5s46.166 -2.33301 77.499 -3l306 -1v425zM353.001 1396v191h239v-191h-239zM675.001 1396v191h239v-191h-239z" />
    <glyph glyph-name="uniFED8" unicode="&#x635;" horiz-adv-x="1320" arabic-form="medial" 
d="M-10 184l175.001 -0.000976562c-19.333 28.667 -34.333 59 -45 91s-18.834 63.667 -24.501 95s-9.16699 61.5 -10.5 90.5s-2 55.167 -2 78.5c0 30 1.33301 64.667 4 104s8.83398 79.333 18.501 120s23.667 80.334 42 119.001s43.5 72.334 75.5 101.001
c30 28 63.5 49.667 100.5 65s75 26.666 114 33.999s77.833 11.833 116.5 13.5s74.334 2.5 107.001 2.5s68.167 -0.833008 106.5 -2.5s77 -6.16699 116 -13.5s77.167 -18.666 114.5 -33.999s71 -37 101 -65c32 -28.667 57.167 -62.334 75.5 -101.001
s32.166 -78.167 41.499 -118.5s15.333 -79.5 18 -117.5s4 -71 4 -99c0 -86.667 -7.83301 -159.167 -23.5 -217.5s-35.834 -106.833 -60.501 -145.5h176v-184h-1340v184zM331.001 540.999c0 -22.667 0.331055 -45.4961 0.998047 -68.4961s3.33398 -45.833 8.00098 -68.5
s11.5 -45 20.5 -67s22.167 -43 39.5 -63c16 -18.667 33.667 -33.834 53 -45.501s39.333 -20.667 60 -27s41.834 -10.833 63.501 -13.5s42.834 -4 63.501 -4h20c22.667 0 45.5 1 68.5 3s45.5 6 67.5 12s43.333 15 64 27s40 28 58 48s32 40.667 42 62
s17.167 43.166 21.5 65.499s7 45.166 8 68.499s1.5 47 1.5 71v65c0 18 -1 36.833 -3 56.5s-5.66699 39.334 -11 59.001s-12.5 38.5 -21.5 56.5s-20.5 34.333 -34.5 49c-18 19.333 -37.5 34.666 -58.5 45.999s-42.833 20 -65.5 26s-45.5 9.83301 -68.5 11.5
s-45.5 2.5 -67.5 2.5c-19.333 0 -40.833 -0.833008 -64.5 -2.5s-47.334 -5.5 -71.001 -11.5s-46.5 -14.667 -68.5 -26s-41.333 -26.666 -58 -45.999c-17.333 -19.333 -30.5 -41.833 -39.5 -67.5s-15.667 -51.834 -20 -78.501s-6.83301 -52.334 -7.5 -77.001
s-1 -45.667 -1 -63zM380.999 1247v191h239v-191h-239zM702.999 1247v191h239v-191h-239z" />
    <glyph glyph-name="uniFEDB" unicode="&#x636;" horiz-adv-x="1493" arabic-form="final" 
d="M311 928l-0.000976562 -8.99512c0 -30 9.33301 -56.667 28 -80c20 -26 54.667 -42.667 104 -50h703c54.667 0 100.834 -8.5 138.501 -25.5s68.334 -41.833 92.001 -74.5s40.834 -73.167 51.501 -121.5s17 -103.5 19 -165.5c0 -1.33301 -0.166992 -2.33301 -0.5 -3
s-0.5 -1.33398 -0.5 -2.00098v-50c-1.33301 -62 -7.5 -115 -18.5 -159s-28.167 -80 -51.5 -108s-53.833 -48.333 -91.5 -61s-83.834 -19 -138.501 -19h-1161v184h1065c30 0 54.333 5.5 73 16.5s33.5 26.167 44.5 45.5s18.5 41.833 22.5 67.5s6.66699 53.5 8 83.5
c-1.33301 30 -4 57.667 -8 83s-11.5 47.166 -22.5 65.499s-25.833 32.833 -44.5 43.5s-43 16 -73 16h-607c-70 0 -127.5 9.83301 -172.5 29.5s-80.5 45 -106.5 76s-43.333 65.5 -52 103.5c-8 30.667 -12 60.667 -12 90c0 6 0.333008 12.333 1 19
c2 36 7.16699 72.167 15.5 108.5s22.666 70.166 42.999 101.499s48 59.166 83 83.499s79.833 42.833 134.5 55.5l714 164v-186l-634 -164c-28 -7.33301 -51.167 -16.833 -69.5 -28.5s-33 -24.667 -44 -39s-19 -29.333 -24 -45s-7.83301 -30.834 -8.5 -45.501z" />
    <glyph glyph-name="uniFEDC" unicode="&#x636;" horiz-adv-x="1518" arabic-form="initial" 
d="M-15 0l-0.00195312 184.005h1065c30 0 54.333 5.5 73 16.5s33.5 26.167 44.5 45.5s18.5 41.833 22.5 67.5s6.66699 53.5 8 83.5c-1.33301 30 -4 57.667 -8 83s-11.5 47.166 -22.5 65.499s-25.833 32.833 -44.5 43.5s-43 16 -73 16h-607c-70 0 -127.5 9.83301 -172.5 29.5
s-80.5 45 -106.5 76s-43.333 65.5 -52 103.5c-8 30.667 -12 60.667 -12 90c0 6 0.333008 12.333 1 19c2 36 7.16699 72.167 15.5 108.5s22.666 70.166 42.999 101.499s48 59.166 83 83.499s79.833 42.833 134.5 55.5l714 164v-186l-634 -164
c-28 -7.33301 -51.167 -16.833 -69.5 -28.5s-33 -24.667 -44 -39s-19 -29.333 -24 -45s-7.83301 -30.834 -8.5 -45.501v-9c0 -30 9.33301 -56.667 28 -80c20 -26 54.667 -42.667 104 -50h703c54.667 0 100.834 -8.5 138.501 -25.5s68.334 -41.833 92.001 -74.5
s40.834 -73.167 51.501 -121.5s17 -103.5 19 -165.5c0 -1.33301 -0.166992 -2.33301 -0.5 -3s-0.5 -1.33398 -0.5 -2.00098v-50c-1.33301 -32 -3.5 -61.5 -6.5 -88.5s-7.5 -51.833 -13.5 -74.5h102v-184h-1543z" />
    <glyph glyph-name="uniFEDE" unicode="&#x636;" horiz-adv-x="1354" arabic-form="medial" 
d="M919 -28c15.333 20.667 25.832 45.501 31.499 74.501s8.5 67.5 8.5 115.5v1271h240v-1249h164v-184h-172c-6 -40 -16.833 -76.333 -32.5 -109s-39.167 -63 -70.5 -91c-36.667 -32 -77.167 -53.667 -121.5 -65s-97.833 -17 -160.5 -17h-363
c-62.667 0 -116.167 5.66699 -160.5 17s-84.833 33 -121.5 65c-22.667 20 -41.167 41.667 -55.5 65s-25.666 48.166 -33.999 74.499s-14 54.5 -17 84.5s-4.5 61.667 -4.5 95v684h240v-641c0 -48 2.83301 -86.5 8.5 -115.5s16.167 -53.833 31.5 -74.5
c22 -29.333 49 -48.333 81 -57s70 -13 114 -13h199c44 0 82 4.33301 114 13s59 27.667 81 57z" />
    <glyph glyph-name="uniFEE0" unicode="&#x637;" horiz-adv-x="729" arabic-form="final" 
d="M-9 1l-0.000976562 184.003h24c44.667 0 80.334 5 107.001 15s48.667 26.667 66 50c18 25.333 29.833 53.666 35.5 84.999s8.83398 64.333 9.50098 99c0 1.33301 -0.166992 4.33301 -0.5 9s-0.5 16.667 -0.5 36v261c0 73.333 0.166992 166.333 0.5 279
s0.5 250.667 0.5 414h239v-972l5 -148c8 -28.667 20.667 -51.5 38 -68.5s37 -30 59 -39s45.333 -14.833 70 -17.5s48 -4 70 -4h26v-184h-98c-23.333 0 -47.166 0.833008 -71.499 2.5s-48.833 5.16699 -73.5 10.5s-48.834 13.5 -72.501 24.5s-45.834 25.833 -66.501 44.5
c-21.333 -18.667 -43.5 -33.334 -66.5 -44.001s-46.833 -18.834 -71.5 -24.501s-50 -9.16699 -76 -10.5s-53 -2 -81 -2h-72z" />
    <glyph glyph-name="uniFEE2" unicode="&#x637;" horiz-adv-x="1622" arabic-form="initial" 
d="M934 -12c-42 0 -88.501 0.833984 -139.501 2.50098s-100.833 4.83398 -149.5 9.50098h-100c-31.333 0 -66.333 -4 -105 -12c-38 -8 -71.333 -29.333 -100 -64c-23.333 -28 -38.333 -60 -45 -96s-10 -75 -10 -117v-241h-240v305c0 61.333 7.33301 119 22 173
c14 56 44.333 103.333 91 142c18 16.667 37.667 30.667 59 42s43 20.5 65 27.5s44 12.167 66 15.5s43 5.66602 63 6.99902h10c4 0 7.66699 0.333008 11 1c-17.333 29.333 -31.166 60.166 -41.499 92.499s-18 64.333 -23 96s-8.16699 62 -9.5 91s-2 54.5 -2 76.5
c0 30 1.33301 64.667 4 104s8.83398 79.166 18.501 119.499s23.667 79.833 42 118.5s43.5 72.667 75.5 102c30 27.333 63.5 48.666 100.5 63.999s75 26.833 114 34.5s77.667 12.334 116 14.001s74.166 2.5 107.499 2.5c32.667 0 68.167 -0.833008 106.5 -2.5
s77 -6.33398 116 -14.001s77.167 -19.167 114.5 -34.5s71 -36.666 101 -63.999c31.333 -29.333 56.166 -63.166 74.499 -101.499s32.333 -77.5 42 -117.5s15.834 -79 18.501 -117s4 -71.333 4 -100c0 -116.667 -13.333 -210 -40 -280c-12.667 -32 -25.667 -59.667 -39 -83
h200v-184h-427zM603.999 541.001c0 -45.333 2.99902 -93.3311 8.99902 -143.998s26.333 -95.667 61 -135s75.667 -64.333 123 -75c46.667 -10 92.334 -15 137.001 -15s90 5 136 15c46.667 11.333 87.334 36.333 122.001 75c35.333 40.667 56 85 62 133
c3.33301 24.667 5.83301 49.167 7.5 73.5s2.5 48.5 2.5 72.5v65c0 17.333 -1 36 -3 56s-5.66699 39.667 -11 59s-12.5 38.166 -21.5 56.499s-20.5 34.833 -34.5 49.5c-18 20 -37.5 35.667 -58.5 47s-42.833 19.833 -65.5 25.5s-45.5 9.33398 -68.5 11.001
s-45.5 2.5 -67.5 2.5c-19.333 0 -40.833 -0.666992 -64.5 -2s-47.334 -5 -71.001 -11s-46.5 -14.667 -68.5 -26s-41.333 -27 -58 -47c-17.333 -19.333 -30.5 -41.833 -39.5 -67.5s-15.667 -51.834 -20 -78.501s-6.83301 -52.334 -7.5 -77.001s-1 -45.667 -1 -63z" />
    <glyph glyph-name="uniFEE3" unicode="&#x637;" horiz-adv-x="1495" arabic-form="medial" 
d="M-15 0l0.00292969 184h40c16 0 34.333 0.666992 55 2s41.5 5.5 62.5 12.5s41.167 18 60.5 33s35.666 36.167 48.999 63.5c6 12.667 12.667 32 20 58s12.333 64.667 15 116c-0.666992 13.333 -1 25.666 -1 36.999v33c0 30 1.33301 64.667 4 104s8.83398 79.333 18.501 120
s23.667 80.334 42 119.001s43.5 72.334 75.5 101.001c30 28 63.5 49.667 100.5 65s75 26.666 114 33.999s77.833 11.833 116.5 13.5s74.334 2.5 107.001 2.5s68.167 -0.833008 106.5 -2.5s77 -6.16699 116 -13.5s77.167 -18.666 114.5 -33.999s71 -37 101 -65
c32 -28.667 57.167 -62.334 75.5 -101.001s32.166 -78.167 41.499 -118.5s15.333 -79.5 18 -117.5s4 -71 4 -99c0 -58 -3.5 -110.167 -10.5 -156.5s-16.667 -87.5 -29 -123.5s-27 -67.5 -44 -94.5s-35.5 -49.833 -55.5 -68.5
c-28.667 -27.333 -61.834 -48.666 -99.501 -63.999s-76.5 -26.833 -116.5 -34.5s-79.333 -12.5 -118 -14.5s-73.334 -3 -104.001 -3c-32.667 0 -68.334 1 -107.001 3s-77.5 6.83301 -116.5 14.5s-77 19.167 -114 34.5s-70.5 36.666 -100.5 63.999c-2 1.33301 -5 4 -9 8
c-22.667 -24 -47.5 -43.333 -74.5 -58s-54.667 -26 -83 -34s-56.833 -13.333 -85.5 -16s-56 -4 -82 -4h-107zM602.003 827c-20.667 -25.333 -35.499 -53.001 -44.499 -83.001s-14.833 -61 -17.5 -93c-2.66699 -26 -4 -52 -4 -78v-48c0 -20 -0.333008 -39.333 -1 -58
c2 -36 7.66699 -71.667 17 -107s26.666 -68 51.999 -98c18 -20 37.5 -36 58.5 -48s42.667 -21 65 -27s45.166 -10 68.499 -12s46 -3 68 -3c22.667 0 45.5 1 68.5 3s45.5 6 67.5 12s43.333 15 64 27s40 28 58 48s31.833 41.167 41.5 63.5s16.834 45.5 21.501 69.5
s7.33398 48.333 8.00098 73s1 49 1 73v65c0 18 -1 36.833 -3 56.5s-5.66699 39.334 -11 59.001s-12.5 38.5 -21.5 56.5s-20.5 34.333 -34.5 49c-18 19.333 -37.5 34.666 -58.5 45.999s-42.833 20 -65.5 26s-45.5 9.83301 -68.5 11.5s-45.5 2.5 -67.5 2.5
c-19.333 0 -40.833 -0.833008 -64.5 -2.5s-47.334 -5.5 -71.001 -11.5s-46.5 -14.667 -68.5 -26s-41.333 -26.666 -58 -45.999z" />
    <glyph glyph-name="uniFEE6" unicode="&#x638;" horiz-adv-x="1354" arabic-form="final" 
d="M919 -28c15.333 20.667 25.832 45.501 31.499 74.501s8.5 67.5 8.5 115.5v924h240v-902h164v-184h-172c-6 -40 -16.833 -76.333 -32.5 -109s-39.167 -63 -70.5 -91c-36.667 -32 -77.167 -53.667 -121.5 -65s-97.833 -17 -160.5 -17h-363
c-62.667 0 -116.167 5.66699 -160.5 17s-84.833 33 -121.5 65c-22.667 20 -41.167 41.667 -55.5 65s-25.666 48.166 -33.999 74.499s-14 54.5 -17 84.5s-4.5 61.667 -4.5 95v684h240v-641c0 -48 2.83301 -86.5 8.5 -115.5s16.167 -53.833 31.5 -74.5
c22 -29.333 49 -48.333 81 -57s70 -13 114 -13h199c44 0 82 4.33301 114 13s59 27.667 81 57zM502.999 1243v191h239v-191h-239z" />
    <glyph glyph-name="uniFEE7" unicode="&#x638;" horiz-adv-x="660" arabic-form="initial" 
d="M-10 1l0.00195312 183.999h117c44.667 0 80.334 5 107.001 15s48.667 26.667 66 50c19.333 26 31.666 55.667 36.999 89s8 68 8 104v643h239v-715c0 -37.333 -2.83301 -70.666 -8.5 -99.999s-13.334 -55.333 -23.001 -78s-21 -42.5 -34 -59.5s-26.5 -31.833 -40.5 -44.5
c-22 -20 -44.833 -35.833 -68.5 -47.5s-48.167 -20.5 -73.5 -26.5s-51.333 -9.83301 -78 -11.5s-54.334 -2.5 -83.001 -2.5h-165zM326.002 1243v191h239v-191h-239z" />
    <glyph glyph-name="uniFEE8" unicode="&#x638;" horiz-adv-x="729" arabic-form="medial" 
d="M-9 1l-0.000976562 184.003h24c44.667 0 80.334 5 107.001 15s48.667 26.667 66 50c18 25.333 29.833 53.666 35.5 84.999s8.83398 64.333 9.50098 99c-0.666992 4.66699 -1 9 -1 13v14h1v625h239v-625l5 -148c8 -28.667 20.667 -51.5 38 -68.5s37 -30 59 -39
s45.333 -14.833 70 -17.5s48 -4 70 -4h26v-184h-98c-23.333 0 -47.166 0.833008 -71.499 2.5s-48.833 5.16699 -73.5 10.5s-48.834 13.5 -72.501 24.5s-45.834 25.833 -66.501 44.5c-21.333 -18.667 -43.5 -33.334 -66.5 -44.001s-46.833 -18.834 -71.5 -24.501
s-50 -9.16699 -76 -10.5s-53 -2 -81 -2h-72zM229.999 1243v191h239v-191h-239z" />
    <glyph glyph-name="uniFEEB" unicode="&#x639;" horiz-adv-x="1704" arabic-form="final" 
d="M-14 184l188.001 -0.000976562c-26 42.667 -43 90.334 -51 143.001c-10 66.667 -15 134.334 -15 203.001c0 28.667 0.5 59.334 1.5 92.001s4 66 9 100s12.667 67.5 23 100.5s24.5 63.833 42.5 92.5c22 37.333 47.667 67.166 77 89.499s60 39.5 92 51.5s64 19.833 96 23.5
s61.667 5.5 89 5.5h222v150h239v-150h221c29.333 0 60 -2 92 -6s63.5 -12 94.5 -24s61 -29.167 90 -51.5s55.167 -51.833 78.5 -88.5c38 -61.333 60 -125.333 66 -192c6 -67.333 9 -131.666 9 -192.999c0 -36.667 -1.16699 -71.834 -3.5 -105.501
s-5.83301 -66.5 -10.5 -98.5c-8.66699 -61.333 -34 -121 -76 -179c-26 -35.333 -53.833 -62.833 -83.5 -82.5s-59.667 -34.334 -90 -44.001s-60.333 -15.5 -90 -17.5s-57.834 -3 -84.501 -3h-1226v184zM760.001 900.999l-122.996 -0.000976562
c-16.667 0 -35.167 -0.666992 -55.5 -2s-41 -4.83301 -62 -10.5s-41.333 -14.334 -61 -26.001s-36.834 -27.5 -51.501 -47.5c-17.333 -25.333 -30.333 -59.666 -39 -102.999c-8 -43.333 -12 -104.666 -12 -183.999c0 -46 2 -90.167 6 -132.5s16.333 -80.5 37 -114.5
c10 -18 22.167 -33.167 36.5 -45.5s31.166 -22.333 50.499 -30s41.666 -13.167 66.999 -16.5s54.666 -5 87.999 -5h119v717zM1118 183.998c32.667 0 61.668 1.66602 87.001 4.99902s47.833 8.83301 67.5 16.5s36.667 17.667 51 30s26.5 27.5 36.5 45.5
c20 34 32.167 72.167 36.5 114.5s6.5 86.5 6.5 132.5c0 68.667 -3.5 126.5 -10.5 173.5s-20.833 84.833 -41.5 113.5c-14 20 -30.667 35.833 -50 47.5s-39.5 20.334 -60.5 26.001s-41.833 9.16699 -62.5 10.5s-39.334 2 -56.001 2h-123v-717h119z" />
    <glyph glyph-name="uniFEEC" unicode="&#x639;" horiz-adv-x="1751" arabic-form="initial" 
d="M-14 0v183.998h188c-26 42.667 -43 90.334 -51 143.001c-10 66.667 -15 134.334 -15 203.001c0 28.667 0.5 59.334 1.5 92.001s4 66 9 100s12.667 67.5 23 100.5s24.5 63.833 42.5 92.5c22 37.333 47.667 67.166 77 89.499s60 39.5 92 51.5s64 19.833 96 23.5
s61.667 5.5 89 5.5h222v150h239v-150h221c29.333 0 60 -2 92 -6s63.5 -12 94.5 -24s61 -29.167 90 -51.5s55.167 -51.833 78.5 -88.5c38 -61.333 60 -125.333 66 -192c6 -67.333 9 -131.666 9 -192.999c0 -36.667 -1.16699 -71.834 -3.5 -105.501
s-5.83301 -66.5 -10.5 -98.5c-6.66699 -48.667 -24 -96 -52 -142h176v-184h-1774zM760 900.998l-122.996 -0.000976562c-16.667 0 -35.167 -0.666992 -55.5 -2s-41 -4.83301 -62 -10.5s-41.333 -14.334 -61 -26.001s-36.834 -27.5 -51.501 -47.5
c-17.333 -25.333 -30.333 -59.666 -39 -102.999c-8 -43.333 -12 -104.666 -12 -183.999c0 -46 2 -90.167 6 -132.5s16.333 -80.5 37 -114.5c10 -18 22.167 -33.167 36.5 -45.5s31.166 -22.333 50.499 -30s41.666 -13.167 66.999 -16.5s54.666 -5 87.999 -5h119v717z
M1118 183.997c32.667 0 61.668 1.66602 87.001 4.99902s47.833 8.83301 67.5 16.5s36.667 17.667 51 30s26.5 27.5 36.5 45.5c20 34 32.167 72.167 36.5 114.5s6.5 86.5 6.5 132.5c0 68.667 -3.5 126.5 -10.5 173.5s-20.833 84.833 -41.5 113.5
c-14 20 -30.667 35.833 -50 47.5s-39.5 20.334 -60.5 26.001s-41.833 9.16699 -62.5 10.5s-39.334 2 -56.001 2h-123v-717h119z" />
    <glyph glyph-name="uniFEEE" unicode="&#x639;" horiz-adv-x="1220" arabic-form="medial" 
d="M129 -174l457.004 0.000976562c13.333 0 28.166 0.5 44.499 1.5s34.166 2.83301 53.499 5.5c38.667 4.66699 72.667 18.667 102 42c35.333 30.667 56.666 72.334 63.999 125.001h-385c-27.333 0 -56 1.16699 -86 3.5s-59.5 8.16602 -88.5 17.499
s-56.667 23.166 -83 41.499s-49.833 43.833 -70.5 76.5c-56 86.667 -84 226.667 -84 420c0 85.333 7 161.666 21 228.999c15.333 68 46.666 127.667 93.999 179c25.333 28 51.833 50 79.5 66s55.834 27.833 84.501 35.5s57.334 12.334 86.001 14.001s56.667 2.5 84 2.5h350
c32 0 62.833 -2 92.5 -6s57.5 -16.333 83.5 -37c28 -24 45.333 -50 52 -78c8 -29.333 12 -55.666 12 -78.999v-701h140v-184h-146c-4.66699 -44.667 -13.334 -86 -26.001 -124s-31.334 -72.333 -56.001 -103c-25.333 -30 -54.833 -53.667 -88.5 -71
s-67.667 -30.333 -102 -39s-66.833 -14.334 -97.5 -17.001s-55.667 -4 -75 -4h-512v184zM852.004 815.001c0 15.333 -1.66504 28.333 -4.99805 39s-12 21 -26 31c-10.667 6.66699 -21.167 11 -31.5 13s-20.833 3 -31.5 3h-205c-40 0 -76.333 -5.83301 -109 -17.5
s-58.334 -28.167 -77.001 -49.5c-16.667 -19.333 -29.5 -43 -38.5 -71s-15.5 -56.333 -19.5 -85s-6.33301 -55.5 -7 -80.5s-1 -43.833 -1 -56.5c0 -48 2 -89 6 -123s9 -62.5 15 -85.5s12.5 -41.167 19.5 -54.5s13.833 -23.333 20.5 -30c27.333 -31.333 59.333 -50 96 -56
c18.667 -2.66699 37.167 -4.66699 55.5 -6s36.166 -2 53.499 -2h285v631z" />
    <glyph glyph-name="uniFEF2" unicode="&#x63a;" horiz-adv-x="1677" arabic-form="final" 
d="M1569 0c-35.333 0 -72.3379 3 -111.005 9c-37.333 6 -72.666 24 -105.999 54c-10 10 -20 22 -30 36s-19 30.833 -27 50.5s-14.5 42.167 -19.5 67.5s-7.5 54 -7.5 86v167c0 37.333 0.166992 84.166 0.5 140.499s0.5 125.166 0.5 206.499c0.666992 2 1 4.33301 1 7
s-0.333008 5.66699 -1 9c-0.666992 6 -1.66699 12.333 -3 19s-3.16602 13 -5.49902 19s-5.16602 10.667 -8.49902 14c-8 8 -18.833 12.667 -32.5 14s-25.834 2 -36.501 2h-29c-18.667 0 -36.167 -3.33301 -52.5 -10s-29.5 -15.667 -39.5 -27
c-12 -14.667 -19.333 -32.667 -22 -54s-4 -41.333 -4 -60l-2 -348c0 -33.333 -1.5 -65 -4.5 -95s-8.66699 -58.167 -17 -84.5s-19.666 -51.166 -33.999 -74.499s-32.833 -45 -55.5 -65c-36.667 -32 -77.167 -53.667 -121.5 -65s-97.833 -17 -160.5 -17h-207
c-62.667 0 -116.167 5.66699 -160.5 17s-84.833 33 -121.5 65c-22.667 20 -41.167 41.667 -55.5 65s-25.666 48.166 -33.999 74.499s-14 54.5 -17 84.5s-4.5 61.667 -4.5 95v326h240v-283c0 -48 2.83301 -86.5 8.5 -115.5s16.167 -53.833 31.5 -74.5
c22 -29.333 49 -48.333 81 -57s70 -13 114 -13h48c44 0 82 4.33301 114 13s59 27.667 81 57c15.333 20.667 25.833 45.5 31.5 74.5s8.5 67.5 8.5 115.5l-3 319c0 19.333 1 40 3 62s5.33301 44.667 10 68c9.33301 48 31.666 89.333 66.999 124
c18.667 18.667 42.834 34.834 72.501 48.501s67.5 20.5 113.5 20.5l260 -2c8.66699 0 18.834 -0.166992 30.501 -0.5s23.5 -1.83301 35.5 -4.5s24 -6.5 36 -11.5s23 -12.167 33 -21.5c24 -22 38.667 -50.333 44 -85c2.66699 -16.667 4.5 -31.167 5.5 -43.5
s1.5 -22.833 1.5 -31.5v-555c0 -32 3.66699 -57.167 11 -75.5s16 -32.166 26 -41.499c14.667 -14.667 32 -23.5 52 -26.5s40 -4.5 60 -4.5h30v-184h-118zM262.995 -357v191h239v-191h-239zM584.995 -357v191h239v-191h-239z" />
    <glyph glyph-name="uniFEF3" unicode="&#x63a;" horiz-adv-x="819" arabic-form="initial" 
d="M-10 1l0.00195312 183.999h276c44.667 0 80.334 5 107.001 15s48.667 26.667 66 50c19.333 26 31.666 55.667 36.999 89s8 68 8 104v643h239v-715c0 -37.333 -2.83301 -70.666 -8.5 -99.999s-13.334 -55.333 -23.001 -78s-21 -42.5 -34 -59.5s-26.5 -31.833 -40.5 -44.5
c-22 -20 -44.833 -35.833 -68.5 -47.5s-48.167 -20.5 -73.5 -26.5s-51.333 -9.83301 -78 -11.5s-54.334 -2.5 -83.001 -2.5h-324zM129.002 -357.001v191h239v-191h-239zM451.002 -357.001v191h239v-191h-239z" />
    <glyph glyph-name="uniFEF4" unicode="&#x63a;" horiz-adv-x="729" arabic-form="medial" 
d="M-9 1l-0.000976562 184.003h24c44.667 0 80.334 5 107.001 15s48.667 26.667 66 50c18 25.333 29.833 53.666 35.5 84.999s8.83398 64.333 9.50098 99c-0.666992 4.66699 -1 9 -1 13v14h1v625h239v-625l5 -148c8 -28.667 20.667 -51.5 38 -68.5s37 -30 59 -39
s45.333 -14.833 70 -17.5s48 -4 70 -4h26v-184h-98c-23.333 0 -47.166 0.833008 -71.499 2.5s-48.833 5.16699 -73.5 10.5s-48.834 13.5 -72.501 24.5s-45.834 25.833 -66.501 44.5c-21.333 -18.667 -43.5 -33.334 -66.5 -44.001s-46.833 -18.834 -71.5 -24.501
s-50 -9.16699 -76 -10.5s-53 -2 -81 -2h-72zM87.999 -356.997v191h239v-191h-239zM409.999 -356.997v191h239v-191h-239z" />
    <glyph glyph-name="uniFEF6" unicode="&#x641;" horiz-adv-x="1255" arabic-form="final" 
d="M75 1l-0.000976562 184h321l-284 1249h240l284 -1249h54c44.667 0 80.334 5 107.001 15s48.667 26.667 66 50c19.333 26 31.666 55.667 36.999 89s8 68 8 104v990h239v-1062c0 -40 -3.16699 -75.333 -9.5 -106s-15.166 -57.667 -26.499 -81h154v-184zM54.999 1636h377
v-108h-377v108z" />
    <glyph glyph-name="uniFEF7" unicode="&#x641;" horiz-adv-x="1220" arabic-form="initial" 
d="M75 1l0.00195312 183.999h321l-284 1249h240l284 -1249h54c44.667 0 80.334 5 107.001 15s48.667 26.667 66 50c19.333 26 31.666 55.667 36.999 89s8 68 8 104v990h239v-1062c0 -37.333 -2.83301 -70.666 -8.5 -99.999s-13.334 -55.333 -23.001 -78s-21 -42.5 -34 -59.5
s-26.5 -31.833 -40.5 -44.5c-22 -20 -44.833 -35.833 -68.5 -47.5s-48.167 -20.5 -73.5 -26.5s-51.333 -9.83301 -78 -11.5s-54.334 -2.5 -83.001 -2.5h-663zM124.002 1593h121c4.66699 0 7 2 7 6c0 1.33301 -0.166992 2.33301 -0.5 3s-2.83301 1.83398 -7.5 3.50098
s-12.334 4.16699 -23.001 7.5l-46 15c-19.333 6.66699 -33.166 15.167 -41.499 25.5s-12.5 24.166 -12.5 41.499c0 22.667 5.66699 38.5 17 47.5s26.333 13.5 45 13.5h149v-57h-121c-1.33301 0 -3.66602 0.333008 -6.99902 1h-1c-3.33301 0 -5 -1.66699 -5 -5
c0 -1.33301 1.16699 -2.83301 3.5 -4.5s6.33301 -3.5 12 -5.5l23.5 -8l38 -13c21.333 -7.33301 37.166 -16.333 47.499 -27s15.5 -26 15.5 -46c0 -17.333 -4.83301 -31.333 -14.5 -42s-23.167 -16 -40.5 -16h-159v60z" />
    <glyph glyph-name="uniFEF8" unicode="&#x641;" horiz-adv-x="1255" arabic-form="medial" 
d="M75 1l-0.000976562 184h321l-284 1249h240l284 -1249h54c44.667 0 80.334 5 107.001 15s48.667 26.667 66 50c19.333 26 31.666 55.667 36.999 89s8 68 8 104v990h239v-1062c0 -40 -3.16699 -75.333 -9.5 -106s-15.166 -57.667 -26.499 -81h154v-184zM123.999 1593h121
c4.66699 0 7 2 7 6c0 1.33301 -0.166992 2.33301 -0.5 3s-2.83301 1.83398 -7.5 3.50098s-12.334 4.16699 -23.001 7.5l-46 15c-19.333 6.66699 -33.166 15.167 -41.499 25.5s-12.5 24.166 -12.5 41.499c0 22.667 5.66699 38.5 17 47.5s26.333 13.5 45 13.5h149v-57h-121
c-1.33301 0 -3.66602 0.333008 -6.99902 1h-1c-3.33301 0 -5 -1.66699 -5 -5c0 -1.33301 1.16699 -2.83301 3.5 -4.5s6.33301 -3.5 12 -5.5l23.5 -8l38 -13c21.333 -7.33301 37.166 -16.333 47.499 -27s15.5 -26 15.5 -46c0 -17.333 -4.83301 -31.333 -14.5 -42
s-23.167 -16 -40.5 -16h-159v60z" />
    <glyph glyph-name="uniFEFA" unicode="&#x642;" horiz-adv-x="1255" arabic-form="final" 
d="M75 1l-0.000976562 184h321l-284 1249h240l284 -1249h54c44.667 0 80.334 5 107.001 15s48.667 26.667 66 50c19.333 26 31.666 55.667 36.999 89s8 68 8 104v990h239v-1062c0 -40 -3.16699 -75.333 -9.5 -106s-15.166 -57.667 -26.499 -81h154v-184zM292.999 -257h121
c4.66699 0 7 2 7 6c0 1.33301 -0.166992 2.33301 -0.5 3s-2.83301 1.83398 -7.5 3.50098s-12.334 4.16699 -23.001 7.5l-46 15c-19.333 6.66699 -33.166 15.167 -41.499 25.5s-12.5 24.166 -12.5 41.499c0 22.667 5.66699 38.5 17 47.5s26.333 13.5 45 13.5h149v-57h-121
c-1.33301 0 -3.66602 0.333008 -6.99902 1h-1c-3.33301 0 -5 -1.66699 -5 -5c0 -1.33301 1.16699 -2.83301 3.5 -4.5s6.33301 -3.5 12 -5.5l23.5 -8l38 -13c21.333 -7.33301 37.166 -16.333 47.499 -27s15.5 -26 15.5 -46c0 -17.333 -4.83301 -31.333 -14.5 -42
s-23.167 -16 -40.5 -16h-159v60z" />
    <glyph glyph-name="uniFEFB" unicode="&#x642;" horiz-adv-x="1220" arabic-form="initial" 
d="M75 1l0.00195312 183.999h321l-284 1249h240l284 -1249h54c44.667 0 80.334 5 107.001 15s48.667 26.667 66 50c19.333 26 31.666 55.667 36.999 89s8 68 8 104v990h239v-1062c0 -37.333 -2.83301 -70.666 -8.5 -99.999s-13.334 -55.333 -23.001 -78s-21 -42.5 -34 -59.5
s-26.5 -31.833 -40.5 -44.5c-22 -20 -44.833 -35.833 -68.5 -47.5s-48.167 -20.5 -73.5 -26.5s-51.333 -9.83301 -78 -11.5s-54.334 -2.5 -83.001 -2.5h-663z" />
    <glyph glyph-name="uniFEFC" unicode="&#x642;" horiz-adv-x="1255" arabic-form="medial" 
d="M75 1l-0.000976562 184h321l-284 1249h240l284 -1249h54c44.667 0 80.334 5 107.001 15s48.667 26.667 66 50c19.333 26 31.666 55.667 36.999 89s8 68 8 104v990h239v-1062c0 -40 -3.16699 -75.333 -9.5 -106s-15.166 -57.667 -26.499 -81h154v-184z" />
    <glyph glyph-name=".notdef" horiz-adv-x="1024" 
d="M100 0v1434h824v-1434h-824zM150 50h724v1334h-724v-1334zM325 1148c20.667 18.667 40.002 32.998 58.002 42.998c35.333 20 72.666 30 111.999 30c61.333 0 110.666 -15.833 147.999 -47.5s56 -74.167 56 -127.5c0 -32.667 -7.66699 -65.5 -23 -98.5
s-44.333 -76.167 -87 -129.5c-42 -53.333 -75 -97.333 -99 -132s-36 -67.667 -36 -99c0 -25.333 8 -69.666 24 -132.999h-32c-23.333 64.667 -35 114 -35 148c0 50.667 27.167 123.334 81.5 218.001s81.5 167 81.5 217c0 38 -11 68 -33 90s-52.333 33 -91 33
c-25.333 0 -48.333 -5.66699 -69 -17c-17.333 -10 -36 -23.333 -56 -40v45zM389.002 333.998l57 57.999c7.33301 6.66699 14 10 20 10c6.66699 0 14 -3.66699 22 -11l56 -60c6 -7.33301 9 -14 9 -20c0 -7.33301 -3.33301 -14.666 -10 -21.999l-56 -62
c-9.33301 -9.33301 -16.333 -14 -21 -14c-7.33301 0 -14 3.33301 -20 10l-61 71c-4.66699 6 -7 12 -7 18c0 6.66699 3.66699 14 11 22z" />
    <glyph glyph-name="space" unicode=" " horiz-adv-x="508" 
 />
    <glyph glyph-name="space" unicode="&#xa0;" horiz-adv-x="508" 
 />
    <glyph glyph-name="exclam" unicode="!" horiz-adv-x="528" 
d="M139 254h250v-254h-250v254zM141 399l-18 1035h283l-19 -1035h-246z" />
    <glyph glyph-name="quotedbl" unicode="&#x22;" horiz-adv-x="797" 
d="M123 1434h223l-10 -510h-201zM451 1434h223l-10 -510h-201z" />
    <glyph glyph-name="numbersign" unicode="#" horiz-adv-x="1790" 
d="M352 369h-270l70 176h272l145 360h-272l72 176h272l141 353h205l-141 -353h385l141 353h205l-141 -353h272l-72 -176h-272l-145 -360h272l-72 -176h-272l-148 -369h-204l147 369h-385l-147 -369h-203zM1159 905h-385l-145 -360h385z" />
    <glyph glyph-name="dollar" unicode="$" horiz-adv-x="1372" 
d="M135 215l466.997 -0.00195312v432l-274 88c-19.333 6.66699 -37.833 13.5 -55.5 20.5s-34.834 14.833 -51.501 23.5c-33.333 16.667 -63.333 47.667 -90 93c-22 38 -35.667 76 -41 114s-8 74 -8 108c0 21.333 1 42.5 3 63.5s4.66699 42.167 8 63.5
c7.33301 43.333 26.333 82 57 116c18.667 22 39.834 39.5 63.501 52.5s48.334 22.667 74.001 29s51.334 10.5 77.001 12.5s49.5 3 71.5 3h166v139h160v-139h438v-215h-438v-410l242 -78c37.333 -12 75 -26.333 113 -43c39.333 -16 76 -46.667 110 -92
c30 -38.667 48 -78 54 -118c6 -39.333 9 -82 9 -128c0 -25.333 -0.666992 -51.166 -2 -77.499s-5.16602 -51.833 -11.499 -76.5s-16.166 -48.167 -29.499 -70.5s-31.666 -42.166 -54.999 -59.499c-20.667 -16.667 -43.334 -29.5 -68.001 -38.5s-49.834 -15.5 -75.501 -19.5
s-51.5 -6.33301 -77.5 -7s-50.667 -1 -74 -1h-135v-139h-160v139h-467v215zM810.997 214.998c11.333 0 23.668 0.5 37.001 1.5s28.333 2.83301 45 5.5c32.667 4.66699 58 14.667 76 30c12 10.667 22.167 26 30.5 46s12.5 44.333 12.5 73c0 38.667 -9.66699 75.667 -29 111
c-18.667 34.667 -58.334 61.667 -119.001 81l-102 33v-381h49zM601.999 1219l-54.999 0.00390625c-38.667 0 -70.167 -4.16699 -94.5 -12.5s-42.833 -18.5 -55.5 -30.5c-7.33301 -8 -13.333 -17.333 -18 -28s-8.5 -21.834 -11.5 -33.501s-5 -23.334 -6 -35.001
s-1.5 -22.5 -1.5 -32.5c0 -26 3.83301 -47.667 11.5 -65s17 -31.333 28 -42s22.667 -18.834 35 -24.501s23.166 -9.83398 32.499 -12.501l135 -43v359z" />
    <glyph glyph-name="percent" unicode="%" horiz-adv-x="1673" 
d="M1116 1434h180l-731 -1434h-180zM440 1446c37.333 0 77.665 -4 120.998 -12c42.667 -6.66699 81 -26 115 -58c17.333 -17.333 31.333 -37.5 42 -60.5s19 -46.667 25 -71s10 -48.833 12 -73.5s3 -47.667 3 -69c0 -22 -1 -45.333 -3 -70s-6 -49.167 -12 -73.5
s-14.333 -47.833 -25 -70.5s-24.667 -43 -42 -61c-34 -32 -72.333 -51.333 -115 -58c-21.333 -3.33301 -42.166 -6 -62.499 -8s-39.833 -3 -58.5 -3c-19.333 0 -39.166 1 -59.499 3s-41.5 4.66699 -63.5 8c-42 6.66699 -80 26 -114 58c-19.333 18 -34.333 38.167 -45 60.5
s-18.5 45.5 -23.5 69.5s-8.16699 48.5 -9.5 73.5s-2 48.833 -2 71.5c0 20 0.666992 42.333 2 67s4.5 49.5 9.5 74.5s12.833 49 23.5 72s25.667 43.167 45 60.5c34 32 72 51.333 114 58c44 8 85 12 123 12zM290.999 1102c0 -45.333 3 -80.668 9 -106.001
s14.667 -44.666 26 -57.999c14.667 -19.333 32.667 -31.333 54 -36s41.333 -7 60 -7c18 0 37.167 2.33301 57.5 7s38.833 16.667 55.5 36c18.667 22 29.667 49 33 81c1.33301 16 2.33301 31 3 45s1 26.667 1 38s-0.333008 24 -1 38s-1.66699 29 -3 45
c-3.33301 32 -14.333 59 -33 81c-16.667 18.667 -35.167 30.5 -55.5 35.5s-39.5 7.5 -57.5 7.5c-18.667 0 -38.667 -2.5 -60 -7.5s-39.333 -16.833 -54 -35.5c-11.333 -14 -20 -33.667 -26 -59s-9 -60.333 -9 -105zM1233 675.998c36.667 0 76.665 -3.99902 119.998 -11.999
c42.667 -6.66699 81 -26 115 -58c18 -17.333 32.333 -37.333 43 -60s19 -46.334 25 -71.001s9.83301 -49.5 11.5 -74.5s2.5 -47.833 2.5 -68.5c0 -22 -0.833008 -45.333 -2.5 -70s-5.5 -49.167 -11.5 -73.5s-14.333 -47.833 -25 -70.5s-25 -43 -43 -61
c-34 -32 -72.333 -51.333 -115 -58c-21.333 -3.33301 -42 -6 -62 -8s-39.333 -3 -58 -3c-19.333 0 -39.166 1 -59.499 3s-41.5 4.66699 -63.5 8c-42.667 6.66699 -81 26 -115 58c-18.667 18 -33.334 38.167 -44.001 60.5s-18.667 45.5 -24 69.5s-8.66602 48.5 -9.99902 73.5
s-2 48.833 -2 71.5c0 20 0.666992 42.333 2 67s4.83301 49.5 10.5 74.5s13.834 49 24.501 72s25 43.167 43 60.5c34 32 72.333 51.333 115 58c44 8 85 12 123 12zM1083 331.999c0 -45.333 3.16699 -80.668 9.5 -106.001s14.833 -44.666 25.5 -57.999
c15.333 -19.333 33.5 -31.333 54.5 -36s41.167 -7 60.5 -7c18 0 37.167 2.33301 57.5 7s38.833 16.667 55.5 36c18 21.333 28.667 48.333 32 81c1.33301 16 2.33301 31 3 45s1 26.667 1 38s-0.333008 24 -1 38s-1.66699 29 -3 45c-3.33301 32.667 -14 59.667 -32 81
c-16.667 18.667 -35.167 30.5 -55.5 35.5s-39.5 7.5 -57.5 7.5c-19.333 0 -39.5 -2.5 -60.5 -7.5s-39.167 -16.833 -54.5 -35.5c-10.667 -14 -19.167 -33.667 -25.5 -59s-9.5 -60.333 -9.5 -105z" />
    <glyph glyph-name="ampersand" unicode="&#x26;" horiz-adv-x="1526" 
d="M1270 272c0 -17.333 -0.833008 -35.332 -2.5 -53.999s-4.16699 -38.334 -7.5 -59.001c-6 -40.667 -22.667 -74.667 -50 -102c-14.667 -14.667 -32.167 -25.834 -52.5 -33.501s-41.166 -13.334 -62.499 -17.001s-42 -5.66699 -62 -6s-36.667 -0.5 -50 -0.5h-477
c-22.667 0 -47 0.5 -73 1.5s-52.167 4.83301 -78.5 11.5s-52.333 17.167 -78 31.5s-49.5 34.833 -71.5 61.5c-38.667 44.667 -62 93.334 -70 146.001c-8 52 -12 101.667 -12 149c0 16 0.5 33 1.5 51s2.83301 37 5.5 57c5.33301 40.667 20.666 78.667 45.999 114
c13.333 16.667 32.666 34.667 57.999 54c26.667 19.333 62 32.666 106 39.999v4c-28 2.66699 -54.167 10.334 -78.5 23.001s-46.5 33 -66.5 61c-28.667 36.667 -47.5 76.5 -56.5 119.5s-13.5 86.5 -13.5 130.5c0 19.333 0.666992 41.333 2 66s5 50.167 11 76.5
s15.167 52.5 27.5 78.5s29.5 50 51.5 72c38.667 38.667 83.334 62.667 134.001 72c25.333 4.66699 50.666 8.16699 75.999 10.5s51 3.5 77 3.5h749v-213h-645c-13.333 0 -27.333 -0.666992 -42 -2s-29.667 -3.33301 -45 -6
c-31.333 -5.33301 -54.666 -13.666 -69.999 -24.999s-27.833 -29.5 -37.5 -54.5s-14.5 -60.833 -14.5 -107.5c0 -7.33301 0.5 -18.333 1.5 -33s3.33301 -30.167 7 -46.5s9 -32.5 16 -48.5s16.833 -29.333 29.5 -40c12 -10.667 26 -19 42 -25s32 -10.5 48 -13.5
s31.5 -4.83301 46.5 -5.5s27.5 -1 37.5 -1h858v-192h-215v-349zM909 213.001c19.333 0 36.167 1 50.5 3s24.833 6.33301 31.5 13c6.66699 7.33301 10.834 16.333 12.501 27s2.5 21.667 2.5 33v329h-447c-44.667 0 -77.334 -8 -98.001 -24c-20 -14 -33.667 -27 -41 -39
c-8.66699 -14.667 -14.667 -33.5 -18 -56.5s-5 -43.833 -5 -62.5v-24c0 -50 4.66699 -86 14 -108l12.5 -25.5c3 -6.33301 5.16699 -10.5 6.5 -12.5c18.667 -24.667 44 -39.667 76 -45c15.333 -2.66699 30 -4.66699 44 -6s26.667 -2 38 -2h321z" />
    <glyph glyph-name="quotesingle" unicode="'" horiz-adv-x="471" 
d="M123 1434h225l-12 -510h-201z" />
    <glyph glyph-name="parenleft" unicode="(" horiz-adv-x="760" 
d="M307 283c0 -40 2 -84.333 6 -133c4 -47.333 19.667 -93.333 47 -138c26 -42 66.333 -79.333 121 -112c55.333 -33.333 121 -51.333 197 -54v-172c-28.667 0 -59.334 1.83301 -92.001 5.5s-66.167 11 -100.5 22s-69.333 26.5 -105 46.5s-71.167 46.667 -106.5 80
c-40 38 -69.333 75 -88 111c-19.333 36.667 -34.333 79.667 -45 129c-9.33301 44 -14.666 86.5 -15.999 127.5s-2 84.5 -2 130.5v471c0 44 0.666992 88 2 132s7.33301 90 18 138c11.333 44 26.833 84.667 46.5 122s47.834 73 84.501 107c40 36.667 93 70.334 159 101.001
c69.333 32 151 48.333 245 49v-172c-76 -0.666992 -141.333 -17.334 -196 -50.001c-54.667 -32 -95.334 -70 -122.001 -114c-27.333 -44.667 -43 -90.667 -47 -138s-6 -92 -6 -134v-555z" />
    <glyph glyph-name="parenright" unicode=")" horiz-adv-x="762" 
d="M455 838c0 122 -17.999 212.667 -53.999 272c-26 44 -67 82 -123 114c-55.333 32 -120.666 48.667 -195.999 50v172c82.667 -1.33301 159.167 -15.666 229.5 -42.999s129.5 -63 177.5 -107c33.333 -30 60.166 -62.667 80.499 -98s36.5 -79 48.5 -131
c6 -24.667 10.333 -48.334 13 -71.001s4.66699 -44.834 6 -66.501s2 -43.5 2 -65.5v-538c0 -45.333 -0.666992 -88.166 -2 -128.499s-6.66602 -83.5 -15.999 -129.5c-11.333 -49.333 -26.333 -92.333 -45 -129c-18 -37.333 -47 -74.333 -87 -111
c-72 -66 -143.333 -108.333 -214 -127c-66.667 -18 -127.334 -27 -182.001 -27h-11v172c76.667 3.33301 142 21 196 53c56 32 97 69.667 123 113c15.333 26 28.166 60.167 38.499 102.5s15.5 98.5 15.5 168.5v555z" />
    <glyph glyph-name="asterisk" unicode="*" horiz-adv-x="1040" 
d="M594 1552v-335l291 167l73 -127l-290 -167l290 -168l-77 -136l-287 166v-334h-148v334l-286 -166l-78 136l291 168l-291 167l74 127l290 -167v335h148z" />
    <glyph glyph-name="plus" unicode="+" horiz-adv-x="1186" 
d="M500 172v377h-377v174h377v377h186v-377h377v-174h-377v-377h-186z" />
    <glyph glyph-name="comma" unicode="," horiz-adv-x="569" 
d="M0 -129l250 416l196 -117l-264 -408z" />
    <glyph glyph-name="hyphen" unicode="-" horiz-adv-x="895" 
d="M82 657h731v-211h-731v211z" />
    <glyph glyph-name="hyphen" unicode="&#xad;" horiz-adv-x="895" 
d="M82 657h731v-211h-731v211z" />
    <glyph glyph-name="period" unicode="." horiz-adv-x="496" 
d="M123 0v264h250v-264h-250z" />
    <glyph glyph-name="slash" unicode="/" horiz-adv-x="1038" 
d="M0 -340l897 1856h141l-897 -1856h-141z" />
    <glyph glyph-name="zero" unicode="0" horiz-adv-x="1319" 
d="M82 930c0 58.667 4.83301 110.334 14.5 155.001s21.667 83.5 36 116.5s30.333 60.833 48 83.5s34.5 41.334 50.5 56.001c28.667 24.667 59.834 44.167 93.501 58.5s68.834 25.166 105.501 32.499s74.167 11.833 112.5 13.5s77.166 2.5 116.499 2.5s78.333 -1 117 -3
s76.167 -6.5 112.5 -13.5s71.166 -17.667 104.499 -32s64.666 -33.833 93.999 -58.5c16.667 -14.667 33.834 -33.334 51.501 -56.001s33.834 -50.667 48.501 -84s26.667 -72.333 36 -117s14 -96 14 -154v-412c0 -68 -5.16699 -127.667 -15.5 -179
s-23.666 -95.5 -39.999 -132.5s-34.666 -67.333 -54.999 -91s-40.833 -42.5 -61.5 -56.5c-21.333 -15.333 -45 -27.5 -71 -36.5s-52.833 -15.833 -80.5 -20.5s-55.5 -7.83398 -83.5 -9.50098s-54.667 -2.5 -80 -2.5h-183c-24.667 0 -50.834 0.833008 -78.501 2.5
s-55.334 4.83398 -83.001 9.50098s-54.5 11.5 -80.5 20.5s-49.667 21.167 -71 36.5c-39.333 27.333 -70.333 60.833 -93 100.5s-39.834 81 -51.501 124s-19.167 85.333 -22.5 127s-5 77.5 -5 107.5v412zM352 549c0 -66.667 4.5 -122 13.5 -166s24.5 -78.667 46.5 -104
c16 -19.333 34.333 -34 55 -44s42.167 -17.167 64.5 -21.5s44.666 -6.83301 66.999 -7.5s42.5 -1 60.5 -1c18.667 0 39.167 0.333008 61.5 1s44.5 3.16699 66.5 7.5s43.167 11.5 63.5 21.5s38.5 24.667 54.5 44c28.667 33.333 46 76 52 128
c3.33301 26 5.83301 50.833 7.5 74.5s2.5 46.167 2.5 67.5v369c0 16.667 -0.666992 36 -2 58s-5.16602 44.667 -11.499 68s-15.666 46.333 -27.999 69s-29.5 43 -51.5 61c-26.667 22.667 -61.334 38 -104.001 46c-40.667 8.66699 -77.667 13 -111 13
c-32.667 0 -69.667 -4.33301 -111 -13c-42.667 -8 -77.334 -23.333 -104.001 -46c-21.333 -18 -38.166 -38.333 -50.499 -61s-21.5 -45.5 -27.5 -68.5s-9.83301 -45.667 -11.5 -68s-2.5 -41.833 -2.5 -58.5v-369z" />
    <glyph glyph-name="one" unicode="1" horiz-adv-x="618" 
d="M225 1120c0 12.667 -0.666016 26.168 -1.99902 40.501s-5.33301 26.166 -12 35.499c-6.66699 10.667 -14.5 17.167 -23.5 19.5s-18.833 3.5 -29.5 3.5h-158v215h309c55.333 0 99.666 -13 132.999 -39c12 -10 21.667 -21 29 -33s12.833 -24.333 16.5 -37
s6 -25.167 7 -37.5s1.5 -23.833 1.5 -34.5v-1253h-271v1120z" />
    <glyph glyph-name="two" unicode="2" horiz-adv-x="1284" 
d="M233 0c-6.66699 0 -18.1689 1 -34.502 3s-33.166 8.5 -50.499 19.5s-32.666 28.167 -45.999 51.5s-20 56 -20 98c0 56.667 9 98.667 27 126c18.667 26 39 46.667 61 62l664 455c42 28.667 67.333 60 76 94c9.33301 36 14 73.667 14 113c0 36 -2.16699 65.833 -6.5 89.5
s-11.833 42.834 -22.5 57.501c-26 33.333 -74.333 50 -145 50h-572v215h696c17.333 0 36 -0.833008 56 -2.5s40.5 -5.5 61.5 -11.5s42.167 -14.5 63.5 -25.5s41.666 -25.833 60.999 -44.5c39.333 -40 63.666 -86.333 72.999 -139c4.66699 -26 8 -52.167 10 -78.5
s3 -52.833 3 -79.5c0 -40 -3 -86 -9 -138c-6 -50.667 -24.667 -99.667 -56 -147c-19.333 -27.333 -39.666 -49.5 -60.999 -66.5s-42.666 -33.167 -63.999 -48.5l-578 -401c-2.66699 -2.66699 -7 -6 -13 -10s-9 -9 -9 -15c0 -2.66699 1 -5.33398 3 -8.00098s6.33301 -4 13 -4
h713v-215h-908z" />
    <glyph glyph-name="three" unicode="3" horiz-adv-x="1268" 
d="M106 1434l718.997 -0.00195312c20 0 41.5 -0.666992 64.5 -2s46.5 -5.5 70.5 -12.5s47.833 -17.667 71.5 -32s45.834 -34.5 66.501 -60.5c31.333 -41.333 50.333 -87 57 -137c3.33301 -25.333 5.83301 -49 7.5 -71s2.5 -42.667 2.5 -62c0 -21.333 -0.833008 -43 -2.5 -65
s-4.16699 -44.333 -7.5 -67c-7.33301 -45.333 -26.333 -85.333 -57 -120c-7.33301 -8 -15.666 -16 -24.999 -24s-20.166 -15.5 -32.499 -22.5s-26 -13 -41 -18s-31.5 -8.16699 -49.5 -9.5v-6c32.667 -1.33301 62.334 -8.16602 89.001 -20.499s49 -26.5 67 -42.5
c18.667 -19.333 33.5 -40.333 44.5 -63s19 -45.834 24 -69.501s8.16699 -47 9.5 -70s2 -44.5 2 -64.5c0 -61.333 -5.33301 -117.666 -16 -168.999c-10 -52.667 -36 -100 -78 -142c-36.667 -36.667 -76.334 -60 -119.001 -70c-42.667 -9.33301 -84.334 -14 -125.001 -14h-766
v215h575c46 0 83.833 1 113.5 3s54.167 9.33301 73.5 22c30 18.667 48 43.667 54 75c6 30.667 9 62.334 9 95.001c0 16.667 -0.666992 32.667 -2 48s-3.33301 30.666 -6 45.999c-5.33301 30 -22.333 56 -51 78c-22.667 16.667 -47.334 26.334 -74.001 29.001l-35.5 3.5
c-10.333 1 -18.833 1.5 -25.5 1.5h-594v215h577c22 0 47.667 2 77 6c28.667 4.66699 53.667 18.667 75 42c8.66699 9.33301 15.667 20 21 32s9.33301 24.667 12 38s4.33398 26.833 5.00098 40.5s1 26.5 1 38.5c0 26 -2.16699 52.333 -6.5 79s-15.166 49.667 -32.499 69
c-19.333 18.667 -40.5 30.5 -63.5 35.5s-44.833 7.5 -65.5 7.5h-613v215z" />
    <glyph glyph-name="four" unicode="4" horiz-adv-x="1419" 
d="M905 242l-687.999 -0.00292969c-10 0 -20.167 0.166992 -30.5 0.5s-20.833 1.83301 -31.5 4.5s-21.5 6.83398 -32.5 12.501s-21.833 14.167 -32.5 25.5c-12 13.333 -23.167 32.333 -33.5 57s-15.5 57.334 -15.5 98.001c0 28.667 4.33301 57 13 85s31 62 67 102l692 741
c33.333 36 69 58.667 107 68c39.333 9.33301 70 14 92 14c20 0 41.667 -2.66699 65 -8s44.666 -17.666 63.999 -36.999c9.33301 -10 16.333 -19.667 21 -29s8 -18.5 10 -27.5s3.16699 -18.167 3.5 -27.5s0.5 -18.333 0.5 -27v-837h182v-215h-182v-242h-271v242z
M905.001 1137c0 5.33301 -2.66504 7.99805 -7.99805 7.99805c-2.66699 0 -5.33398 -1 -8.00098 -3s-8.33398 -8 -17.001 -18l-548 -608c-6 -5.33301 -11.667 -11.166 -17 -17.499s-8 -12.166 -8 -17.499c0 -4 2 -9 6 -15s14.333 -9 31 -9h569v680z" />
    <glyph glyph-name="five" unicode="5" horiz-adv-x="1266" 
d="M90 215l638.998 0.000976562c20 0 44.667 3 74 9c28.667 6 52.334 23.333 71.001 52c11.333 17.333 19.333 41 24 71c2.66699 15.333 4.5 30.333 5.5 45s1.5 28.667 1.5 42c0 9.33301 -0.5 20 -1.5 32l-3.5 40c-2.66699 28.667 -11.334 52.667 -26.001 72
c-3.33301 5.33301 -8 11 -14 17s-14 11.667 -24 17s-22.167 9.83301 -36.5 13.5s-30.833 5.5 -49.5 5.5h-381c-14 0.666992 -30 1 -48 1c-17.333 0 -35.333 1.16699 -54 3.5s-37 6.16602 -55 11.499s-34 13.666 -48 24.999c-20.667 13.333 -36.5 29.833 -47.5 49.5
s-19 39.834 -24 60.501s-8 40.5 -9 59.5s-1.5 34.167 -1.5 45.5v362c0 36 4.83301 64.5 14.5 85.5s19.834 36.833 30.501 47.5c12 12 24.833 21.5 38.5 28.5s27.334 12.333 41.001 16s26.167 5.83398 37.5 6.50098s20.666 1 27.999 1h865v-215h-717
c-11.333 0 -22 -1.5 -32 -4.5s-17.667 -7.83301 -23 -14.5c-7.33301 -6.66699 -11.333 -15.5 -12 -26.5s-1 -20.5 -1 -28.5v-178c0 -15.333 1 -31.833 3 -49.5s8.66699 -32.834 20 -45.501c10.667 -10.667 25.667 -17.667 45 -21s36.333 -5 51 -5h395
c44 0 86.667 -7 128 -21c42 -12.667 80.667 -42 116 -88c35.333 -45.333 56.333 -93 63 -143c3.33301 -25.333 6 -50.5 8 -75.5s3 -49.833 3 -74.5c0 -32.667 -1 -65.667 -3 -99s-6.33301 -65.833 -13 -97.5s-16.5 -61.5 -29.5 -89.5s-30.833 -53.333 -53.5 -76
c-20 -20.667 -42 -36.667 -66 -48s-48.167 -19.5 -72.5 -24.5s-48.166 -7.83301 -71.499 -8.5s-44 -1 -62 -1h-723v215z" />
    <glyph glyph-name="six" unicode="6" horiz-adv-x="1309" 
d="M854 879c40.667 0 84 -4 130 -12c45.333 -6.66699 88.666 -28.667 129.999 -66c26.667 -24 47.5 -50.5 62.5 -79.5s26.167 -58.5 33.5 -88.5s12 -59.5 14 -88.5s3 -55.5 3 -79.5c0 -16.667 -0.666992 -38 -2 -64s-4.16602 -53.833 -8.49902 -83.5
s-10.5 -59.5 -18.5 -89.5s-19 -57 -33 -81c-17.333 -31.333 -38.5 -56.5 -63.5 -75.5s-52 -33.833 -81 -44.5s-58.667 -17.834 -89 -21.501s-59.5 -5.5 -87.5 -5.5h-359c-48.667 0 -93 6.5 -133 19.5s-74 29.833 -102 50.5c-52 38 -86.333 85.333 -103 142
c-16 56.667 -24 117.667 -24 183v666c0 42.667 4 80.334 12 113.001s18.333 61 31 85s26.167 44.333 40.5 61s28.166 30.667 41.499 42c39.333 31.333 82.666 51 129.999 59c45.333 8.66699 85.333 13 120 13h657v-215h-561c-9.33301 0 -20.166 -0.5 -32.499 -1.5
s-26.166 -2.83301 -41.499 -5.5c-30 -4 -56.667 -17.667 -80 -41c-22 -22 -35.667 -47.333 -41 -76c-4 -28 -6 -49 -6 -63v-153h461zM393 408c0 -7.33301 0.166016 -17.5029 0.499023 -30.5029s1.83301 -26.5 4.5 -40.5s6.66699 -28 12 -42s12.666 -25.667 21.999 -35
c6 -5.33301 12.833 -10.666 20.5 -15.999s17.334 -10.166 29.001 -14.499s25.5 -7.83301 41.5 -10.5s35 -4 57 -4h174c9.33301 0 19.833 0.666992 31.5 2s24.5 3.33301 38.5 6c28 5.33301 53.667 21 77 47c23.333 26.667 37 56.667 41 90c4 34.667 6 64.334 6 89.001
c0 12.667 -0.333008 26 -1 40s-2.66699 28 -6 42s-8.16602 27.667 -14.499 41s-15.5 26 -27.5 38c-23.333 24.667 -50.333 39.667 -81 45c-31.333 6 -60.333 9 -87 9h-338v-256z" />
    <glyph glyph-name="seven" unicode="7" horiz-adv-x="1102" 
d="M805 1139c9.33301 14.667 15.333 25.501 18 32.501s4 13.833 4 20.5c0 13.333 -5 21.166 -15 23.499s-19.333 3.5 -28 3.5h-804v215h985c34 0 61.333 -4.33301 82 -13s36.5 -20.167 47.5 -34.5s18.333 -30.5 22 -48.5s5.5 -36 5.5 -54c0 -34 -4 -63.667 -12 -89
s-20.333 -51 -37 -77l-706 -1118h-301z" />
    <glyph glyph-name="eight" unicode="8" horiz-adv-x="1296" 
d="M311 731c-44 4.66699 -83.3311 26.002 -117.998 64.002c-38 38 -60.667 78.667 -68 122c-3.33301 21.333 -5.83301 42 -7.5 62s-2.5 39.667 -2.5 59c0 18 0.666992 40.667 2 68s5 55.666 11 84.999s15.5 58.333 28.5 87s31.167 53.334 54.5 74.001c22 20 48 35.5 78 46.5
s60.5 19.167 91.5 24.5s60.667 8.5 89 9.5s52.166 1.5 71.499 1.5h213c27.333 0 56 -0.833008 86 -2.5s59.667 -5.16699 89 -10.5s57.333 -13.5 84 -24.5s50 -25.833 70 -44.5c24 -22 42.667 -47 56 -75s23.166 -56.5 29.499 -85.5s10.166 -57 11.499 -84s2 -50.167 2 -69.5
s-1 -39 -3 -59s-4.66699 -40.667 -8 -62c-7.33301 -42.667 -29.666 -83.334 -66.999 -122.001c-34.667 -38 -74.334 -59.333 -119.001 -64v-4c28 -4 54.833 -11.5 80.5 -22.5s46.5 -23.833 62.5 -38.5c20.667 -19.333 36.834 -41 48.501 -65s20.167 -48.833 25.5 -74.5
s8.66602 -51.167 9.99902 -76.5s2 -49 2 -71c0 -24 -0.666992 -47.167 -2 -69.5s-3.33301 -43.833 -6 -64.5c-4.66699 -40 -23 -80 -55 -120c-23.333 -31.333 -48.833 -55.333 -76.5 -72s-56.667 -29 -87 -37s-61.166 -12.667 -92.499 -14s-62 -2 -92 -2h-309
c-30 0 -60.667 0.666992 -92 2s-62.333 6 -93 14s-60 20.333 -88 37s-53.333 40.667 -76 72c-14 20 -25.167 40.167 -33.5 60.5s-14.666 41 -18.999 62s-7.16602 42.5 -8.49902 64.5s-2 44.333 -2 67c0 22 0.666992 45.667 2 71s4.66602 50.833 9.99902 76.5
s13.833 50.5 25.5 74.5s27.834 45.667 48.501 65c19.333 17.333 42.166 31.166 68.499 41.499s51.166 16.833 74.499 19.5v4zM735.002 834.002c22 0 46.002 2 72.002 6c25.333 4 47.666 19.667 66.999 47s29 73 29 137c0 10.667 -0.666992 22.5 -2 35.5
s-3.33301 27.833 -6 44.5c-4.66699 31.333 -19 58 -43 80c-19.333 17.333 -41.5 27.5 -66.5 30.5s-49.167 4.5 -72.5 4.5h-131c-23.333 0 -47 -1.5 -71 -4.5s-46.333 -13.167 -67 -30.5c-24.667 -22 -39.667 -48.667 -45 -80c-4 -31.333 -6 -58 -6 -80
c0 -65.333 9 -111 27 -137c19.333 -27.333 42.666 -43 69.999 -47c28 -4 51.667 -6 71 -6h174zM756.004 215.002c39.333 0 70.334 5.83301 93.001 17.5s39.334 23.5 50.001 35.5c16.667 18.667 27 44.334 31 77.001c4 32 6 57.667 6 77c0 18.667 -3 44.667 -9 78
c-6 32.667 -22.667 60.667 -50 84c-21.333 16.667 -44.666 26.334 -69.999 29.001l-34.5 3.5c-9.66699 1 -17.834 1.5 -24.501 1.5h-199c-7.33301 0 -15.833 -0.5 -25.5 -1.5l-34.5 -3.5c-24.667 -2.66699 -47.667 -12.334 -69 -29.001
c-27.333 -23.333 -44.333 -51.333 -51 -84c-6 -33.333 -9 -59.333 -9 -78c0 -19.333 2 -45 6 -77c5.33301 -32.667 15.666 -58.334 30.999 -77.001c11.333 -12 28.166 -23.833 50.499 -35.5s53.5 -17.5 93.5 -17.5h215z" />
    <glyph glyph-name="nine" unicode="9" horiz-adv-x="1264" 
d="M147 215l555.003 -0.000976562c23.333 0 50 2 80 6s56.667 17.667 80 41c22.667 22.667 36.667 51.667 42 87c2.66699 17.333 4.5 33.333 5.5 48s1.5 27.667 1.5 39v121h-495c-12.667 0 -28.834 1 -48.501 3s-41 6.66699 -64 14s-46.5 18 -70.5 32s-46.333 33.333 -67 58
c-40 46 -64 97.667 -72 155c-8 56.667 -12 115.334 -12 176.001c0 24.667 0.833008 52.5 2.5 83.5s6.16699 62.333 13.5 94s18.166 62.667 32.499 93s34.166 57.833 59.499 82.5c43.333 38.667 91 62.334 143 71.001c52.667 10 101.334 15 146.001 15h289
c28 0 57.833 -1.16699 89.5 -3.5s63.167 -8.33301 94.5 -18s61.333 -23.834 90 -42.501s54 -44 76 -76c28 -40 45.333 -82 52 -126c8 -44 12 -83.667 12 -119v-578c0 -52 -2.83301 -103.167 -8.5 -153.5s-19.167 -97.5 -40.5 -141.5c-22 -43.333 -48 -77 -78 -101
s-60.833 -41.5 -92.5 -52.5s-62.334 -17.5 -92.001 -19.5s-55.5 -3 -77.5 -3h-646v215zM911.003 1028c0 16.667 -1.99902 38.9971 -5.99902 66.9971c-4 28.667 -17 53.334 -39 74.001c-12 12.667 -29.167 24.167 -51.5 34.5s-51.5 15.5 -87.5 15.5h-166
c-36.667 0 -66.334 -4.83301 -89.001 -14.5s-40.667 -21.5 -54 -35.5c-15.333 -13.333 -28.833 -34 -40.5 -62s-17.5 -67.333 -17.5 -118c0 -16 1 -32.167 3 -48.5s5.16699 -32.166 9.5 -47.499s9.83301 -29.666 16.5 -42.999s15 -25 25 -35
c10.667 -9.33301 23.5 -16.833 38.5 -22.5s30.167 -10 45.5 -13s30.333 -5 45 -6s27 -1.5 37 -1.5h331v256z" />
    <glyph glyph-name="colon" unicode=":" horiz-adv-x="496" 
d="M123 827v258h250v-258h-250zM123 0v258h250v-258h-250z" />
    <glyph glyph-name="less" unicode="&#x3c;" horiz-adv-x="1190" 
d="M1067 1303v-189l-608 -287l608 -286v-189l-944 475z" />
    <glyph glyph-name="equal" unicode="=" horiz-adv-x="1188" 
d="M123 403v175h942v-175h-942zM123 713v174h942v-174h-942z" />
    <glyph glyph-name="greater" unicode="&#x3e;" horiz-adv-x="1190" 
d="M123 352v189l608 286l-608 287v189l944 -476z" />
    <glyph glyph-name="at" unicode="@" horiz-adv-x="2081" 
d="M793 -397c-28.667 0 -65.0049 1.83984 -109.005 5.50684s-90.5 13.167 -139.5 28.5s-98.333 38.5 -148 69.5s-94.5 73.5 -134.5 127.5c-29.333 40.667 -53.166 86.667 -71.499 138s-32.5 108 -42.5 170s-16.667 129 -20 201s-5 148.667 -5 230
c0 68.667 1.16699 132.667 3.5 192s8 115.166 17 167.499s22.833 101.5 41.5 147.5s44.334 90 77.001 132c41.333 52 86.333 93 135 123s99.167 52.667 151.5 68s105.333 25 159 29s106.5 6 158.5 6h398c35.333 0 79 -2 131 -6c50.667 -2.66699 104 -13.334 160 -32.001
c28 -8.66699 55.667 -19.5 83 -32.5s54 -28.833 80 -47.5s50.833 -40.667 74.5 -66s45.5 -54.333 65.5 -87c24 -40.667 42.667 -82.834 56 -126.501s23.333 -88.334 30 -134.001s10.667 -92 12 -139s2 -94.5 2 -142.5s-0.666992 -93.5 -2 -136.5
s-4.16602 -83.667 -8.49902 -122s-10.833 -74.333 -19.5 -108s-20 -65.167 -34 -94.5c-26 -54 -60.833 -95.833 -104.5 -125.5s-100.834 -44.5 -171.501 -44.5c-30 0 -59.833 3.66699 -89.5 11s-57 18.666 -82 33.999s-47 35 -66 59s-32.833 52.667 -41.5 86
c-23.333 -42.667 -51 -76.667 -83 -102s-65 -44.5 -99 -57.5s-67.5 -21.333 -100.5 -25s-62.167 -5.5 -87.5 -5.5c-24 0 -52 1.83301 -84 5.5s-64.5 11.5 -97.5 23.5s-65.333 29.667 -97 53s-59.167 54.666 -82.5 93.999c-20 35.333 -35.833 81 -47.5 137
s-17.5 127.667 -17.5 215c0 94.667 6 167.667 18 219c6.66699 26 13.334 49.167 20.001 69.5s13.667 38.166 21 53.499c30 56.667 75.667 104.667 137 144s139.333 59 234 59h297c24.667 0 49.5 -2 74.5 -6s48.5 -17 70.5 -39c10.667 -12 18.834 -23.667 24.501 -35
s9.5 -22.833 11.5 -34.5s3 -23.167 3 -34.5v-543c0 -46 5.83301 -82.833 17.5 -110.5s25.667 -48.834 42 -63.501s33.666 -24.167 51.999 -28.5s34.5 -6.5 48.5 -6.5c57.333 0 99 32.667 125 98c5.33301 14 10 30 14 48s7.5 41.167 10.5 69.5s5.16699 63.666 6.5 105.999
s2 94.833 2 157.5c0 68.667 -2.33301 127.834 -7 177.501s-10.667 91.834 -18 126.501s-15.5 63.167 -24.5 85.5s-17.833 40.833 -26.5 55.5c-26 42 -56.833 74.833 -92.5 98.5s-72.834 41.167 -111.501 52.5s-77.167 18.333 -115.5 21s-73.166 4 -104.499 4h-412
c-43.333 0 -89.666 -2.5 -138.999 -7.5s-97.166 -16 -143.499 -33s-89 -41.833 -128 -74.5s-70.167 -77 -93.5 -133c-6 -14.667 -12 -33 -18 -55s-11.333 -51.5 -16 -88.5s-8.33398 -83.167 -11.001 -138.5s-4 -123.333 -4 -204c0 -24 0.5 -55.667 1.5 -95
s3.33301 -81.166 7 -125.499s8.66699 -88.833 15 -133.5s14.833 -84.334 25.5 -119.001c12.667 -35.333 29.334 -70 50.001 -104s48.667 -64.333 84 -91s80 -48.167 134 -64.5s121 -24.5 201 -24.5h621v-172h-653zM1255 805.007c0 22 -5.99805 39.001 -17.998 51.001
c-8 8 -18.5 13.833 -31.5 17.5s-25.167 5.5 -36.5 5.5h-153c-11.333 0 -24.5 -0.833008 -39.5 -2.5s-31 -5 -48 -10s-34.333 -12.167 -52 -21.5s-34.834 -22 -51.501 -38c-35.333 -37.333 -57 -81 -65 -131c-8 -51.333 -12 -101.333 -12 -150c0 -44 1.66699 -86.667 5 -128
s13.666 -78.333 30.999 -111c10.667 -20.667 22.834 -37.667 36.501 -51s28.5 -23.833 44.5 -31.5s33 -13 51 -16s37 -4.5 57 -4.5c26 0 49.667 2.66699 71 8s40.666 12.333 57.999 21s32.833 18.5 46.5 29.5s25.5 22.167 35.5 33.5c31.333 37.333 51 77.666 59 120.999
c8 44 12 82.333 12 115v293z" />
    <glyph glyph-name="A" unicode="A" horiz-adv-x="1287" 
d="M36 300l452 1279h310l453 -1279h-284l-86 260h-485l-85 -260h-275zM639 1294l-169 -514h340z" />
    <glyph glyph-name="B" unicode="B" horiz-adv-x="1287" 
d="M136 300v1279h619c123.333 0 219.666 -28.667 288.999 -86c70 -57.333 105 -136.666 105 -237.999c0 -106.667 -39 -187.334 -117 -242.001c-6.66699 -4.66699 -13.5 -9.16699 -20.5 -13.5s-14.5 -8.16602 -22.5 -11.499c30.667 -11.333 57.334 -25.333 80.001 -42
c82 -56 123 -138 123 -246c0 -131.333 -40.167 -230.833 -120.5 -298.5s-198.833 -101.5 -355.5 -101.5h-580zM391 862.999v-341h325c139.333 0 209 60.667 209 182c0 106 -71.333 159 -214 159h-320zM391 1359v-281h306c132.667 0 199 50 199 150
c0 87.333 -70 131 -210 131h-295z" />
    <glyph glyph-name="C" unicode="C" horiz-adv-x="1287" 
d="M1219 748c-16 -148.667 -74 -266.334 -174 -353.001c-98.667 -86.667 -225 -130 -379 -130c-180 0 -323 60 -429 180s-159 282.333 -159 487c0 208.667 53 374.667 159 498c106 122.667 249 184 429 184c152 0 277.667 -41.333 377 -124
c100.667 -82 159.334 -193 176.001 -333h-268c-8.66699 68.667 -38.334 123.334 -89.001 164.001s-115.334 61 -194.001 61c-99.333 0 -177 -39.667 -233 -119s-84 -189 -84 -329c0 -137.333 28 -244.333 84 -321c56 -77.333 133.667 -116 233 -116
c78.667 0 143.334 22.333 194.001 67c50 44 79.667 105.333 89 184h268z" />
    <glyph glyph-name="D" unicode="D" horiz-adv-x="1287" 
d="M136 300v1279h547c176 0 309.667 -51.667 401 -155s137 -254.333 137 -453c0 -219.333 -47.5 -386 -142.5 -500s-234.167 -171 -417.5 -171h-525zM403 520h225c217.333 0 326 146.667 326 440c0 266 -101.333 399 -304 399h-247v-839z" />
    <glyph glyph-name="E" unicode="E" horiz-adv-x="1188" 
d="M136 300v1279h941v-227h-674v-272h625v-220h-625v-333h704v-227h-971z" />
    <glyph glyph-name="F" unicode="F" horiz-adv-x="1088" 
d="M136 300v1279h910v-227h-643v-291h560v-220h-560v-541h-267z" />
    <glyph glyph-name="G" unicode="G" horiz-adv-x="1386" 
d="M686 265c-187.333 0 -335.334 60 -444.001 180c-109.333 120.667 -164 283 -164 487c0 208.667 56.667 374.667 170 498c114 122.667 268 184 462 184c154.667 0 282.667 -39 384 -117c100 -76.667 158.667 -181.667 176 -315h-268c-7.33301 56 -38.666 105 -93.999 147
s-116.666 63 -183.999 63c-116 0 -207 -40.333 -273 -121c-65.333 -80.667 -98 -192 -98 -334c0 -146 31.333 -256.667 94 -332c63.333 -75.333 155.333 -113 276 -113c103.333 0 184 39.667 242 119c31.333 44.667 54.666 97 69.999 157v3h-301v220h536v-690h-178l-26 165
l-16 -21c-90 -120 -211.333 -180 -364 -180z" />
    <glyph glyph-name="H" unicode="H" horiz-adv-x="1287" 
d="M126 300v1279h267v-479h500v479h268v-1279h-268v579h-500v-579h-267z" />
    <glyph glyph-name="I" unicode="I" horiz-adv-x="495" 
d="M114 300v1279h267v-1279h-267z" />
    <glyph glyph-name="J" unicode="J" horiz-adv-x="991" 
d="M596 1579h267v-920c0 -130.667 -34.667 -229 -104 -295s-172 -99 -308 -99c-144.667 0 -250.667 36.667 -318 110c-62.667 68 -94 171 -94 309v106h254v-94c0 -69.333 11.333 -121.333 34 -156c24.667 -37.333 65 -56 121 -56c52.667 0 90.5 13.667 113.5 41
s34.5 72 34.5 134v920z" />
    <glyph glyph-name="K" unicode="K" horiz-adv-x="1287" 
d="M155 300v1279h267v-530l490 530h341l-511 -523l545 -756h-350l-385 563l-130 -133v-430h-267z" />
    <glyph glyph-name="L" unicode="L" horiz-adv-x="1088" 
d="M136 300v1279h267v-1052h636v-227h-903z" />
    <glyph glyph-name="M" unicode="M" horiz-adv-x="1484" 
d="M372 300h-249v1279h391l233 -1014l230 1014h386v-1279h-249v1075l-240 -1075h-262l-240 1099v-1099z" />
    <glyph glyph-name="N" unicode="N" horiz-adv-x="1287" 
d="M372 300h-249v1279h280l513 -897v897h250v-1279h-266l-528 921v-921z" />
    <glyph glyph-name="O" unicode="O" horiz-adv-x="1386" 
d="M693 265c-188.667 0 -338.335 60 -449.002 180c-110.667 119.333 -166 281.666 -166 486.999c0 209.333 55.333 375.333 166 498s260.334 184 449.001 184s338.334 -61.333 449.001 -184s166 -288.667 166 -498c0 -205.333 -55.333 -367.666 -166 -486.999
c-111.333 -120 -261 -180 -449 -180zM692.999 492c108.667 0 193.667 39 255 117c62 78 93 186.333 93 325c0 142 -31 253 -93 333c-61.333 80 -146.333 120 -255 120s-194 -40 -256 -120c-61.333 -80.667 -92 -191.667 -92 -333c0 -138 30.667 -246.333 92 -325
c60.667 -78 146 -117 256 -117z" />
    <glyph glyph-name="P" unicode="P" horiz-adv-x="1188" 
d="M136 300v1279h535c146.667 0 257.667 -34 333 -102s113 -167.333 113 -298c0 -138.667 -37.667 -243.667 -113 -315s-186.333 -107 -333 -107c-34.667 0.666992 -67.667 1 -99 1h-45c-44.667 -0.666992 -86 -1.66699 -124 -3v-455h-267zM403 977h223
c149.333 0 224 66.333 224 199c0 122 -74.667 183 -224 183h-223v-382z" />
    <glyph glyph-name="Q" unicode="Q" horiz-adv-x="1386" 
d="M1176 207l-153.001 142.001c-91.333 -56 -201.333 -84 -330 -84c-188.667 0 -338.334 60 -449.001 180c-110.667 119.333 -166 281.666 -166 486.999c0 209.333 55.333 375.333 166 498s260.334 184 449.001 184s338.334 -61.333 449.001 -184s166 -288.667 166 -498
c0 -185.333 -45 -335.333 -135 -450l139 -131zM704.999 642.001l135 143l140 -127c40.667 70.667 61 162.667 61 276c0 142 -31 253 -93 333c-61.333 80 -146.333 120 -255 120s-194 -40 -256 -120c-61.333 -80.667 -92 -191.667 -92 -333c0 -138 30.667 -246.333 92 -325
c60.667 -78 146 -117 256 -117h5c50.667 0 96.667 9.66699 138 29z" />
    <glyph glyph-name="R" unicode="R" horiz-adv-x="1287" 
d="M136 300l0.000976562 1279h644c121.333 0 219.666 -32.667 294.999 -98c74.667 -64.667 112 -150.667 112 -258c0 -122.667 -41.667 -212.667 -125 -270c-11.333 -7.33301 -23.166 -14.166 -35.499 -20.499s-25.5 -12.166 -39.5 -17.499c15.333 -6 29.666 -13 42.999 -21
c72.667 -43.333 110.667 -116.333 114 -219l6 -210c0.666992 -20.667 2.16699 -38.334 4.5 -53.001s5.16602 -26.667 8.49902 -36c7.33301 -17.333 22 -31 44 -41v-34h-295c-3.33301 6.66699 -6.66602 17.167 -9.99902 31.5s-6.33301 32.166 -9 53.499
c-2.66699 22 -4.5 44.833 -5.5 68.5s-1.83301 48.167 -2.5 73.5l-2 118c-0.666992 28.667 -5.16699 53.167 -13.5 73.5s-21 36.833 -38 49.5s-38.833 21.834 -65.5 27.501s-59 8.5 -97 8.5h-266v-505h-267zM403.001 1020h310c138 0 207 56.667 207 170
c0 112.667 -65.667 169 -197 169h-320v-339z" />
    <glyph glyph-name="S" unicode="S" horiz-adv-x="1188" 
d="M829 1195c-2 30.667 -10 58.335 -24 83.002s-32.667 45.5 -56 62.5s-51.166 30.167 -83.499 39.5s-67.833 14 -106.5 14c-68.667 0 -122 -14.833 -160 -44.5s-57 -71.5 -57 -125.5c0 -38.667 20 -68.334 60 -89.001c19.333 -10.667 49.833 -22 91.5 -34
s94.834 -25.333 159.501 -40c186 -40.667 310.667 -88.667 374 -144c62.667 -54 94 -140.667 94 -260c0 -120 -47.333 -215.333 -142 -286s-222.667 -106 -384 -106c-81.333 0 -153.833 9.5 -217.5 28.5s-117.667 47 -162 84s-79 82.167 -104 135.5
s-38.833 114.666 -41.5 183.999h257c2.66699 -68.667 27.167 -121.167 73.5 -157.5s111.166 -54.5 194.499 -54.5c86 0 152.833 13.833 200.5 41.5s71.5 65.834 71.5 114.501c0 48 -17.333 83.333 -52 106c-16.667 11.333 -42.834 22.833 -78.501 34.5
s-81.5 23.834 -137.5 36.501c-202 44.667 -337.667 93.667 -407 147c-68 52 -102 133.333 -102 244c0 123.333 45 221.666 135 294.999c90.667 73.333 212.334 110 365.001 110c143.333 0 259.666 -38 348.999 -114c90 -74.667 140 -176.334 150 -305.001h-260z" />
    <glyph glyph-name="T" unicode="T" horiz-adv-x="1088" 
d="M412 300v1052h-387v227h1040v-227h-386v-1052h-267z" />
    <glyph glyph-name="U" unicode="U" horiz-adv-x="1287" 
d="M1161 782c0 -183.333 -40.333 -315.334 -121 -396.001s-212.334 -121 -395.001 -121c-175.333 0 -305.166 42.167 -389.499 126.5s-126.833 214.5 -127.5 390.5v797h267v-806c0 -183.333 83.333 -275 250 -275c89.333 0 153 21 191 63c38 42.667 57 113.334 57 212.001
v806h268v-797z" />
    <glyph glyph-name="V" unicode="V" horiz-adv-x="1188" 
d="M34 1579h284l281 -977l280 977h275l-433 -1279h-254z" />
    <glyph glyph-name="W" unicode="W" horiz-adv-x="1682" 
d="M385 300l-356 1279h278l213 -936l183 936h284l186 -928l212 928h270l-356 -1279h-254l-205 1007l-201 -1007h-254z" />
    <glyph glyph-name="X" unicode="X" horiz-adv-x="1188" 
d="M25 300l414 647l-386 632h316l225 -413l233 413h308l-389 -612l417 -667h-319l-251 440l-252 -440h-316z" />
    <glyph glyph-name="Y" unicode="Y" horiz-adv-x="1188" 
d="M473 781l-446 798h318l266 -555l249 555h303l-423 -793v-486h-267v481z" />
    <glyph glyph-name="Z" unicode="Z" horiz-adv-x="1088" 
d="M44 524l663 828h-641v227h978v-211l-675 -841h673v-227h-998v224z" />
    <glyph glyph-name="bracketleft" unicode="[" horiz-adv-x="593" 
d="M112 -52v1640h439v-172h-216v-1297h216v-171h-439z" />
    <glyph glyph-name="bracketright" unicode="]" horiz-adv-x="593" 
d="M481 -52h-438v171h215v1297h-215v172h438v-1640z" />
    <glyph glyph-name="underscore" unicode="_" horiz-adv-x="1024" 
d="M0 -100h1024v-60h-1024v60z" />
    <glyph glyph-name="a" unicode="a" horiz-adv-x="991" 
d="M343 276c-88.667 0 -159.332 24.998 -211.999 74.998c-53.333 50 -80 116 -80 198c0 86.667 24 155.834 72 207.501s118.333 84.167 211 97.5l165 23c21.333 3.33301 40.833 7.33301 58.5 12s33.834 10.334 48.501 17.001c12 6 21.333 16.667 28 32
c5.33301 11.333 8 23 8 35c0 3.33301 -0.333008 7 -1 11c-2.66699 26 -16.334 46.667 -41.001 62c-28 18 -68.667 27 -122 27c-48 0 -85.333 -11.5 -112 -34.5s-40.667 -55.833 -42 -98.5h-240c11.333 221.333 152 332 422 332c118 0 211 -25 279 -75
c68 -49.333 102 -117 102 -203v-529c0 -43.333 3.33301 -73 10 -89c7.33301 -17.333 21.666 -30.666 42.999 -39.999v-35h-270c-5.33301 19.333 -10 38.166 -14 56.499s-6.66699 36.833 -8 55.5l-1 2c-78 -92.667 -179.333 -139 -304 -139zM643.002 649.998v108.001
c-28.667 -16 -67 -29 -115 -39l-92 -17c-88.667 -16 -133 -58.333 -133 -127c0 -38 10.167 -67.667 30.5 -89s48.5 -32 84.5 -32c80.667 0 144.667 28 192 84c9.33301 11.333 17 27.666 23 48.999c6.66699 20 10 41 10 63z" />
    <glyph glyph-name="b" unicode="b" horiz-adv-x="1088" 
d="M109 1579l248.999 0.000976562v-456l6 7c66.667 94.667 155.334 142 266.001 142c120 0 216.333 -44.333 289 -133c73.333 -89.333 110 -206.333 110 -351c0 -152.667 -36.667 -276.334 -110 -371.001c-73.333 -94 -169.666 -141 -288.999 -141
c-110.667 0 -199.334 44 -266.001 132l-11 14v-122h-244v1279zM558.999 481.001c66.667 0 119.001 24.834 157.001 74.501s57 119.5 57 209.5c0 46 -4.83301 87 -14.5 123s-23.834 66.5 -42.501 91.5s-41.167 44 -67.5 57s-56.166 19.5 -89.499 19.5
c-66.667 0 -118.834 -26.333 -156.501 -79s-56.5 -126 -56.5 -220c0 -86.667 19 -154.334 57 -203.001c36.667 -48.667 88.667 -73 156 -73z" />
    <glyph glyph-name="c" unicode="c" horiz-adv-x="991" 
d="M934 651c-13.333 -118 -57.333 -210.001 -132 -276.001c-75.333 -66 -172.666 -99 -291.999 -99c-143.333 0 -254 42.333 -332 127s-117 206.334 -117 365.001c0 154 40.333 276.333 121 367c81.333 91.333 190.666 137 327.999 137c122 0 221.667 -33.667 299 -101
c78 -67.333 119.667 -155.666 125 -264.999h-255c-1.33301 23.333 -6.16602 44.666 -14.499 63.999s-20 35.833 -35 49.5s-32.667 24.334 -53 32.001s-42.5 11.5 -66.5 11.5c-62.667 0 -110.334 -25 -143.001 -75s-49 -123.333 -49 -220
c0 -94.667 16.333 -166.334 49 -215.001s80.334 -73 143.001 -73c45.333 0 83.666 15.667 114.999 47c30.667 30.667 48.667 72 54 124h255z" />
    <glyph glyph-name="d" unicode="d" horiz-adv-x="1088" 
d="M464 276c-120.667 0 -218 47 -292 141s-111 217.667 -111 371c0 144.667 36.667 261.667 110 351c74 88.667 171 133 291 133c108 0 194.333 -45.333 259 -136l11 -14v457h249v-1279h-242v121l-4 -6c-68.667 -92.667 -159 -139 -271 -139zM531 1056
c-66.667 0 -118.832 -25.501 -156.499 -76.501s-56.5 -122.5 -56.5 -214.5c0 -90 18.667 -159.833 56 -209.5s89.333 -74.5 156 -74.5c68 0 120.667 26.167 158 78.5s56 125.833 56 220.5c0 86.667 -18.833 154.334 -56.5 203.001s-89.834 73 -156.501 73z" />
    <glyph glyph-name="e" unicode="e" horiz-adv-x="991" 
d="M491 276c-72 0 -136.001 11.333 -192.001 34s-103 55.667 -141 99s-67 96.833 -87 160.5s-30 136.5 -30 218.5c0 151.333 39.667 269.666 119 354.999c78.667 86 189 129 331 129c144 0 255 -43.667 333 -131s117 -211.666 117 -372.999
c0.666992 -4.66699 1 -9.66699 1 -15c0 -14 -1.66699 -27.667 -5 -41h-645c6 -74.667 22.667 -130.667 50 -168c34.667 -46.667 92.667 -70 174 -70c36.667 0 71.334 10.667 104.001 32c32 20.667 51.667 46.667 59 78h254c-22 -96 -72 -171.667 -150 -227
c-78 -54 -175.333 -81 -292 -81zM680.999 871c-4.66699 56.667 -19.667 101.001 -45 133.001c-32 42 -81.667 63 -149 63c-64 0 -113 -24.667 -147 -74c-20.667 -30.667 -35.667 -71.334 -45 -122.001h386z" />
    <glyph glyph-name="f" unicode="f" horiz-adv-x="593" 
d="M405 1072v-772h-249v772h-139v175h139v79c0 180 97.667 270 293 270h16c37.333 0 71 -2 101 -6v-199h-79c-32.667 0 -54.667 -6.66699 -66 -20c-10.667 -12.667 -16 -40 -16 -82v-42h161v-175h-161z" />
    <glyph glyph-name="g" unicode="g" horiz-adv-x="1088" 
d="M543 103c70 0 120.334 17.001 151.001 51.001s46 90.333 46 169v116l-20 -30c-55.333 -76 -134.333 -114 -237 -114c-123.333 0 -223 44 -299 132c-75.333 89.333 -113 206.333 -113 351c0 147.333 36.667 266.666 110 357.999c74 90.667 171 136 291 136
c106.667 0 189 -38.667 247 -116l16 -23c5.33301 -8 10.333 -16.333 15 -25v139h235v-897c0 -149.333 -37 -259.5 -111 -330.5s-189.333 -106.5 -346 -106.5c-128.667 0 -231 25 -307 75c-76.667 50 -117.334 119.333 -122.001 208h272c2 -32 16.667 -55.5 44 -70.5
s70 -22.5 128 -22.5zM535.001 1056c-64.667 0 -115.333 -24.832 -152 -74.499s-55 -118.5 -55 -206.5c0 -87.333 18.167 -155 54.5 -203s86.833 -72 151.5 -72c32.667 0 62 6.33301 88 19s48 31 66 55s31.667 53.167 41 87.5s14 73.166 14 116.499
c0 88 -18.5 156.333 -55.5 205s-87.833 73 -152.5 73z" />
    <glyph glyph-name="h" unicode="h" horiz-adv-x="1088" 
d="M116 300l0.000976562 1279h249v-453l20 28c62 78.667 151.333 118 268 118c99.333 0 177.666 -29.667 234.999 -89c56.667 -58.667 85 -140.667 85 -246v-637h-250v592c0 114.667 -51.333 172 -154 172c-66 0 -116.5 -19.667 -151.5 -59s-52.5 -96.333 -52.5 -171v-534
h-249z" />
    <glyph glyph-name="i" unicode="i" horiz-adv-x="495" 
d="M125 300v947h250v-947h-250zM123 1588h254v-231h-254v231z" />
    <glyph glyph-name="j" unicode="j" horiz-adv-x="495" 
d="M121 1247l250 0.000976562v-1051c0 -102.667 -22.333 -174.334 -67 -215.001c-44.667 -41.333 -121.667 -62 -231 -62l-68 1v199l31 -1c16.667 0 30.5 1.16699 41.5 3.5s19.667 6.5 26 12.5s10.833 14 13.5 24s4 22.667 4 38v1051zM119 1588h254v-231h-254v231z" />
    <glyph glyph-name="k" unicode="k" horiz-adv-x="991" 
d="M123 300v1279h249v-691l312 359h308l-342 -359l350 -588h-296l-228 407l-104 -109v-298h-249z" />
    <glyph glyph-name="l" unicode="l" horiz-adv-x="495" 
d="M123 300v1279h249v-1279h-249z" />
    <glyph glyph-name="m" unicode="m" horiz-adv-x="1584" 
d="M114 300l-0.000976562 946.999h237v-153c10.667 26.667 24.667 50.667 42 72c54.667 70.667 134.667 106 240 106c84.667 0 153.334 -28.333 206.001 -85c20 -20 36.333 -43.667 49 -71l31 50c50.667 70.667 125.667 106 225 106c102.667 0 183 -30.667 241 -92
s87 -145.666 87 -252.999v-627h-250v556c0 70.667 -11.5 123 -34.5 157s-58.833 51 -107.5 51c-52.667 0 -92.667 -16 -120 -48s-41 -78.333 -41 -139v-577h-250v597c0 111.333 -49.667 167 -149 167c-50 0 -88.5 -16 -115.5 -48s-40.5 -78.333 -40.5 -139v-577h-250z" />
    <glyph glyph-name="n" unicode="n" horiz-adv-x="1088" 
d="M116 300l0.000976562 947h237v-141l16 25l16 23c62 78.667 151.333 118 268 118c99.333 0 177.666 -29.667 234.999 -89c56.667 -58.667 85 -140.667 85 -246v-637h-250v592c0 114.667 -51.333 172 -154 172c-66 0 -116.5 -19.667 -151.5 -59s-52.5 -96.333 -52.5 -171
v-534h-249z" />
    <glyph glyph-name="o" unicode="o" horiz-adv-x="1088" 
d="M545 276c-148.667 0 -266.332 44.333 -352.999 133c-87.333 89.333 -131 209 -131 359c0 153.333 43.667 275.666 131 366.999s205 137 353 137s265.667 -45.667 353 -137s131 -213.666 131 -366.999c0 -150 -43.667 -269.667 -131 -359
c-86.667 -88.667 -204.334 -133 -353.001 -133zM545.002 484c74.667 0 131.334 24.333 170.001 73s58 120 58 214c0 96 -19.333 168.667 -58 218s-95.334 74 -170.001 74s-131.167 -24.667 -169.5 -74s-57.5 -122 -57.5 -218c0 -94 19.167 -165.333 57.5 -214
s94.833 -73 169.5 -73z" />
    <glyph glyph-name="p" unicode="p" horiz-adv-x="1088" 
d="M110 1247h237.999v-141l17 24c66.667 94.667 155.334 142 266.001 142c120 0 216.333 -44.333 289 -133s109 -205.667 109 -351c0 -154 -36.333 -277.667 -109 -371c-73.333 -94 -169.666 -141 -288.999 -141c-110.667 0 -199.334 44 -266.001 132l-5 7v-486h-250v1318z
M558.999 481c66.667 0 119.001 24.832 157.001 74.499s57 119.5 57 209.5c0 92 -18.833 163.5 -56.5 214.5s-89.834 76.5 -156.501 76.5s-118.667 -26.333 -156 -79s-56 -126 -56 -220c0 -87.333 18.5 -155.166 55.5 -203.499s88.833 -72.5 155.5 -72.5z" />
    <glyph glyph-name="q" unicode="q" horiz-adv-x="1088" 
d="M465 276c-120.667 0 -218.334 44 -293.001 132c-74 88.667 -111 205.334 -111 350.001c0 155.333 38.333 279.666 115 372.999c76.667 94 177.334 141 302.001 141c102.667 0 185.334 -45.333 248.001 -136c10.667 -15.333 19.667 -30.333 27 -45v156h230v-1318h-250v482
c-66.667 -90 -154.334 -135 -263.001 -135h-5zM532 1056c-68 0 -120.668 -25.501 -158.001 -76.501s-56 -122.5 -56 -214.5c0 -90 18.833 -159.833 56.5 -209.5s89.834 -74.5 156.501 -74.5c68 0 120.833 26.167 158.5 78.5s56.5 125.833 56.5 220.5
c0 86.667 -19 154.334 -57 203.001s-90.333 73 -157 73z" />
    <glyph glyph-name="r" unicode="r" horiz-adv-x="693" 
d="M114 300l-0.000976562 947h237v-170c8.66699 18.667 18.667 36.667 30 54c58.667 94 134.334 141 227.001 141l57 -1v-255c-22 2 -47 3 -75 3c-150.667 0 -226 -75.667 -226 -227v-492h-250z" />
    <glyph glyph-name="s" unicode="s" horiz-adv-x="991" 
d="M652 963c0 36.667 -15.168 66.0039 -45.501 88.0039s-70.5 33 -120.5 33c-48 0 -85.5 -8.16699 -112.5 -24.5s-40.5 -39.5 -40.5 -69.5c0 -21.333 15.333 -39.333 46 -54c31.333 -15.333 85 -31.333 161 -48c154.667 -34 257 -71.333 307 -112
c52 -41.333 78 -105.333 78 -192c0 -92 -37.667 -166.667 -113 -224c-75.333 -56 -174.333 -84 -297 -84c-146.667 0 -259 27.667 -337 83s-119.667 136.666 -125 243.999h254c2 -44 21.167 -78.167 57.5 -102.5s86.5 -36.5 150.5 -36.5c50 0 89 8.5 117 25.5
s42 40.833 42 71.5c0 21.333 -13.667 39.666 -41 54.999c-13.333 7.33301 -32 14.666 -56 21.999s-53 14.666 -87 21.999c-160 36 -267 74 -321 114c-54 38.667 -81 100 -81 184c0 94 35 169.667 105 227c70 58 162 87 276 87c128.667 0 232.334 -28.333 311.001 -85
c79.333 -57.333 119 -132 119 -224h-247z" />
    <glyph glyph-name="t" unicode="t" horiz-adv-x="593" 
d="M551 295c-21.333 -1.33301 -44.666 -2.5 -69.999 -3.5s-53.333 -1.5 -84 -1.5c-44 0 -81.667 3.83301 -113 11.5s-57 19.5 -77 35.5s-34.667 36.833 -44 62.5s-14 56.5 -14 92.5v580h-132v175h132v254h249v-254h153v-175h-153v-538c0 -11.333 1.5 -20.5 4.5 -27.5
s8.16699 -12.5 15.5 -16.5s17.666 -6.66699 30.999 -8s30 -2 50 -2h52v-185z" />
    <glyph glyph-name="u" unicode="u" horiz-adv-x="1088" 
d="M367 1247l-0.00195312 -593.001c0 -58.667 12.333 -101.667 37 -129s63 -41 115 -41c66 0 116.167 19.5 150.5 58.5s51.5 95.833 51.5 170.5v534h250v-947h-238v142c-4.66699 -8.66699 -9.5 -17.167 -14.5 -25.5s-10.5 -16.166 -16.5 -23.499
c-61.333 -78 -150.333 -117 -267 -117c-50 0 -94.667 7.5 -134 22.5s-72.666 36.833 -99.999 65.5s-48.166 63.667 -62.499 105s-21.5 88 -21.5 140v638h250z" />
    <glyph glyph-name="v" unicode="v" horiz-adv-x="991" 
d="M23 1247h276l202 -706l204 706h262l-341 -947h-261z" />
    <glyph glyph-name="w" unicode="w" horiz-adv-x="1386" 
d="M292 300l-275 947h265l151 -696l142 696h250l140 -697l154 697h251l-274 -947h-255l-145 705l-149 -705h-255z" />
    <glyph glyph-name="x" unicode="x" horiz-adv-x="991" 
d="M27 300l322 484l-309 463h301l159 -280l159 280h292l-308 -468l321 -479h-307l-165 289l-164 -289h-301z" />
    <glyph glyph-name="y" unicode="y" horiz-adv-x="991" 
d="M960 1247l-339 -967c-55.333 -160 -102 -260 -140 -300c-38.667 -40.667 -108 -61 -208 -61l-119 3v200c5.33301 -2.66699 21.333 -4 48 -4c66.667 0 110 13.667 130 41c12.667 16.667 25.667 52.667 39 108l-354 980h276l206 -703l200 703h261z" />
    <glyph glyph-name="z" unicode="z" horiz-adv-x="891" 
d="M36 494l479 548l6 7h-450v198h762v-205l-473 -538h495v-204h-819v194z" />
    <glyph glyph-name="braceleft" unicode="{" horiz-adv-x="693" 
d="M651 -51c-23.333 -1.33301 -45.666 -1.99609 -66.999 -1.99609c-104 0 -182.667 19 -236 57c-64 45.333 -96 121.666 -96 228.999v231c0 93.333 -8.66699 151.666 -26 174.999s-64.333 40 -141 50v158c76.667 10 123.667 26.667 141 50s26 81.666 26 174.999v231
c0 107.333 32 184 96 230c54 38 134 57 240 57c20 0 41 -0.666992 63 -2v-160c-14.667 0.666992 -28 1 -40 1c-58 0 -94.667 -7.66699 -110 -23c-18.667 -18.667 -28 -70.334 -28 -155.001v-232c0 -92.667 -27.667 -159.667 -83 -201c-26 -19.333 -61.333 -36.333 -106 -51
c45.333 -13.333 80.666 -29.666 105.999 -48.999c55.333 -41.333 83 -108.333 83 -201v-232c0 -84.667 9.33301 -136.334 28 -155.001c14.667 -15.333 48.667 -23 102 -23c14.667 0 30.667 0.666992 48 2v-160z" />
    <glyph glyph-name="bar" unicode="|" horiz-adv-x="499" 
d="M150 -145v1781h199v-1781h-199z" />
    <glyph glyph-name="braceright" unicode="}" horiz-adv-x="693" 
d="M43 -51l-0.00292969 159.997c16 -0.666992 31 -1 45 -1c54.667 0 89.334 7.33301 104.001 22c18.667 18.667 28 70.334 28 155.001v232c0 92.667 28 159.667 84 201c24.667 19.333 59.667 35.666 105 48.999c-45.333 14.667 -80.333 31.667 -105 51
c-56 40.667 -84 107.667 -84 201v232c0 84.667 -9.33301 136.334 -28 155.001c-15.333 15.333 -51.666 23 -108.999 23c-12.667 0 -26 -0.333008 -40 -1v160c22 1.33301 43 2 63 2c106 0 186 -19 240 -57c63.333 -46 95 -122.667 95 -230v-231
c0 -93.333 8.66699 -151.666 26 -174.999s64.333 -40 141 -50v-158c-76.667 -10 -123.667 -26.667 -141 -50s-26 -81.666 -26 -174.999v-231c0 -107.333 -32 -184 -96 -230c-52.667 -37.333 -131 -56 -235 -56c-21.333 0 -43.666 0.666992 -66.999 2z" />
    <glyph glyph-name="asciitilde" unicode="~" horiz-adv-x="1041" 
d="M109 748c10 24 22.667 45.5 38 64.5s32.666 35.333 51.999 49s40.166 24.167 62.499 31.5s45.5 11 69.5 11c14.667 0 29.834 -1.16699 45.501 -3.5s32.5 -6.33301 50.5 -12s37.667 -12.834 59 -21.501s45.333 -19 72 -31c36 -16.667 67.833 -30.167 95.5 -40.5
s47.167 -15.5 58.5 -15.5c28 0 54.167 10.5 78.5 31.5s49.833 54.5 76.5 100.5l65 -159c-13.333 -24 -28.333 -45.5 -45 -64.5s-34.667 -35.167 -54 -48.5s-39.5 -23.666 -60.5 -30.999s-41.833 -11 -62.5 -11c-16 0 -32 1.33301 -48 4s-33 7.16699 -51 13.5
s-37.333 14.5 -58 24.5s-44 22.667 -70 38c-24 13.333 -50.333 23.833 -79 31.5s-55.667 11.5 -81 11.5c-27.333 0 -55.666 -12.667 -84.999 -38c-28.667 -24.667 -50 -55.667 -64 -93z" />
    <glyph glyph-name="sterling" unicode="&#xa3;" 
d="M748 1347c-48 20.667 -101.333 30.999 -160 30.999h-2c-66.667 0 -130 -33.667 -190 -101c-56 -62 -84 -142.333 -84 -241c0 -10 0.333008 -20 1 -30c0 -90 17.667 -181 53 -273h360v-60h-334c9.33301 -20 19.666 -40 30.999 -60c23.333 -42 35 -88 35 -138
c0 -107.333 -54 -232.333 -162 -375h402c86.667 0 149.667 44 189 132l49 -1l-103 -231h-719l1 50c124.667 158.667 187 298 187 418c0 51.333 -11.333 99 -34 143c-11.333 21.333 -21.666 42 -30.999 62h-161v60h135c-38.667 95.333 -58 179.666 -58 252.999
c0 150.667 41.167 266.334 123.5 347.001s184.5 121 306.5 121h4c50 0 111.833 -4.66699 185.5 -14s110.5 -20.666 110.5 -33.999v-161h-58c-3.33301 40.667 -29 74.667 -77 102z" />
    <glyph glyph-name="currency" unicode="&#xa4;" 
d="M350 560c27.333 -26.667 60.333 -45.6641 99 -56.9971c19.333 -5.33301 38.666 -8 57.999 -8s38.666 2.66699 57.999 8c38.667 11.333 71.667 30.333 99 57c26.667 27.333 45.667 60.333 57 99c6 19.333 9 38.666 9 57.999s-3 38.666 -9 57.999
c-11.333 38.667 -30.333 71.667 -57 99c-27.333 26.667 -60.666 45.667 -99.999 57c-19.333 5.33301 -38.666 8 -57.999 8s-38.666 -3 -57.999 -9c-38.667 -11.333 -71.334 -30 -98.001 -56c-26 -26.667 -44.667 -59.334 -56 -98.001c-6.66699 -20 -10 -40 -10 -60
c0 -18.667 3 -37.334 9 -56.001c10.667 -39.333 29.667 -72.666 57 -99.999zM240 903.003l-118.001 118l80 81l118 -118c29.333 20 62.333 35.333 99 46c29.333 9.33301 59 14 89 14c27.333 0 55 -4 83 -12c38 -11.333 72 -27.333 102 -48l118 118l80 -81l-117 -117
c20.667 -30.667 36.667 -64.667 48 -102c8 -28 12 -56.333 12 -85c0 -28 -4 -56.333 -12 -85c-11.333 -37.333 -27.333 -71.333 -48 -102l117 -117l-80 -81l-118 118c-30 -21.333 -63.667 -37.333 -101 -48c-28 -8 -56.333 -12 -85 -12c-28 0 -56.333 4 -85 12
c-38 10.667 -72 26.667 -102 48l-118 -118l-80 81l118 117c-21.333 30.667 -37.333 65 -48 103c-8 28 -12 56 -12 84c0 29.333 4.33301 58.333 13 87c10.667 36.667 26.334 69.667 47.001 99z" />
    <glyph glyph-name="yen" unicode="&#xa5;" horiz-adv-x="1262" 
d="M547 225l-1.99707 241.993c0 12.667 -0.5 24.334 -1.5 35.001s-2.5 21.334 -4.5 32.001l-484 1c-9.33301 0 -16.333 2.16699 -21 6.5s-7 10.833 -7 19.5s2.16699 15 6.5 19s11.5 6 21.5 6h467l-121 172h-344c-11.333 0 -19.166 1.83301 -23.499 5.5
s-6.5 9.83398 -6.5 18.501c0 9.33301 2 15.833 6 19.5s11.333 5.5 22 5.5h307c-28.667 38 -64.667 89.667 -108 155c-87.333 131.333 -163 197 -227 197c-4.66699 0 -9 1.83301 -13 5.5s-6 7.5 -6 11.5c0 12.667 3.5 21.834 10.5 27.501s17.833 8.5 32.5 8.5
c18 0 59 -2.66699 123 -8s118.667 -8 164 -8h88c22 0 35.667 -2.16699 41 -6.5s8 -13.166 8 -26.499c0 -5.33301 -5 -10 -15 -14s-22.667 -6 -38 -6c-4 0 -10.167 0.666992 -18.5 2s-14.5 2 -18.5 2c-16 0 -28.5 -3.16699 -37.5 -9.5s-13.5 -14.833 -13.5 -25.5
c0 -12 5.5 -29.333 16.5 -52s26.5 -48.334 46.5 -77.001l158 -221c8.66699 -12.667 19.667 -30.334 33 -53.001c27.333 -46.667 51 -70 71 -70c6 0 11.5 1.66699 16.5 5s9.83301 8.33301 14.5 15l277 396c5.33301 8 9.66602 16.833 12.999 26.5s5 17.834 5 24.501
c0 12 -3.33301 21 -10 27s-19 10.667 -37 14c-10 1.33301 -23.667 2.66602 -41 3.99902c-31.333 2 -47 10.333 -47 25c0 10 2.66699 17.5 8 22.5s13.666 7.5 24.999 7.5c2 0 7 -0.333008 15 -1c37.333 -4.66699 73.333 -7 108 -7h139c20 0 41.667 0.333008 65 1
s35.666 1 36.999 1c7.33301 0 13.5 -1.5 18.5 -4.5s7.83301 -6.83301 8.5 -11.5c0 -18.667 -12.667 -30 -38 -34c-12 -2 -21 -3.66699 -27 -5c-42 -10 -91 -49 -147 -117l-12 -15l-169 -206h323c10 0 18 -2 24 -6s9 -9.66699 9 -17c0 -10 -2 -16.833 -6 -20.5
s-11.667 -5.5 -23 -5.5h-366c-30.667 -38 -62.834 -75.5 -96.501 -112.5s-51.167 -56.833 -52.5 -59.5h511c12 0 20.5 -1.83301 25.5 -5.5s7.5 -9.5 7.5 -17.5c0 -9.33301 -2.33301 -16.333 -7 -21s-12 -7 -22 -7h-530c0 -7.33301 -0.333008 -17.5 -1 -30.5
s-1 -22.833 -1 -29.5l2 -215c0 -76 1.83301 -126 5.5 -150s10.5 -38.667 20.5 -44c20 -11.333 55.833 -17.666 107.5 -18.999s77.5 -11.666 77.5 -30.999c0 -8 -3.33301 -14.667 -10 -20s-15 -8 -25 -8c-1.33301 0 -13.166 1.33301 -35.499 4s-43.833 4 -64.5 4
c-60.667 0 -130.167 -1.33301 -208.5 -4s-125.833 -4 -142.5 -4c-20.667 0 -34 1.33301 -40 4s-9 8 -9 16s2.66699 14.167 8 18.5s17.666 8.5 36.999 12.5c6 1.33301 14.333 3 25 5c49.333 10.667 80 21.334 92 32.001c11.333 8.66699 19.333 24.334 24 47.001
s7 56.667 7 102z" />
    <glyph glyph-name="brokenbar" unicode="&#xa6;" 
d="M427 371h160v-789h-160v789zM427 1578h160v-789h-160v789z" />
    <glyph glyph-name="section" unicode="&#xa7;" 
d="M545 321c37.333 10.667 69.668 28.3359 97.001 53.0029c48.667 43.333 73 98.666 73 165.999c0 3.33301 -0.333008 6.66602 -1 9.99902h-2c-0.666992 9.33301 -2 18.333 -4 27c-14.667 40.667 -52.334 83 -113.001 127c-39.333 19.333 -81.333 29 -126 29
c-52 0 -93.667 -14.833 -125 -44.5s-47 -68.834 -47 -117.501c0 -82 82.667 -165.333 248 -250zM466.002 -345.998c75.333 4 137.001 26.9971 185.001 68.9971c48 42.667 72 97.667 72 165c0 83.333 -105.333 175.333 -316 276c-82 42.667 -140.5 88.334 -175.5 137.001
s-52.5 107.667 -52.5 177c0 98.667 29.667 177.667 89 237c44.667 43.333 101.334 70.666 170.001 81.999l-40 19c-82 42.667 -140.5 88.334 -175.5 137.001s-52.5 107.667 -52.5 177c0 98.667 29.667 177.667 89 237c54.667 52.667 126.667 81.334 216 86.001
c5.33301 0.666992 11 1 17 1h3c44 0 98.333 -5.5 163 -16.5s97 -24.833 97 -41.5v-194h-51c-3.33301 54 -30 98 -80 132c-46.667 31.333 -96.334 48.333 -149.001 51h-15c-52 0 -93.667 -14.833 -125 -44.5s-47 -68.834 -47 -117.501c0 -88 95.667 -177.667 287 -269
c99.333 -44.667 167.5 -92.5 204.5 -143.5s55.5 -113.5 55.5 -187.5c0 -114 -33.667 -208 -101 -282c-31.333 -26 -64.333 -47.333 -99 -64c72 -37.333 123.333 -76.666 154 -117.999c36.667 -51.333 55 -113.666 55 -186.999c0 -114 -33.667 -208.333 -101 -283
c-82.667 -68 -175 -103 -277 -105v1c-4 -0.666992 -8.33301 -1 -13 -1h-3c-44 0 -98.333 5.5 -163 16.5s-97 24.833 -97 41.5v194h51c3.33301 -54 30 -98 80 -132c45.333 -30 93.666 -46.667 144.999 -50z" />
    <glyph glyph-name="dieresis" unicode="&#xa8;" horiz-adv-x="1024" 
d="M223 1289l70.998 71.998c8.66699 8 17 12 25 12c7.33301 0 16.333 -4.66699 27 -14l69 -73c6.66699 -9.33301 10 -17.666 10 -24.999c0 -8.66699 -4 -17.667 -12 -27l-69 -75c-11.333 -11.333 -19.666 -17 -24.999 -17c-9.33301 0 -17.666 4 -24.999 12l-76 86
c-6 8 -9 15.667 -9 23c0 8.66699 4.66699 17.334 14 26.001zM587.998 1289l70.998 72c8.66699 8 17 12 25 12c7.33301 0 16.333 -4.33301 27 -13l69 -74c6.66699 -9.33301 10 -17.666 10 -24.999c0 -8.66699 -4 -17.334 -12 -26.001l-69 -76
c-11.333 -11.333 -19.666 -17 -24.999 -17c-9.33301 0 -17.666 4 -24.999 12l-76 87c-6 7.33301 -9 14.666 -9 21.999c0 8.66699 4.66699 17.334 14 26.001z" />
    <glyph glyph-name="copyright" unicode="&#xa9;" horiz-adv-x="1313" 
d="M657 1616c193.333 0 354.333 -64.333 483 -193c129.333 -128 194 -289.333 194 -484c0 -193.333 -64.333 -354.333 -193 -483s-290 -193 -484 -193c-194.667 0 -356 64.333 -484 193s-192 289.667 -192 483c0 194.667 64 356 192 484c128.667 128.667 290 193 484 193z
M1139 939c0 147.333 -45.666 270.334 -136.999 369.001c-90.667 98.667 -205.667 148 -345 148c-138.667 0 -253.334 -49.333 -344.001 -148c-91.333 -98.667 -137 -221.667 -137 -369c0 -146.667 45.667 -269.334 137 -368.001c92 -98 206.667 -147 344 -147
c138 0 252.667 49 344 147c92 98 138 220.667 138 368zM1002 837.001c-17.333 -87.333 -54.666 -156.332 -111.999 -206.999c-56.667 -50.667 -126.334 -76 -209.001 -76c-110.667 0 -200 35 -268 105c-67.333 70.667 -101 163 -101 277c0 120 33.333 214.667 100 284
c66.667 70.667 156.334 106 269.001 106c88 0 161 -25 219 -75c58 -48.667 92 -115.334 102 -200.001h-159c-4.66699 36.667 -21.334 65.667 -50.001 87s-66 32 -112 32c-58.667 0 -104.167 -20.667 -136.5 -62s-48.5 -98.333 -48.5 -171c0 -35.333 4.33301 -67 13 -95
s21 -51.667 37 -71s35.5 -34.333 58.5 -45s48.5 -16 76.5 -16c42.667 0 78.5 11.167 107.5 33.5s47.167 53.5 54.5 93.5h159z" />
    <glyph glyph-name="guillemotleft" unicode="&#xab;" horiz-adv-x="985" 
d="M311 637c-4 -7.33301 -9.16699 -16.168 -15.5 -26.501s-9.5 -22.166 -9.5 -35.499c0 -11.333 2.33301 -22.333 7 -33s10.667 -20 18 -28l231 -332l-164 -123l-280 392c-9.33301 13.333 -18.833 29.833 -28.5 49.5s-14.5 44.5 -14.5 74.5s4.83301 55 14.5 75
s19.167 36.667 28.5 50l280 392l164 -123zM739 624.998c-16.667 -22 -25 -38.667 -25 -50c0 -9.33301 3.16699 -18 9.5 -26s11.5 -15.667 15.5 -23l170 -245l-164 -123l-225 313c-8.66699 11.333 -18 26.5 -28 45.5s-15 38.5 -15 58.5c0 17.333 4.33301 35.333 13 54
s18.667 35.667 30 51l225 289l164 -123z" />
    <glyph glyph-name="logicalnot" unicode="&#xac;" 
d="M87 767h840v-491l-1 -1h-98v392h-741v100z" />
    <glyph glyph-name="registered" unicode="&#xae;" horiz-adv-x="1313" 
d="M656 1615c194 0 355 -64.333 483 -193c128.667 -128 193 -289 193 -483c0 -193.333 -64.333 -354.333 -193 -483c-128 -128 -289 -192 -483 -192s-355 64 -483 192c-128 128.667 -192 289.667 -192 483c0 194 64 355 192 483c128.667 128.667 289.667 193 483 193z
M1140 939c0 148 -46 271.667 -138 371c-90.667 98.667 -206 148 -346 148c-138.667 0 -254 -49.333 -346 -148c-91.333 -99.333 -137 -223 -137 -371s46 -271.333 138 -370c92 -98 207 -147 345 -147c138.667 0 254 49 346 147c92 98.667 138 222 138 370zM367 576v728.001
h283c93.333 0 164 -17.333 212 -52s72 -86.334 72 -155.001c0 -78 -22.333 -134.333 -67 -169c-24.667 -18.667 -58 -32.667 -100 -42l179 -310h-180l-168 300h-72v-300h-159zM526 1001h124c82.667 0 124 31.333 124 94c0 56.667 -41.333 85 -124 85h-124v-179z" />
    <glyph glyph-name="degree" unicode="&#xb0;" horiz-adv-x="674" 
d="M339 1372c-57.333 0 -106.501 -20.333 -147.501 -61s-61.5 -90 -61.5 -148s20.333 -107 61 -147s90 -60 148 -60s107 20 147 60s60 89 60 147s-20.167 107.333 -60.5 148s-89.166 61 -146.499 61zM338.999 1442c76.667 0 142.002 -27.167 196.002 -81.5
s81 -119.833 81 -196.5c0 -76 -27.333 -141.333 -82 -196s-120.334 -82 -197.001 -82c-78 0 -143.667 27 -197 81s-80 119.667 -80 197s27.167 143 81.5 197s120.166 81 197.499 81z" />
    <glyph glyph-name="paragraph" unicode="&#xb6;" horiz-adv-x="1024" 
d="M929 1435l-0.000976562 -70h-127v-1365h-82v1365h-166v-1365h-84v738c-116 5.33301 -207.833 39.5 -275.5 102.5s-101.5 144.833 -101.5 245.5c0 104.667 35.833 189 107.5 253s166.834 96 285.501 96h443z" />
    <glyph glyph-name="guillemotright" unicode="&#xbb;" horiz-adv-x="985" 
d="M440 969l164 123.002l280 -392c9.33301 -13.333 18.833 -30 28.5 -50s14.5 -45 14.5 -75s-4.83301 -54.833 -14.5 -74.5s-19.167 -36.167 -28.5 -49.5l-280 -392l-164 123l231 332c7.33301 8 13.333 17.333 18 28s7 21.667 7 33c0 13.333 -3.16699 25.166 -9.5 35.499
s-11.5 19.166 -15.5 26.499zM73 846.002l164 123l225 -289c11.333 -15.333 21.333 -32.333 30 -51s13 -36.667 13 -54c0 -20 -5 -39.5 -15 -58.5s-19.333 -34.167 -28 -45.5l-225 -313l-164 123l170 245c4 7.33301 9.16699 15 15.5 23s9.5 16.667 9.5 26
c0 11.333 -8.33301 28 -25 50z" />
    <glyph glyph-name="multiply" unicode="&#xd7;" horiz-adv-x="1041" 
d="M520 607l-304 -304l-145 144l305 305l-305 304l145 144l304 -304l305 304l144 -144l-304 -304l304 -305l-144 -144z" />
    <glyph glyph-name="divide" unicode="&#xf7;" horiz-adv-x="1041" 
d="M71 855h898v-207h-898v207zM520 1281c44 0 81.333 -15.335 112 -46.002c31.333 -31.333 47 -68.666 47 -111.999s-15.667 -80.666 -47 -111.999c-30.667 -30.667 -68 -46 -112 -46s-81.333 15.333 -112 46s-46 68 -46 112s15.333 81.333 46 112s68 46 112 46z
M520 537.998c44 0 81.333 -15.335 112 -46.002c31.333 -31.333 47 -68.666 47 -111.999s-15.667 -80.666 -47 -111.999c-30.667 -30.667 -68 -46 -112 -46s-81.333 15.333 -112 46s-46 68 -46 112s15.333 81.333 46 112s68 46 112 46z" />
    <glyph glyph-name="dotlessi" unicode="&#x131;" horiz-adv-x="1200" 
d="M510 100l55 357l-278 -228l-90 156l333 131l-333 127l90 156l278 -224l-53 353l178 2l-55 -355l278 226l88 -158l-331 -127l334 -131l-91 -156l-278 228l55 -357h-180z" />
    <glyph glyph-name="circumflex" unicode="&#x2c6;" horiz-adv-x="1024" 
d="M221 1079l232 355h118l232 -355h-58l-233 216l-233 -216h-58z" />
    <glyph glyph-name="caron" unicode="&#x2c7;" horiz-adv-x="1024" 
d="M221 1434h58l233 -214l233 214h58l-232 -356h-118z" />
    <glyph glyph-name="uni02C9" unicode="&#x2c9;" horiz-adv-x="1024" 
d="M254 1195v125h516v-125h-516z" />
    <glyph glyph-name="breve" unicode="&#x2d8;" horiz-adv-x="1024" 
d="M219 1349l50.998 0.00292969c11.333 -48.667 36.333 -84.334 75 -107.001s94.334 -34 167.001 -34s128 11.167 166 33.5s62.667 58.166 74 107.499h51c-13.333 -88.667 -44.666 -155.834 -93.999 -201.501s-115 -68.5 -197 -68.5c-81.333 0 -147 23 -197 69
s-82 113 -96 201z" />
    <glyph glyph-name="dotaccent" unicode="&#x2d9;" horiz-adv-x="815" 
d="M374 1445h68l17 -213l163 139l49 -49l-140 -162l214 -18v-68l-214 -17l140 -163l-49 -48l-163 139l-17 -214h-68l-17 214l-164 -139l-47 48l139 163l-214 17v68l214 18l-139 162l47 49l164 -139z" />
    <glyph glyph-name="ring" unicode="&#x2da;" horiz-adv-x="1024" 
d="M411 1257c0 -28 9.66699 -51.667 29 -71s43 -29 71 -29s51.667 9.66699 71 29s29 43 29 71c0 26.667 -9.83301 49.834 -29.5 69.501s-43.167 29.5 -70.5 29.5s-50.833 -9.83301 -70.5 -29.5s-29.5 -42.834 -29.5 -69.501zM335 1257c0 50 17 91.999 51 125.999
s75.667 51 125 51c50.667 0 93.167 -17.167 127.5 -51.5s51.5 -76.166 51.5 -125.499c0 -50 -17.167 -92.167 -51.5 -126.5s-76.833 -51.5 -127.5 -51.5c-49.333 0 -91 17.167 -125 51.5s-51 76.5 -51 126.5z" />
    <glyph glyph-name="ogonek" unicode="&#x2db;" horiz-adv-x="1024" 
d="M640 0c-47.333 -41.333 -84.168 -81.1699 -110.501 -119.503s-39.5 -75.833 -39.5 -112.5c0 -31.333 9 -56.333 27 -75s42.333 -28 73 -28c26.667 0 49.834 5.16699 69.501 15.5s36.167 26.5 49.5 48.5l28 -16c-24 -42 -54.167 -74.333 -90.5 -97
s-76.166 -34 -119.499 -34c-46.667 0 -84.667 11.833 -114 35.5s-44 53.834 -44 90.501c0 50.667 20.167 102.834 60.5 156.501s94.166 98.834 161.499 135.501h49z" />
    <glyph glyph-name="tilde" unicode="&#x2dc;" horiz-adv-x="1024" 
d="M808 1382c-13.333 -68.667 -36.1689 -120 -68.502 -154s-74.5 -51 -126.5 -51h-4c-33.333 0 -71 7.66699 -113 23c-44 16 -82 24 -114 24c-26 0 -46.167 -6.83301 -60.5 -20.5s-25.5 -37.5 -33.5 -71.5h-54c12.667 70.667 35.334 123.5 68.001 158.5
s75.667 52.5 129 52.5c30.667 -0.666992 68.334 -8.66699 113.001 -24c42.667 -15.333 80 -23 112 -23h4c24 0 43.333 6.66699 58 20s26.667 35.333 36 66h54z" />
    <glyph glyph-name="hungarumlaut" unicode="&#x2dd;" horiz-adv-x="1024" 
d="M217 1079l144 273.002c16 29.333 31.167 50.333 45.5 63s29.833 19 46.5 19c18.667 0 34.667 -6.66699 48 -20s20 -29 20 -47c0 -10.667 -3.5 -22.334 -10.5 -35.001s-17.167 -26.334 -30.5 -41.001l-205 -212h-58zM502 1079l144 273.002
c16 29.333 31.167 50.333 45.5 63s29.833 19 46.5 19c18.667 0 34.667 -6.66699 48 -20s20 -29 20 -47c0 -10.667 -3.5 -22.334 -10.5 -35.001s-17.167 -26.334 -30.5 -41.001l-205 -212h-58z" />
    <glyph glyph-name="afii57388" unicode="&#x60c;" horiz-adv-x="569" 
d="M264 -238l-264 408l196 117l250 -416z" />
    <glyph glyph-name="afii57403" unicode="&#x61b;" horiz-adv-x="496" 
d="M123 0v264h250v-264h-250zM264 416l-264 408l196 117l250 -416z" />
    <glyph glyph-name="afii57407" unicode="&#x61f;" horiz-adv-x="991" 
d="M714 0h-249v254h249v-254zM465 399l0.00195312 113.004c0 12 -1.16699 24.5 -3.5 37.5s-8.16602 25.833 -17.499 38.5c-6.66699 8 -16.834 18.167 -30.501 30.5s-26.5 21.833 -38.5 28.5l-158 96c-40.667 24 -72.667 49.5 -96 76.5s-41 54.667 -53 83
s-19.5 57.5 -22.5 87.5s-4.5 60.333 -4.5 91c0 39.333 4 83.666 12 132.999c8 48.667 27.667 91.667 59 129c19.333 22 40.833 39.167 64.5 51.5s47.334 21.333 71.001 27s46.167 9.16699 67.5 10.5s39.666 2 54.999 2h539v-215h-451c-11.333 0 -22.833 -1.16699 -34.5 -3.5
s-23.167 -6.16602 -34.5 -11.499s-23 -13.333 -35 -24c-20.667 -20.667 -33 -43.334 -37 -68.001s-6 -49.334 -6 -74.001c0 -30.667 2.66699 -56.334 8 -77.001s13 -38.334 23 -53.001s22.167 -27.167 36.5 -37.5s30.166 -19.833 47.499 -28.5l133 -80
c20.667 -12.667 41.167 -27.5 61.5 -44.5s38.166 -34.833 53.499 -53.5c16 -23.333 26.667 -46.5 32 -69.5s8 -48.5 8 -76.5v-119h-249z" />
    <glyph glyph-name="afii57440" unicode="&#x640;" horiz-adv-x="432" 
d="M-9 1v184l450 -1v-184z" />
    <glyph glyph-name="afii57451" unicode="&#x64b;" horiz-adv-x="408" 
d="M389 1675l-340 -193l17 91l340 193zM403 1842l-340 -193l17 91l340 193z" />
    <glyph glyph-name="afii57452" unicode="&#x64c;" horiz-adv-x="469" 
d="M409 1632c-4 -9.33301 -10.4971 -20.4971 -19.4971 -33.4971s-19.667 -26.333 -32 -40s-25.833 -26.834 -40.5 -39.501s-29.834 -23 -45.501 -31s-31.5 -13 -47.5 -15c-3.33301 -0.666992 -6.66602 -1 -9.99902 -1c-12.667 0 -24.667 3 -36 9
c-14.667 7.33301 -22.667 18 -24 32c-0.666992 3.33301 -1 7 -1 11c0 10 1.33301 20.333 4 31c3.33301 14 7 28 11 42c1.33301 5.33301 2 10.333 2 15c0 6.66699 -1.33301 12.334 -4 17.001c-4.66699 6.66699 -15 10 -31 10h-4c-18 -0.666992 -46.667 -7.33398 -86 -20.001
c12.667 18 27.5 32.5 44.5 43.5s33.833 18.5 50.5 22.5c7.33301 1.33301 14.666 2 21.999 2c8.66699 0 17 -1 25 -3c14.667 -4.66699 26 -13 34 -25c7.33301 -10.667 11 -24.667 11 -42v-6c-1.33301 -20 -9.33301 -44 -24 -72c30.667 13.333 59.167 28 85.5 44
s50.166 36.667 71.499 62c-27.333 6.66699 -47.5 17.167 -60.5 31.5s-20.167 30.166 -21.5 47.499c-0.666992 3.33301 -1 6.66602 -1 9.99902c0 14 3 28.333 9 43c6.66699 18 16.5 34.5 29.5 49.5s27.833 27.167 44.5 36.5c14.667 8 29.667 12 45 12h4
c14 -1.33301 23.333 -9.33301 28 -24c4.66699 -14 7 -30 7 -48v-3c-0.666992 -19.333 -2.83398 -38 -6.50098 -56s-6.5 -30.333 -8.5 -37l38 -12l-17 -76zM388.003 1793c-6.66699 6.66699 -14.333 10 -23 10h-3c-8 0 -14.333 -2.66699 -19 -8c-6 -6.66699 -9 -14 -9 -22
c-0.666992 -2 -1 -4 -1 -6c0 -4.66699 1.33301 -9 4 -13c3.33301 -5.33301 8 -10 14 -14s12.833 -7.83301 20.5 -11.5l24.5 -11.5c1.33301 12.667 2 24.334 2 35.001c0 9.33301 -0.833008 18.166 -2.5 26.499s-4.16699 13.833 -7.5 16.5v-2z" />
    <glyph glyph-name="afii57453" unicode="&#x64d;" horiz-adv-x="408" 
d="M405 -148l-340 -193l17 91l340 193zM378 -316l-340 -193l17 91l340 193z" />
    <glyph glyph-name="afii57454" unicode="&#x64e;" horiz-adv-x="408" 
d="M389 1675l-340 -193l17 91l340 193z" />
    <glyph glyph-name="afii57455" unicode="&#x64f;" horiz-adv-x="414" 
d="M366 1664c-7.33301 -15.333 -19.832 -32.833 -37.499 -52.5s-38.5 -38 -62.5 -55s-50 -31.167 -78 -42.5c-26 -10 -51.667 -15 -77 -15h-9c-19.333 1.33301 -35.166 2.33301 -47.499 3s-21.833 1.33398 -28.5 2.00098s-10.667 1.33398 -12 2.00098h-2
c0 0.666992 0.333008 1 1 1l105.5 43c29.667 12 56 24 79 36s43.833 25.167 62.5 39.5s37.334 32.5 56.001 54.5c-31.333 7.33301 -54.333 18.666 -69 33.999s-23 32.333 -25 51c-0.666992 4 -1 8 -1 12c0 14.667 3.33301 30 10 46c8 19.333 19.167 37 33.5 53
s30.833 29 49.5 39c17.333 8.66699 34.666 13 51.999 13h4c10.667 -0.666992 19 -4.83398 25 -12.501s10.333 -17.167 13 -28.5c1.33301 -9.33301 2 -19.333 2 -30v-9c-0.666992 -14.667 -1.83398 -28.667 -3.50098 -42s-3.83398 -25.5 -6.50098 -36.5s-5 -19.167 -7 -24.5
l44 -13l-19 -80zM341.001 1841c-3.33301 4 -7.33301 6.66602 -12 7.99902s-8.66699 2 -12 2h-5c-9.33301 0 -16.666 -2.66699 -21.999 -8c-6.66699 -7.33301 -10.334 -15.666 -11.001 -24.999v-4c0 -14.667 6.66699 -25.667 20 -33c14.667 -8 31.667 -15.667 51 -23
c1.33301 13.333 2 26 2 38c0 10 -0.666992 19.5 -2 28.5s-4.33301 15.167 -9 18.5v-2z" />
    <glyph glyph-name="afii57456" unicode="&#x650;" horiz-adv-x="408" 
d="M395 -148l-340 -193l17 91l340 193z" />
    <glyph glyph-name="afii57457" unicode="&#x651;" horiz-adv-x="425" 
d="M398 1823c7.33301 -11.333 13.1719 -23.3271 17.5049 -35.9941s8.16602 -25.334 11.499 -38.001c2.66699 -14.667 4 -29.334 4 -44.001c0 -8 -0.333008 -15.667 -1 -23c-2 -22.667 -7 -43.334 -15 -62.001s-19 -33.834 -33 -45.501s-31 -17.5 -51 -17.5
c-16.667 0 -29.167 3 -37.5 9s-17.5 13.667 -27.5 23c-4 -6.66699 -9 -14.334 -15 -23.001s-13.333 -17 -22 -25s-19 -15 -31 -21s-25.333 -9.66699 -40 -11c-4.66699 -0.666992 -9 -1 -13 -1c-17.333 0 -31.666 3.66699 -42.999 11c-14 8.66699 -24.333 20.334 -31 35.001
s-10.334 31.334 -11.001 50.001c-0.666992 5.33301 -1 10.666 -1 15.999c0 12.667 1 25 3 37c2 17.333 5.33301 33.166 10 47.499s9.33398 24.833 14.001 31.5c0 -0.666992 0.333008 -1 1 -1s2 0.666992 4 2l11.5 9l11.5 9c2 0.666992 3.33301 1 4 1s1 -0.333008 1 -1
c-5.33301 -13.333 -9.66602 -28.666 -12.999 -45.999c-2.66699 -12.667 -4 -24.667 -4 -36c0 -4.66699 0.333008 -9.33398 1 -14.001c1.33301 -16 6 -29.333 14 -40c6.66699 -10 18 -15 34 -15h3c19.333 0 34.166 5.33301 44.499 16s18.166 23.167 23.499 37.5
s9.5 29.166 12.5 44.499s7.16699 28 12.5 38c0.666992 -0.666992 1.33398 -1 2.00098 -1s1.66699 0.333008 3 1c2.66699 2 5.66699 4.5 9 7.5s6.66602 5.83301 9.99902 8.5c1.33301 0.666992 2.33301 1 3 1c1.33301 0 2 -0.333008 2 -1c-3.33301 -11.333 -5 -22.333 -5 -33
c0 -7.33301 1 -14.333 3 -21c3.33301 -16.667 9.66602 -30 18.999 -40s21.333 -16 36 -18h6c12.667 0 26 4.66699 40 14c4 5.33301 6 12 6 20v2c-0.666992 8.66699 -2.33398 17.5 -5.00098 26.5s-6.33398 18 -11.001 27s-9.33398 16.833 -14.001 23.5l24.5 34z" />
    <glyph glyph-name="afii57458" unicode="&#x652;" horiz-adv-x="328" 
d="M347 1696c0.666992 -5.33301 1.00293 -11.0039 1.00293 -17.0039c0 -17.333 -3.66699 -35.333 -11 -54c-10 -25.333 -23.667 -54.666 -41 -87.999v1c0 0.666992 0.333008 1.33398 1 2.00098l-3 -5c-16 -9.33301 -36.5 -18.166 -61.5 -26.499s-49.5 -13.166 -73.5 -14.499
c-4 -0.666992 -8 -1 -12 -1c-19.333 0 -37 4 -53 12c-19.333 8.66699 -31 25.667 -35 51c-1.33301 8 -2 16.667 -2 26c0 15.333 2 32 6 50c5.33301 28 14.166 55 26.499 81s27.666 48.333 45.999 67s38.166 29.667 59.499 33c5.33301 0.666992 10.333 1 15 1
c13.333 0 26.333 -2.33301 39 -7c17.333 -7.33301 32.833 -17 46.5 -29s25.167 -25.5 34.5 -40.5s15 -28.833 17 -41.5zM283.003 1628c-2 9.33301 -6.49805 19.334 -13.498 30.001s-15.333 20.5 -25 29.5s-20.167 16.5 -31.5 22.5c-8.66699 4 -17.334 6 -26.001 6
c-2.66699 0 -5.66699 -0.333008 -9 -1c-20 -3.33301 -34.667 -12.333 -44 -27c-8 -12 -12 -24.333 -12 -37c0 -2.66699 0.333008 -5.33398 1 -8.00098c2 -14.667 9 -25.5 21 -32.5s26 -10.5 42 -10.5c1.33301 -0.666992 2.33301 -1 3 -1c15.333 0 31 2.33301 47 7
c17.333 4.66699 32.666 11.667 45.999 21zM296.005 1537c0 -0.666992 -0.333008 -1 -1 -1zM295.005 1536c0 -0.666992 -0.333008 -1 -1 -1c0.666992 0 1 0.333008 1 1z" />
    <glyph glyph-name="afii57392" unicode="&#x660;" horiz-adv-x="1402" 
d="M520 890c0 6.66699 2.66699 12.667 8 18s11.666 8 18.999 8h309c7.33301 0 13.5 -2.66699 18.5 -8s7.5 -11.333 7.5 -18v-310c0 -6.66699 -2.5 -12.334 -7.5 -17.001s-11.167 -7 -18.5 -7h-309c-7.33301 0 -13.666 2.33301 -18.999 7s-8 10.334 -8 17.001v310z" />
    <glyph glyph-name="afii57393" unicode="&#x661;" horiz-adv-x="795" 
d="M290 1432c0 6.66699 2.83301 12.334 8.5 17.001s11.834 7 18.501 7h173c7.33301 0 13.333 -2.33301 18 -7s7 -10.334 7 -17.001v-1403c0 -7.33301 -2.33301 -13.333 -7 -18s-10.667 -7 -18 -7h-173c-6.66699 0 -12.834 2.33301 -18.501 7s-8.5 10.667 -8.5 18v1403z" />
    </font>
</defs>
</svg>
